<svg width="490" height="125" viewBox="0 0 490 125" fill="none" xmlns="http://www.w3.org/2000/svg">
<path opacity="0.56" d="M66.5956 89.3206L66.8257 89.9998H67.5428H89.8058H91.231L90.7461 88.6596L59.5041 2.31357L59.2654 1.65381H58.5638H34.2098H33.5082L33.2694 2.31357L2.02743 88.6596L1.5425 89.9998H2.96777H24.9848H25.7019L25.9319 89.3206L30.8679 74.7478H61.6597L66.5956 89.3206ZM145.546 26.9564C141.297 21.86 134.332 18.3818 125.39 18.3818C107.887 18.3818 94.1322 32.4651 94.1322 54.5598C94.1322 76.6446 107.878 90.9838 125.39 90.9838C134.388 90.9838 141.262 87.2826 145.546 82.2091V88.8768C145.546 94.4814 144.029 98.1211 141.714 100.367C139.392 102.619 136.112 103.621 132.278 103.621C125.297 103.621 120.668 100.455 119.47 95.8805L119.274 95.1338H118.502H97.7152H96.5961L96.7215 96.2459C97.6734 104.685 101.588 111.61 107.92 116.411C114.237 121.2 122.89 123.825 133.262 123.825C145.364 123.825 154.231 119.835 160.064 113.395C165.881 106.972 168.579 98.2239 168.579 88.8768V20.3658V19.3658H167.579H146.546H145.546V20.3658V26.9564ZM246.865 66.4853L247.173 65.2448H245.895H223.509H222.872L222.603 65.8219C221.803 67.5362 220.65 69.041 219.045 70.1197C217.446 71.195 215.34 71.8868 212.562 71.8868C209.387 71.8868 206.571 70.9087 204.465 68.9425C202.542 67.1472 201.134 64.4548 200.636 60.7258H247.125H248.014L248.118 59.8427C248.368 57.7143 248.494 55.5843 248.494 53.5758C248.494 42.888 244.874 34.0704 238.616 27.9241C232.361 21.7806 223.548 18.3818 213.3 18.3818C202.866 18.3818 193.927 21.8427 187.594 28.1602C181.259 34.4792 177.614 43.5733 177.614 54.6828C177.614 65.7972 181.323 74.8906 187.688 81.2072C194.05 87.5215 202.987 90.9838 213.3 90.9838C230.833 90.9838 243.428 80.3604 246.865 66.4853ZM304.945 88.9998V89.9998H305.945H326.855H327.855V88.9998V48.9018C327.855 39.4886 325.154 31.9064 320.317 26.6677C315.473 21.421 308.579 18.6278 300.41 18.6278C292.084 18.6278 285.161 21.8337 280.623 26.6861V20.3658V19.3658H279.623H258.59H257.59V20.3658V88.9998V89.9998H258.59H279.623H280.623V88.9998V51.7308C280.623 47.2362 281.863 43.8772 283.937 41.6498C286.003 39.4306 289.008 38.2168 292.784 38.2168C296.56 38.2168 299.564 39.4306 301.63 41.6498C303.705 43.8772 304.945 47.2362 304.945 51.7308V88.9998ZM405.668 64.3731L405.942 63.1538H404.693H382.306H381.608L381.367 63.8102C380.489 66.21 379.293 67.9926 377.709 69.1809C376.133 70.3632 374.08 71.0258 371.359 71.0258C367.897 71.0258 365.032 69.6779 363.005 67.0352C360.953 64.3612 359.69 60.2673 359.69 54.6828C359.69 49.0984 360.953 45.0044 363.005 42.3304C365.032 39.6877 367.897 38.3398 371.359 38.3398C374.064 38.3398 376.149 39.0553 377.75 40.2728C379.358 41.4965 380.552 43.2847 381.365 45.5497L381.603 46.2118H382.306H404.693H405.934L405.67 44.9988C403.843 36.6209 399.795 29.9482 393.946 25.3745C388.1 20.8027 380.524 18.3818 371.729 18.3818C361.412 18.3818 352.535 21.8771 346.235 28.209C339.934 34.5417 336.289 43.6337 336.289 54.6828C336.289 65.7922 339.934 74.8852 346.236 81.2037C352.537 87.5209 361.415 90.9838 371.729 90.9838C380.536 90.9838 388.111 88.4334 393.952 83.8025C399.792 79.1715 403.84 72.5052 405.668 64.3731ZM447.551 60.3986L432.625 20.0191L432.384 19.3658H431.687H408.194H406.688L407.273 20.7539L435.024 86.6493L419.459 121.184L418.824 122.595H420.371H443.003H443.665L443.923 121.986L486.973 20.7572L487.565 19.3658H486.053H463.298H462.6L462.359 20.0215L447.551 60.3986ZM46.2693 29.0357L55.5705 56.5118H37.0749L46.2693 29.0357ZM145.546 54.6828C145.546 59.9371 143.868 63.9205 141.319 66.5835C138.767 69.2493 135.282 70.6568 131.54 70.6568C124.266 70.6568 117.534 65.0011 117.534 54.5598C117.534 49.311 119.24 45.36 121.802 42.7265C124.369 40.0881 127.856 38.7088 131.54 38.7088C135.282 38.7088 138.767 40.1163 141.319 42.7822C143.868 45.4451 145.546 49.4285 145.546 54.6828ZM213.054 37.2328C216.362 37.2328 219.348 38.2485 221.49 40.0828C223.406 41.7234 224.695 44.0569 224.93 47.0408H200.86C201.56 43.9979 202.981 41.6599 204.878 40.037C207.011 38.2129 209.816 37.2328 213.054 37.2328Z" stroke="white" stroke-width="2"/>
</svg>
