<svg width="405" height="137" viewBox="0 0 405 137" fill="none" xmlns="http://www.w3.org/2000/svg">
<path opacity="0.56" d="M2.62598 13.6541H1.62598V14.6541V101V102H2.62598H34.975C48.9664 102 60.5457 97.5304 68.6333 89.7272C76.7234 81.9216 81.239 70.8572 81.239 57.8271C81.239 44.7364 76.724 33.6712 68.6326 25.8801C60.5441 18.0917 48.9645 13.6541 34.975 13.6541H2.62598ZM90.9932 101V102H91.9932H113.026H114.026V101V32.3661V31.3661H113.026H91.9932H90.9932V32.3661V101ZM174.501 38.9566C170.251 33.8603 163.287 30.3821 154.345 30.3821C136.841 30.3821 123.087 44.4654 123.087 66.5601C123.087 88.6448 136.832 102.984 154.345 102.984C163.342 102.984 170.216 99.2828 174.501 94.2093V100.877C174.501 106.482 172.983 110.121 170.668 112.367C168.347 114.619 165.067 115.621 161.233 115.621C154.251 115.621 149.622 112.455 148.424 107.881L148.228 107.134H147.457H126.67H125.55L125.676 108.246C126.628 116.686 130.543 123.611 136.874 128.411C143.191 133.201 151.845 135.825 162.217 135.825C174.318 135.825 183.186 131.835 189.018 125.395C194.836 118.972 197.534 110.224 197.534 100.877V32.3661V31.3661H196.534H175.501H174.501V32.3661V38.9566ZM210.75 101V102H211.75H232.783H233.783V101V32.3661V31.3661H232.783H211.75H210.75V32.3661V101ZM286.278 102H287.278V101V83.1651V82.1651H286.278H278.775C276.52 82.1651 275.238 81.7412 274.503 81.0623C273.79 80.4029 273.379 79.301 273.379 77.3841V50.8321H286.155H287.155V49.8321V32.3661V31.3661H286.155H273.379V15.6381V14.6381H272.379H251.346H250.346V15.6381V31.3661H242.982H241.982V32.3661V49.8321V50.8321H242.982H250.346V77.1381C250.346 86.2402 252.894 92.525 257.453 96.5101C261.986 100.472 268.327 102 275.577 102H286.278ZM344.226 38.9876C340.006 33.9555 333.125 30.3821 324.07 30.3821C306.567 30.3821 292.812 44.4654 292.812 66.5601C292.812 88.642 306.556 102.984 323.947 102.984C333.042 102.984 339.935 99.3807 344.226 94.3257V101V102H345.226H366.259H367.259V101V32.3661V31.3661H366.259H345.226H344.226V32.3661V38.9876ZM380.476 101V102H381.476H402.509H403.509V101V9.98006V8.98006H402.509H381.476H380.476V9.98006V101ZM24.659 81.7961V33.6121H33.622C41.3596 33.6121 47.3836 35.8876 51.4725 39.9765C55.5614 44.0654 57.837 50.0894 57.837 57.8271C57.837 65.5642 55.5619 71.5234 51.4776 75.5495C47.3912 79.5778 41.3668 81.7961 33.622 81.7961H24.659ZM102.571 26.2321C110.441 26.2321 115.994 20.802 115.994 13.9161C115.994 6.91393 110.448 1.47705 102.571 1.47705C94.5781 1.47705 89.0252 6.90753 89.0252 13.9161C89.0252 20.8084 94.5854 26.2321 102.571 26.2321ZM174.501 66.6831C174.501 71.9373 172.822 75.9207 170.273 78.5837C167.721 81.2495 164.237 82.6571 160.495 82.6571C153.22 82.6571 146.489 77.0013 146.489 66.5601C146.489 61.3112 148.194 57.3603 150.756 54.7268C153.323 52.0883 156.811 50.7091 160.495 50.7091C164.237 50.7091 167.721 52.1166 170.273 54.7824C172.822 57.4454 174.501 61.4288 174.501 66.6831ZM222.328 26.2321C230.198 26.2321 235.751 20.802 235.751 13.9161C235.751 6.91393 230.205 1.47705 222.328 1.47705C214.335 1.47705 208.782 6.90753 208.782 13.9161C208.782 20.8084 214.342 26.2321 222.328 26.2321ZM344.226 66.6831C344.226 71.9373 342.548 75.9207 339.999 78.5837C337.447 81.2495 333.962 82.6571 330.22 82.6571C322.946 82.6571 316.214 77.0013 316.214 66.5601C316.214 61.3112 317.92 57.3603 320.482 54.7268C323.049 52.0883 326.536 50.7091 330.22 50.7091C333.962 50.7091 337.447 52.1166 339.999 54.7824C342.548 57.4454 344.226 61.4288 344.226 66.6831Z" stroke="white" stroke-width="2"/>
</svg>
