<svg width="108" height="20" viewBox="0 0 108 20" fill="none" xmlns="http://www.w3.org/2000/svg">
<path d="M13.8329 2.01339C13.29 1.71889 11.7338 1.90099 9.86462 2.46649C6.59343 4.65219 3.83259 7.87219 3.63993 13.043C3.60485 13.1667 3.2822 13.0262 3.21838 12.988C2.33502 11.333 1.98505 9.59029 2.72264 7.07629C2.86011 6.85259 2.41064 6.57719 2.32983 6.65589C2.16793 6.81439 1.49301 7.51709 1.04476 8.27709C-1.17717 12.0447 0.275867 16.8722 4.16326 18.9848C8.04982 21.1008 12.9577 19.7359 15.1218 15.9357C17.6253 11.5497 15.3007 2.81469 13.833 2.01349L13.8329 2.01339Z" fill="#82B541"/>
<path d="M27.7453 4.11816C23.1369 4.11816 19.792 7.46686 19.792 12.0809C19.792 16.7327 23.1282 19.9816 27.9058 19.9816C30.319 19.9816 32.2295 19.244 33.7489 17.7257C34.2027 17.2467 34.2516 16.7851 34.2516 16.6087C34.2516 15.8565 33.6793 15.3102 32.8909 15.3102C32.4935 15.3102 32.1611 15.4569 31.7798 15.8015C30.9194 16.5851 29.7864 17.3856 27.9058 17.3856C25.2907 17.3856 23.164 15.4664 23.03 13.0019H33.4381C34.5699 13.0019 35.1197 12.4847 35.1197 11.4211C35.1197 11.108 35.1197 10.882 35.0553 10.4362C34.4946 6.48026 31.7622 4.11866 27.7455 4.11866L27.7453 4.11816ZM27.7453 6.58826C30.2441 6.58826 31.8476 8.14486 31.9465 10.6572H23.0333C23.2673 8.33206 25.2785 6.58826 27.7451 6.58826H27.7453Z" fill="black"/>
<path d="M45.0577 4.11816C42.9642 4.11816 40.8915 5.29476 40.0818 6.92896V5.91896C40.0818 4.35446 38.8413 4.27526 38.5928 4.27526C37.8578 4.27526 37.0723 4.70696 37.0723 5.91896V18.1169C37.0723 19.7416 38.3927 19.8237 38.6573 19.8237C38.9218 19.8237 40.2429 19.7416 40.2429 18.1169V11.578C40.2429 8.73286 41.8923 6.74566 44.2537 6.74566C46.5409 6.74566 47.6532 8.21286 47.6532 11.2317V18.1169C47.6532 19.7416 48.9742 19.8237 49.2388 19.8237C49.5033 19.8237 50.8237 19.7416 50.8237 18.1169V10.2584C50.8237 7.29016 49.3089 4.11906 45.0577 4.11906V4.11816Z" fill="black"/>
<path d="M65.1701 4.27588C64.4375 4.27588 63.9061 4.69358 63.5897 5.51548L59.2519 16.1777L54.9472 5.51548C54.6102 4.68128 54.0828 4.27588 53.3346 4.27588C52.4605 4.27588 51.749 4.94258 51.749 5.76228C51.749 5.96508 51.7726 6.22818 51.948 6.63918L56.9331 18.1447C57.5272 19.5327 58.5043 19.824 59.2197 19.824C59.9346 19.824 60.9122 19.5327 61.5075 18.1454L66.525 6.57588C66.6964 6.16998 66.7229 5.87198 66.7229 5.73098C66.7229 4.90178 66.0546 4.27608 65.1701 4.27608V4.27588Z" fill="black"/>
<path d="M74.3854 4.11847C72.3576 4.11847 70.4689 4.67047 69.068 5.67167C68.5929 5.99207 68.3617 6.39177 68.3617 6.89437C68.3617 7.58637 68.9023 8.12888 69.5936 8.12888C69.8927 8.12888 70.2274 8.01248 70.5345 7.80218C71.7388 7.01748 72.8706 6.65148 74.0956 6.65148C76.4397 6.65148 77.7854 7.81688 77.7854 9.84908V10.1858C72.5232 10.1914 67.1709 10.8126 67.1709 15.2874C67.1709 18.508 69.9866 19.9499 72.777 19.9499C74.9993 19.9499 76.7741 19.0892 77.9128 17.4595V18.2431C77.9128 19.4102 78.7145 19.824 79.4024 19.824C79.5472 19.824 80.8263 19.7796 80.8263 18.2431V10.0371C80.8263 6.33028 78.4179 4.11768 74.3852 4.11768L74.3854 4.11847ZM77.1184 12.4676H77.7855V13.1815C77.7855 15.7927 76.0844 17.4797 73.4527 17.4797C72.7384 17.4797 70.4069 17.3172 70.4069 15.2244C70.4068 12.7531 74.2371 12.4676 77.1184 12.4676Z" fill="black"/>
<path d="M89.085 7.0916C90.4722 7.0916 90.5424 6.0365 90.5424 5.8251C90.5424 5.1977 90.1593 4.5271 89.085 4.5271H86.2325V1.7067C86.2325 0.446899 85.3963 0 84.6797 0C84.4151 0 83.0947 0.0820993 83.0947 1.7067V15.0994C83.0947 18.1902 84.6544 19.8238 87.6058 19.8238C88.3695 19.8238 89.1138 19.6916 89.6002 19.4702C90.1582 19.1981 90.4779 18.7506 90.4779 18.243C90.4779 17.5268 89.9465 17.0074 89.2138 17.0074C89.0723 17.0074 88.8711 17.0417 88.6491 17.1041C88.3776 17.1705 88.1936 17.1963 87.9923 17.1963C86.7915 17.1963 86.2325 16.4301 86.2325 14.7847V7.0903H89.085V7.0916Z" fill="black"/>
<path d="M99.5672 4.11816C94.7721 4.11816 91.293 7.44056 91.293 12.0176C91.293 14.246 92.1361 16.2771 93.6659 17.7364C95.1842 19.1839 97.2799 19.9811 99.5672 19.9811C104.303 19.9811 107.874 16.5576 107.874 12.0177C107.874 7.44056 104.38 4.11826 99.5672 4.11826V4.11816ZM99.5672 17.3533C96.279 17.3533 94.5593 14.669 94.5593 12.0173C94.5593 8.37336 97.1554 6.71386 99.5672 6.71386C101.979 6.71386 104.575 8.37336 104.575 12.0173C104.575 15.6837 101.979 17.3533 99.5672 17.3533Z" fill="black"/>
</svg>
