<svg width="112" height="37" viewBox="0 0 112 37" fill="none" xmlns="http://www.w3.org/2000/svg">
<path d="M47.9293 19.4036C47.9293 21.8548 46.9556 24.2055 45.2224 25.9387C43.4892 27.6719 41.1385 28.6456 38.6873 28.6456C36.2362 28.6456 33.8854 27.6719 32.1522 25.9387C30.419 24.2055 29.4453 21.8548 29.4453 19.4036C29.4453 16.9525 30.419 14.6018 32.1522 12.8685C33.8854 11.1353 36.2362 10.1616 38.6873 10.1616C41.1385 10.1616 43.4892 11.1353 45.2224 12.8685C46.9556 14.6018 47.9293 16.9525 47.9293 19.4036ZM43.8838 19.4036C43.8838 16.0888 41.4802 13.8208 38.6876 13.8208C35.8949 13.8208 33.4904 16.0888 33.4904 19.4036C33.4904 22.6852 35.8939 24.9864 38.6866 24.9864C41.4792 24.9864 43.8838 22.6806 43.8838 19.4036Z" fill="#EA4335"/>
<path d="M67.8668 19.4036C67.8668 21.8548 66.8931 24.2055 65.1599 25.9387C63.4267 27.6719 61.076 28.6456 58.6248 28.6456C56.1737 28.6456 53.8229 27.6719 52.0897 25.9387C50.3565 24.2055 49.3828 21.8548 49.3828 19.4036C49.3828 16.9525 50.3565 14.6018 52.0897 12.8685C53.8229 11.1353 56.1737 10.1616 58.6248 10.1616C61.076 10.1616 63.4267 11.1353 65.1599 12.8685C66.8931 14.6018 67.8668 16.9525 67.8668 19.4036ZM63.8213 19.4036C63.8213 16.0888 61.4177 13.8208 58.6251 13.8208C55.8324 13.8208 53.4279 16.0888 53.4279 19.4036C53.4279 22.6852 55.8314 24.9864 58.6241 24.9864C61.4167 24.9864 63.8213 22.6806 63.8213 19.4036Z" fill="#FBBC05"/>
<path d="M86.9747 10.7467V27.2869C86.9747 34.0884 82.9623 36.8693 78.2187 36.8693C76.4717 36.8803 74.7612 36.3695 73.3063 35.4023C71.8514 34.4351 70.7184 33.0556 70.0524 31.4404L73.5748 29.9743C73.9361 30.9183 74.5704 31.7334 75.3967 32.3156C76.2231 32.8977 77.2041 33.2206 78.2146 33.243C81.2507 33.243 83.1326 31.3698 83.1326 27.8433V26.5183H82.9915C82.3838 27.1992 81.6349 27.7393 80.7969 28.1009C79.959 28.4625 79.0523 28.6369 78.14 28.6119C73.5334 28.6119 69.3135 24.5996 69.3135 19.4367C69.3135 14.2364 73.5334 10.1903 78.14 10.1903C79.0487 10.1686 79.9516 10.3411 80.7883 10.6964C81.625 11.0518 82.3761 11.5817 82.9915 12.2507H83.1326V10.7513H86.9747V10.7467ZM83.419 19.4361C83.419 16.1919 81.2548 13.8201 78.501 13.8201C75.7099 13.8201 73.3713 16.1919 73.3713 19.4361C73.3713 22.6471 75.7099 24.9857 78.501 24.9857C81.2548 24.9857 83.419 22.6471 83.419 19.4367V19.4361Z" fill="#4285F4"/>
<path d="M93.3082 1.05273V28.0539H89.3623V1.05273H93.3082Z" fill="#34A853"/>
<path d="M108.685 22.4357L111.826 24.5293C110.984 25.7918 109.842 26.8257 108.502 27.5383C107.163 28.2509 105.667 28.6199 104.15 28.6122C102.938 28.6298 101.736 28.403 100.614 27.9453C99.4922 27.4876 98.4742 26.8086 97.6208 25.9486C96.7674 25.0887 96.0961 24.0655 95.647 22.9403C95.1979 21.8151 94.9803 20.6109 95.0071 19.3996C95.0071 13.9212 98.9488 10.1865 103.697 10.1865C108.477 10.1865 110.816 13.9912 111.58 16.0475L111.999 17.0943L99.6842 22.1938C100.064 23.0527 100.692 23.7778 101.488 24.2755C102.284 24.7731 103.211 25.0203 104.15 24.985C106.21 24.985 107.639 23.9714 108.686 22.4347L108.685 22.4357ZM99.0199 19.1209L107.253 15.7023C106.801 14.5517 105.438 13.7499 103.835 13.7499C103.164 13.7802 102.506 13.9439 101.899 14.2315C101.292 14.5191 100.748 14.9248 100.3 15.4249C99.8515 15.9249 99.5074 16.5094 99.2875 17.144C99.0677 17.7786 98.9765 18.4507 99.0194 19.1209H99.0199Z" fill="#EA4335"/>
<path d="M14.509 17.0068V13.0982H27.6803C27.8173 13.8771 27.8827 14.667 27.8756 15.4578C27.8756 18.3901 27.0738 22.0163 24.4902 24.5998C21.9773 27.2166 18.7663 28.6121 14.5131 28.6121C6.62909 28.6121 0 22.1907 0 14.3072C0 6.42365 6.62909 0.00167116 14.5131 0.00167116C16.3272 -0.0267365 18.1286 0.307281 19.8119 0.984144C21.4952 1.66101 23.0264 2.66709 24.3159 3.94343L21.5574 6.70082C19.6675 4.87821 17.1344 3.87532 14.509 3.91019C13.1501 3.91027 11.8048 4.18027 10.551 4.7045C9.29733 5.22873 8.16023 5.99675 7.20573 6.964C6.25124 7.93124 5.49837 9.07844 4.99082 10.339C4.48327 11.5996 4.23115 12.9484 4.2491 14.3072C4.23149 15.6657 4.48386 17.0143 4.99157 18.2745C5.49927 19.5348 6.25219 20.6817 7.20665 21.6487C8.16111 22.6156 9.2981 23.3834 10.5516 23.9075C11.8052 24.4316 13.1503 24.7015 14.509 24.7016C18.2421 24.7016 20.37 23.2022 21.7323 21.8378C22.8374 20.7327 23.5641 19.1546 23.8505 16.9986L14.509 17.0068Z" fill="#4285F4"/>
</svg>
