<svg width="27" height="17" viewBox="0 0 27 17" fill="none" xmlns="http://www.w3.org/2000/svg">
<path d="M26.0843 13.1842V12.8682H26.002L25.9068 13.085L25.8122 12.8682H25.7296V13.1842H25.7881V12.9461L25.8771 13.1515H25.9377L26.0267 12.9456V13.1842H26.0846H26.0843ZM25.5622 13.1842V12.9223H25.6676V12.869H25.3984V12.9223H25.5038V13.1842H25.5617H25.5622Z" fill="#F79410"/>
<path d="M16.7303 14.5393H9.6084V1.74023H16.7305L16.7303 14.5393Z" fill="#FF5F00"/>
<path d="M10.0602 8.13994C10.0602 5.54365 11.2758 3.23086 13.1688 1.7404C11.7359 0.61053 9.96366 -0.00268738 8.13888 8.85333e-06C3.64379 8.85333e-06 0 3.64433 0 8.13994C0 12.6356 3.64379 16.2799 8.13888 16.2799C9.9637 16.2826 11.736 15.6694 13.169 14.5395C11.2761 13.0493 10.0602 10.7364 10.0602 8.13994Z" fill="#EB001B"/>
<path d="M26.3386 8.13994C26.3386 12.6356 22.6948 16.2799 18.1997 16.2799C16.3747 16.2826 14.6022 15.6694 13.1689 14.5395C15.0625 13.049 16.2781 10.7364 16.2781 8.13994C16.2781 5.54352 15.0625 3.23086 13.1689 1.7404C14.6021 0.610564 16.3746 -0.00264012 18.1996 8.54452e-06C22.6947 8.54452e-06 26.3385 3.64433 26.3385 8.13994" fill="#F79E1B"/>
</svg>
