<svg width="107" height="28" viewBox="0 0 107 28" fill="none" xmlns="http://www.w3.org/2000/svg">
<path d="M25.1037 26.9007V17.5068C25.1037 15.5497 24.2852 14.5534 22.684 14.5534C21.065 14.5534 20.2466 15.5319 20.2466 17.5068V26.9007H15.4607V17.5068C15.4607 15.5497 14.6601 14.5534 13.0589 14.5534C11.4398 14.5534 10.6392 15.5319 10.6392 17.5068V26.9007H5.87109V16.9552C5.87109 14.9092 6.58274 13.3615 8.00606 12.3118C9.25145 11.3688 10.9595 10.9062 13.0944 10.9062C15.2472 10.9062 16.8484 11.4577 17.8803 12.5786C18.7699 11.4755 20.3711 10.9062 22.7018 10.9062C24.8368 10.9062 26.527 11.3688 27.7724 12.3118C29.1957 13.3615 29.9073 14.9092 29.9073 16.9552V26.9007H25.1037Z" fill="#F98012"/>
<path d="M83.6914 26.8473V0.0356445H88.4773V26.8651H83.6914V26.8473Z" fill="#F98012"/>
<path d="M77.5884 26.8472V25.2638C77.1614 25.8331 76.4319 26.2957 75.4178 26.6337C74.5105 26.954 73.6387 27.0963 72.8203 27.0963C70.543 27.0963 68.7105 26.3135 67.3227 24.7479C65.935 23.1822 65.2412 21.243 65.2412 18.9301C65.2412 16.6528 65.9172 14.7491 67.2694 13.2012C68.4614 11.8313 70.4185 10.8884 72.678 10.8884C75.2043 10.8884 76.6988 11.8491 77.5884 12.9344V0H82.2497V26.8295H77.5884V26.8472ZM77.5884 17.916C77.5884 17.062 77.1792 16.2436 76.3786 15.4607C75.578 14.6779 74.724 14.2865 73.8878 14.2865C72.6602 14.2865 71.6994 14.7847 70.9878 15.781C70.3651 16.6706 70.0448 17.7558 70.0448 19.019C70.0448 20.2822 70.3651 21.3497 70.9878 22.2215C71.6994 23.2534 72.678 23.7515 73.8878 23.7515C74.6172 23.7515 75.4356 23.4135 76.3074 22.7019C77.1792 22.008 77.6062 21.2963 77.6062 20.5491V17.916H77.5884Z" fill="#F98012"/>
<path d="M56.2389 27.2738C53.8193 27.2738 51.8089 26.5088 50.2432 24.961C48.6598 23.4309 47.877 21.4562 47.877 19.0187C47.877 16.5991 48.6598 14.6243 50.2432 13.0942C51.8266 11.5641 53.8193 10.7812 56.2389 10.7812C58.6585 10.7812 60.669 11.5463 62.2524 13.0942C63.8536 14.6243 64.6543 16.6168 64.6543 19.0187C64.6543 21.4383 63.8536 23.4131 62.2524 24.961C60.669 26.5088 58.6585 27.2738 56.2389 27.2738ZM56.2389 14.642C55.0825 14.642 54.1929 15.0689 53.5702 15.9585C52.9475 16.8303 52.645 17.8623 52.645 19.0721C52.645 20.2818 52.9297 21.2959 53.5168 22.1143C54.1751 23.0573 55.0825 23.52 56.2389 23.52C57.3954 23.52 58.3027 23.0573 58.961 22.1143C59.5659 21.2781 59.8684 20.2641 59.8684 19.0721C59.8684 17.8623 59.5837 16.8481 58.9966 16.0297C58.3383 15.0867 57.4132 14.642 56.2389 14.642Z" fill="#F98012"/>
<path d="M38.945 27.2738C36.5254 27.2738 34.5149 26.5088 32.9493 24.961C31.3659 23.4309 30.583 21.4562 30.583 19.0187C30.583 16.5991 31.3659 14.6243 32.9493 13.0942C34.5327 11.5641 36.5254 10.7812 38.945 10.7812C41.3646 10.7812 43.3751 11.5463 44.9585 13.0942C46.5419 14.642 47.3603 16.6168 47.3603 19.0187C47.3603 21.4383 46.5597 23.4131 44.9585 24.961C43.3751 26.5088 41.3646 27.2738 38.945 27.2738ZM38.945 14.642C37.7886 14.642 36.899 15.0689 36.2763 15.9585C35.6536 16.8303 35.3511 17.8623 35.3511 19.0721C35.3511 20.2818 35.6358 21.2959 36.2229 22.1143C36.8812 23.0573 37.7886 23.52 38.945 23.52C40.1014 23.52 41.0088 23.0573 41.6671 22.1143C42.272 21.2781 42.5745 20.2641 42.5745 19.0721C42.5745 17.8623 42.2898 16.8481 41.7027 16.0297C41.0444 15.0867 40.1192 14.642 38.945 14.642Z" fill="#F98012"/>
<path d="M94.1345 20.496C94.2413 21.6346 95.718 24.0898 98.1554 24.0898C100.521 24.0898 101.642 22.7199 101.695 22.1684L106.73 22.1328C106.179 23.823 103.955 27.3813 98.0664 27.3813C95.629 27.3813 93.3695 26.6162 91.7683 25.1039C90.167 23.5739 89.3486 21.599 89.3486 19.1438C89.3486 16.6174 90.1492 14.607 91.7683 13.0947C93.3873 11.6002 95.4689 10.853 98.0308 10.853C100.824 10.853 102.994 11.7782 104.56 13.6285C106.001 15.3364 106.73 17.6315 106.73 20.5138H94.1345V20.496ZM101.945 17.5426C101.749 16.5107 101.322 15.6745 100.664 15.0162C99.9164 14.3045 99.0624 13.9487 98.102 13.9487C97.1057 13.9487 96.2695 14.2867 95.6112 14.9806C94.9351 15.6745 94.4903 16.5107 94.2591 17.5426H101.945Z" fill="#F98012"/>
<path d="M15.1405 10.1765L19.8908 6.70715L19.8375 6.49365C11.2798 7.54335 7.38344 8.29055 0 12.5606L0.07117 12.7563H0.65829C0.60491 13.3434 0.51595 14.8023 0.64049 17.0084C-0.17791 19.3747 0.6227 20.9937 1.36994 22.7373C1.49448 20.9225 1.47669 18.9299 0.92516 16.9373C0.81841 14.7667 0.90737 13.3256 0.96074 12.7741L5.85338 12.8097C5.85338 12.8097 5.8178 14.2863 5.99571 15.6741C10.3724 17.2041 14.7669 15.6741 17.0976 11.8845C16.4215 11.1551 15.1405 10.1765 15.1405 10.1765Z" fill="#333333"/>
</svg>
