<svg width="104" height="19" viewBox="0 0 104 19" fill="none" xmlns="http://www.w3.org/2000/svg">
<path d="M98.1452 3.80322C101.368 3.80322 103.544 5.58992 103.677 8.34452H100.926C100.796 7.06222 99.7562 6.20022 98.1402 6.20022C96.6372 6.20022 95.7013 6.87322 95.7013 7.90272C95.7013 8.83212 96.3762 9.29832 97.3412 9.62292L97.5522 9.69042L97.7712 9.75432L97.9972 9.81532L98.3492 9.90282L98.7112 9.98762L99.3332 10.1297L99.7032 10.2169L100.038 10.3007L100.261 10.3599L100.483 10.4223C100.52 10.4331 100.557 10.4439 100.594 10.455L100.813 10.5233L101.03 10.5961C101.066 10.6087 101.101 10.6214 101.137 10.6344L101.349 10.7148C102.82 11.2974 104 12.2987 104 14.4629C104 17.1959 101.67 18.8573 98.3172 18.8573C94.8555 18.8573 92.5913 16.8383 92.4391 13.7478L92.4357 13.7458H95.202C95.3552 15.3896 96.4872 16.4366 98.3162 16.4366C99.9492 16.4366 101.082 15.8068 101.082 14.503C101.082 13.5069 100.266 13.0434 99.1482 12.698L98.9202 12.6304L98.6862 12.5652L98.1992 12.439L97.3092 12.2167L97.0512 12.1492L96.7922 12.0786L96.5342 12.0042C96.4492 11.9786 96.3632 11.9523 96.2782 11.9251L96.0242 11.8408C94.3427 11.2589 92.8903 10.273 92.8903 7.90062C92.8922 5.48312 95.048 3.80322 98.1452 3.80322ZM52.9389 8.08992V14.1035C52.9389 15.5542 53.8538 16.5632 55.2252 16.5632C56.7276 16.5632 57.7726 15.4278 57.7726 13.8723V8.08992H60.4506V18.6869H57.7726V17.043C57.163 18.1999 55.9221 18.8513 54.3549 18.8513C51.8727 18.8513 50.2609 17.1272 50.2609 14.646V8.08992H52.9389ZM38.1336 3.96982L44.7312 14.3562V3.96982H47.605V18.6869H44.513L37.8942 8.32212V18.6869H35.0205V3.96982H38.1336ZM90.7144 3.96982V14.4816C90.7144 17.3204 89.2993 18.6869 86.9045 18.6869H83.5603V16.1871H86.979C87.2074 16.1871 87.4273 16.0993 87.589 15.9431C87.7508 15.7868 87.8415 15.5749 87.8415 15.3539V3.96982H90.7144ZM78.0426 4.89432V8.08962H81.0911V10.2555H78.0426V15.516C78.0426 15.6926 78.115 15.8621 78.2446 15.9871C78.3738 16.1122 78.549 16.1825 78.7323 16.1828H81.0911V18.6826H79.3271C76.9318 18.6826 75.3646 17.3366 75.3646 14.9838V10.2576H73.2093V8.08962H74.5615C75.1922 8.08962 75.5594 7.72702 75.5594 7.12692V4.89432H78.0426ZM65.0006 7.92232L67.2 10.9718L69.3764 7.92232H72.3165L68.6362 12.9896L72.5992 18.5193H69.7691L67.2 14.987L64.6305 18.5193H61.7778L65.7413 12.9896L62.0831 7.92232H65.0006Z" fill="black"/>
<path d="M12.6605 1.0206C11.8567 -0.3402 9.8471 -0.3402 9.0433 1.0206L0.282907 15.8517C-0.520913 17.2126 0.483857 18.9136 2.0915 18.9136H8.9304C8.2434 18.3225 7.989 17.2999 8.5089 16.4225L15.1436 5.2245L12.6605 1.0206Z" fill="#80EEC0"/>
<path d="M18.2117 4.27401C18.8769 3.16061 20.54 3.16061 21.2052 4.27401L28.4552 16.4085C29.1204 17.5219 28.2889 18.9137 26.9584 18.9137H12.4585C11.128 18.9137 10.2965 17.5219 10.9617 16.4085L18.2117 4.27401Z" fill="#00DC82"/>
</svg>
