<svg width="94" height="33" viewBox="0 0 94 33" fill="none" xmlns="http://www.w3.org/2000/svg">
<path d="M40.0574 27.1141C40.0574 27.1141 44.1833 26.7659 44.1833 21.5195C44.1833 16.2731 39.1851 15.7856 39.1851 15.7856H30.1787V32.3373H34.7054V28.3444L38.6192 32.3373H45.315L40.0574 27.1141ZM38.3127 23.7248H34.7054V19.9409H38.3363C38.3363 19.9409 39.3501 20.3124 39.3501 21.8212C39.3501 23.3302 38.3127 23.7248 38.3127 23.7248ZM55.3587 15.9017H50.7613C47.4841 15.9017 46.376 18.8267 46.376 20.2195V32.3373H50.9735V29.4355H55.288V32.3373H59.7441V20.2195C59.7441 16.691 56.4905 15.9017 55.3587 15.9017ZM55.288 24.7462H50.9499V20.7302C50.9499 20.7302 50.9499 19.8248 52.3881 19.8248H53.9677C55.2409 19.8248 55.2644 20.7302 55.2644 20.7302V24.7462H55.288ZM61.8424 15.9017H66.6284V32.3373H61.8424V15.9017ZM73.3478 28.0891V15.9017H68.5854V28.0891V32.3373H73.3478H79.7844V28.0891H73.3478ZM81.364 28.1355V32.3373H89.0734C90.6529 32.3373 93.3646 31.1998 93.4591 28.0194V26.3945C93.4591 23.6784 91.1956 22.0766 89.0734 22.0766H85.2306V20.1266H92.8462V15.9017H85.5371C83.651 15.9017 81.1282 17.4338 81.1282 20.2892V21.7517C81.1282 24.607 83.6274 26.0694 85.5371 26.0694C90.8419 26.0926 84.2639 26.0694 89.1679 26.0694V28.1123L81.364 28.1355Z" fill="#CC0000"/>
<path d="M1.65037 32.314H20.2761C20.2761 32.314 16.716 16.3195 28.5044 9.84276C31.0743 8.61246 39.2554 4.01607 52.647 13.7659C53.0715 13.4177 53.4722 13.1392 53.4722 13.1392C53.4722 13.1392 41.2123 1.09106 27.5613 2.43748C20.7004 3.04101 12.26 9.19278 7.30881 17.3177C2.35769 25.4426 1.65037 32.314 1.65037 32.314ZM40.4579 3.73743L40.5521 2.18212C40.34 2.06606 39.7506 1.78749 38.2652 1.36963L38.1709 2.90178C38.9489 3.15711 39.7034 3.43566 40.4579 3.73743ZM38.218 8.6589L38.1237 10.1213C38.9018 10.1445 39.6798 10.2374 40.4579 10.4L40.5521 8.96067C39.7506 8.79813 38.9725 8.70525 38.218 8.6589ZM29.4946 1.41606H29.7304L29.2588 0C28.5279 0 27.7735 0.0464309 26.9955 0.139284L27.4434 1.50891C28.1272 1.43927 28.8109 1.41606 29.4946 1.41606ZM30.6263 9.95886L31.1685 11.5606C31.8523 11.2356 32.536 10.957 33.2197 10.7482L32.701 9.216C31.8994 9.44811 31.2157 9.70353 30.6263 9.95886ZM19.9224 3.85353L18.8615 2.25176C18.2721 2.55355 17.6591 2.87856 17.0225 3.24999L18.107 4.87494C18.72 4.50351 19.3094 4.1553 19.9224 3.85353ZM24.7557 14.2999L25.8873 15.9713C26.2882 15.391 26.7597 14.857 27.2784 14.3231L26.2174 12.7445C25.6752 13.2321 25.18 13.7659 24.7557 14.2999ZM21.337 21.7749L23.2467 23.2605C23.341 22.3552 23.5061 21.4498 23.7418 20.5445L22.0443 19.2213C21.7378 20.0802 21.5257 20.9391 21.337 21.7749ZM11.0104 10.7482L9.33642 9.30888C8.72343 9.8892 8.13402 10.4695 7.59177 11.0499L9.40716 12.5821C9.90225 11.9552 10.4445 11.3285 11.0104 10.7482ZM3.89018 21.1248L1.17884 20.1498C0.730881 21.148 0.235764 22.3087 0 22.9355L2.71133 23.9106C3.01783 23.1213 3.51294 21.9838 3.89018 21.1248ZM20.9834 27.6712C21.0306 28.9015 21.1484 29.8998 21.2663 30.5962L24.0955 31.5944C23.8833 30.689 23.6712 29.6676 23.5297 28.5765L20.9834 27.6712Z" fill="#CC0000"/>
</svg>
