<svg width="25" height="17" viewBox="0 0 25 17" fill="none" xmlns="http://www.w3.org/2000/svg">
<path d="M24.3937 16.7046H0V0H24.8153V16.7046H24.3937Z" fill="#1D5B99"/>
<path fill-rule="evenodd" clip-rule="evenodd" d="M24.3939 16.2832H0.421875V0.421875H24.3939V16.2832Z" fill="white"/>
<path fill-rule="evenodd" clip-rule="evenodd" d="M9.08543 10.9274L10.6423 5.79418H12.0314L10.4744 10.9274H9.08543ZM8.46444 5.79559L7.21484 7.97173C6.89686 8.54175 6.71076 8.82965 6.62139 9.18957H6.60232C6.62449 8.73321 6.56081 8.17251 6.55488 7.85567L6.41679 5.79559H4.07855L4.05469 5.93368C4.65534 5.93368 5.01159 6.23542 5.10958 6.85274L5.56537 10.9274H7.00446L9.91441 5.79559H8.46444ZM19.2669 10.9274L19.2287 10.1641L17.4943 10.1627L17.1394 10.9274H15.6314L18.366 5.80392H20.2169L20.6799 10.9274H19.2669ZM19.1078 7.89944C19.0921 7.52004 19.0794 7.00523 19.105 6.69347H19.0845C19.0001 6.94833 18.6369 7.71362 18.4772 8.08991L17.9604 9.21498H19.1783L19.1078 7.89944ZM13.4897 11.0733C12.5091 11.0733 11.8581 10.7622 11.3936 10.4848L12.0553 9.47436C12.4725 9.70762 12.7999 9.97689 13.5536 9.97689C13.7958 9.97689 14.0293 9.91405 14.1621 9.68432C14.3551 9.35067 14.1174 9.17079 13.575 8.86368L13.307 8.68944C12.5026 8.1399 12.1545 7.61775 12.5332 6.70646C12.7756 6.12359 13.4146 5.68164 14.4692 5.68164C15.1961 5.68164 15.8779 5.99623 16.275 6.30348L15.5143 7.19557C15.1266 6.88211 14.8054 6.72354 14.4377 6.72354C14.1446 6.72354 13.9217 6.83664 13.8448 6.98913C13.7001 7.27577 13.8917 7.47118 14.3144 7.73353L14.633 7.93629C15.6098 8.55234 15.8422 9.19818 15.5976 9.8018C15.1763 10.8414 14.352 11.0733 13.4897 11.0733ZM21.0935 6.48986H21.0333V6.12359H21.1723C21.2608 6.12359 21.3057 6.15451 21.3057 6.22892C21.3057 6.29529 21.2652 6.32282 21.2103 6.32889L21.3129 6.48986H21.2448L21.1502 6.33341H21.0935V6.48986ZM21.1607 6.28187C21.2059 6.28187 21.2457 6.2775 21.2457 6.22441C21.2457 6.18021 21.2023 6.17484 21.1663 6.17484H21.0935V6.28187H21.1607ZM21.159 6.63148C20.9687 6.63148 20.8333 6.48901 20.8333 6.30051C20.8333 6.10156 20.9835 5.96968 21.159 5.96968C21.3322 5.96968 21.4828 6.10156 21.4828 6.30051C21.4828 6.4996 21.3322 6.63148 21.159 6.63148ZM21.159 6.02715C21.0155 6.02715 20.9041 6.13955 20.9041 6.30051C20.9041 6.45089 21.0014 6.57387 21.159 6.57387C21.3005 6.57387 21.4119 6.46232 21.4119 6.30051C21.4119 6.13955 21.3005 6.02715 21.159 6.02715Z" fill="#1D5B99"/>
<path fill-rule="evenodd" clip-rule="evenodd" d="M23.8031 12.5225H1.05371V15.5663H23.8031V12.5225Z" fill="#E7A83A"/>
<path fill-rule="evenodd" clip-rule="evenodd" d="M23.761 1.18066H1.01172V4.22461H23.761V1.18066ZM23.2411 15.3499H23.1809V14.9836H23.3199C23.4084 14.9836 23.4533 15.0145 23.4533 15.089C23.4533 15.1552 23.4128 15.1827 23.3579 15.1888L23.4605 15.3499H23.3925L23.2979 15.1933H23.2411V15.3499ZM23.3084 15.1419C23.3536 15.1419 23.3934 15.1375 23.3934 15.0843C23.3934 15.0402 23.3501 15.0349 23.3141 15.0349H23.2412V15.1419H23.3084ZM23.3068 15.4914C23.1164 15.4914 22.981 15.349 22.981 15.1604C22.981 14.9616 23.1315 14.8297 23.3068 14.8297C23.4803 14.8297 23.6305 14.9616 23.6305 15.1604C23.6305 15.3595 23.4803 15.4914 23.3068 15.4914ZM23.3068 14.887C23.1633 14.887 23.0519 14.9996 23.0519 15.1604C23.0519 15.3109 23.1492 15.4338 23.3068 15.4338C23.4482 15.4338 23.5596 15.3224 23.5596 15.1604C23.5596 14.9996 23.4482 14.887 23.3068 14.887Z" fill="#1D5B99"/>
</svg>
