<svg width="135" height="31" viewBox="0 0 135 31" fill="none" xmlns="http://www.w3.org/2000/svg">
<path d="M78.2952 12.0566H72.981V12.6202C74.6434 12.6202 74.9107 12.9762 74.9107 15.0845V18.8847C74.9107 20.9923 74.644 21.3785 72.981 21.3785C71.7048 21.2005 70.8438 20.5175 69.6563 19.2111L68.2914 17.7268C70.1318 17.3997 71.1111 16.2424 71.1111 14.936C71.1111 13.3038 69.716 12.0566 67.1033 12.0566H61.8785V12.6202C63.5409 12.6202 63.8081 12.9762 63.8081 15.0845V18.8847C63.8081 20.9923 63.5409 21.3785 61.8785 21.3785V21.9427H67.7864V21.3785C66.124 21.3785 65.8567 20.9923 65.8567 18.8847V17.8172H66.3611L69.6569 21.9432H78.2963C82.5418 21.9432 84.3816 19.6871 84.3816 16.9851C84.3816 14.2832 82.5412 12.0572 78.2963 12.0572L78.2952 12.0566ZM65.8567 16.8959V12.9478H67.0737C67.3369 12.9307 67.6005 12.9709 67.8466 13.0658C68.0926 13.1606 68.315 13.3078 68.4986 13.4971C68.6821 13.6864 68.8223 13.9134 68.9095 14.1622C68.9966 14.4111 69.0287 14.6759 69.0034 14.9383C69.0253 15.1986 68.9906 15.4605 68.9017 15.7061C68.8129 15.9517 68.672 16.1752 68.4888 16.3613C68.3055 16.5474 68.0841 16.6917 67.8399 16.7842C67.5957 16.8768 67.3343 16.9154 67.0737 16.8976H65.8567V16.8959ZM78.385 21.0231H78.178C77.1094 21.0231 76.9609 20.7563 76.9609 19.3903V12.9478H78.3862C81.4737 12.9478 82.0373 15.2039 82.0373 16.9556C82.0356 18.7664 81.472 21.0225 78.3845 21.0225L78.385 21.0231ZM45.3424 17.9952L47.3898 11.9383C47.9835 10.1867 47.7168 9.6822 45.8167 9.6822V9.08789H51.3981V9.68448C49.5276 9.68448 49.0828 10.1298 48.3401 12.2972L44.9556 22.4505H44.57L41.5422 13.1537L38.4552 22.446H38.069L34.7738 12.2926C34.0612 10.1252 33.5863 9.67993 31.8643 9.67993V9.08789H38.4552V9.68448C36.7035 9.68448 36.2281 10.1002 36.8519 11.9406L38.8425 17.9975L41.8368 9.08789H42.4055L45.3424 17.9952ZM55.436 22.3294C52.1704 22.3294 49.4986 19.9249 49.4986 16.9834C49.4986 14.0744 52.1716 11.6693 55.436 11.6693C58.7005 11.6693 61.3735 14.0744 61.3735 16.9834C61.3735 19.9214 58.7016 22.3288 55.436 22.3288V22.3294ZM55.436 12.5923C52.7062 12.5923 51.7547 15.056 51.7547 16.9857C51.7547 18.9455 52.705 21.3796 55.436 21.3796C58.1972 21.3796 59.1475 18.9455 59.1475 16.9857C59.1469 15.0549 58.1972 12.5912 55.436 12.5912V12.5923Z" fill="#00749A"/>
<path d="M91.7135 21.3495V21.9432H84.915V21.3495C86.9056 21.3495 87.2604 20.845 87.2604 17.8758V13.1258C87.2604 10.1565 86.9044 9.68164 84.915 9.68164V9.08789H91.0601C94.1181 9.08789 95.8106 10.6615 95.8106 12.7698C95.8106 14.8172 94.1181 16.4215 91.0601 16.4215H89.3681V17.8746C89.3681 20.8439 89.7241 21.3484 91.7135 21.3484V21.3495ZM91.0601 10.1565H89.3681V15.3228H91.0606C92.7236 15.3228 93.4953 14.1649 93.4953 12.7698C93.4947 11.3446 92.7236 10.1565 91.0601 10.1565ZM116.205 19.1525L116.057 19.6866C115.79 20.6665 115.463 21.0225 113.355 21.0225H112.939C111.396 21.0225 111.128 20.6665 111.128 18.5582V17.1922C113.444 17.1922 113.622 17.3997 113.622 18.9438H114.187V14.5192H113.622C113.622 16.0627 113.444 16.2708 111.128 16.2708V12.9478H112.761C114.869 12.9478 115.195 13.3038 115.463 14.2837L115.612 14.8473H116.087L115.879 12.0566H107.151V12.6202C108.813 12.6202 109.081 12.9762 109.081 15.0845V18.8847C109.081 20.8126 108.853 21.2989 107.545 21.3677C106.299 21.1772 105.444 20.4981 104.274 19.2111L102.909 17.7268C104.75 17.3997 105.729 16.2424 105.729 14.936C105.729 13.3038 104.334 12.0566 101.721 12.0566H96.4965V12.6202C98.1588 12.6202 98.4261 12.9762 98.4261 15.0845V18.8847C98.4261 20.9923 98.1594 21.3785 96.4965 21.3785V21.9427H102.404V21.3785C100.742 21.3785 100.475 20.9923 100.475 18.8847V17.8177H100.98L104.275 21.9438H116.473L116.651 19.1537H116.205V19.1525ZM100.471 16.8959V12.9478H101.688C101.951 12.9306 102.215 12.9708 102.461 13.0656C102.707 13.1604 102.93 13.3076 103.114 13.4969C103.297 13.6862 103.437 13.9132 103.525 14.1621C103.612 14.411 103.644 14.6758 103.619 14.9383C103.64 15.1986 103.606 15.4606 103.517 15.7063C103.428 15.9519 103.287 16.1755 103.104 16.3616C102.92 16.5477 102.699 16.6919 102.455 16.7844C102.21 16.8769 101.949 16.9155 101.688 16.8976H100.471V16.8959ZM122.232 22.3288C121.254 22.2999 120.313 21.9446 119.559 21.3194C119.314 21.6078 119.15 21.9562 119.084 22.3288H118.52V18.2341H119.112C119.158 19.0873 119.534 19.8894 120.16 20.471C120.786 21.0526 121.613 21.3682 122.468 21.3512C123.417 21.3512 124.19 20.8172 124.19 19.9266C124.19 19.1548 123.507 18.5616 122.29 17.9969L120.599 17.1922C119.412 16.6274 118.521 15.6481 118.521 14.3417C118.521 12.9165 119.857 11.6995 121.698 11.6995C122.535 11.6887 123.351 11.9606 124.014 12.4712C124.213 12.2435 124.346 11.9665 124.4 11.6693H124.964V15.1726H124.339C124.131 13.777 123.359 12.6196 121.786 12.6196C120.954 12.6196 120.182 13.0945 120.182 13.8373C120.182 14.609 120.808 15.0248 122.229 15.6777L123.862 16.479C125.287 17.1614 125.853 18.2608 125.853 19.152C125.853 21.0219 124.22 22.3277 122.231 22.3277L122.232 22.3288ZM131.376 22.3288C130.397 22.3 129.457 21.9447 128.703 21.3194C128.458 21.6078 128.294 21.9562 128.228 22.3288H127.664V18.2341H128.258C128.304 19.0874 128.679 19.8896 129.305 20.4712C129.931 21.0528 130.759 21.3684 131.613 21.3512C132.563 21.3512 133.335 20.8172 133.335 19.9266C133.335 19.1548 132.653 18.5616 131.435 17.9969L129.743 17.1922C128.555 16.6274 127.665 15.6481 127.665 14.3417C127.665 12.9165 129.001 11.6995 130.841 11.6995C131.679 11.6884 132.496 11.9605 133.16 12.4718C133.358 12.2442 133.491 11.9671 133.545 11.6699H134.109V15.1732H133.484C133.276 13.7776 132.504 12.6202 130.931 12.6202C130.099 12.6202 129.328 13.0951 129.328 13.8378C129.328 14.6096 129.953 15.0253 131.375 15.6782L133.007 16.4796C134.432 17.162 134.998 18.2614 134.998 19.1525C134.998 21.0225 133.365 22.3283 131.376 22.3283V22.3288Z" fill="#464342"/>
<path d="M2.17579 15.3153C2.17551 17.7826 2.86987 20.2001 4.17939 22.2912C5.48891 24.3823 7.36069 26.0625 9.58053 27.1395L3.31323 9.96814C2.56193 11.6506 2.17433 13.4727 2.17579 15.3153ZM24.1853 14.6521C24.1672 13.367 23.7914 12.1123 23.1001 11.0288C22.4342 9.94824 21.8097 9.03032 21.8097 7.94805C21.7944 7.34667 22.0179 6.76371 22.4314 6.32673C22.8448 5.88974 23.4145 5.6343 24.0158 5.61629C24.0727 5.61629 24.1295 5.62369 24.1864 5.62653C22.7835 4.34226 21.1186 3.37791 19.3065 2.80011C17.4945 2.22231 15.5786 2.04485 13.6913 2.27998C11.8039 2.51512 9.99015 3.15724 8.37527 4.16198C6.76039 5.16672 5.38292 6.51011 4.33806 8.09933C4.64631 8.10843 4.93692 8.11525 5.18375 8.11525C6.55778 8.11525 8.68536 7.94862 8.68536 7.94862C8.82313 7.94709 8.95634 7.99799 9.05799 8.09099C9.15965 8.184 9.22215 8.31216 9.23285 8.44953C9.24355 8.5869 9.20165 8.7232 9.11562 8.83082C9.02959 8.93845 8.90588 9.00936 8.76953 9.02918C8.76953 9.02918 8.05806 9.11279 7.26583 9.1543L12.0488 23.386L14.9242 14.7625L12.8768 9.15373C12.1693 9.11222 11.4988 9.02861 11.4988 9.02861C11.3608 9.01101 11.2347 8.94101 11.1468 8.8331C11.0589 8.72519 11.0158 8.58762 11.0265 8.44885C11.0372 8.31007 11.1007 8.1807 11.2041 8.08748C11.3075 7.99427 11.4427 7.94435 11.5819 7.94805C11.5819 7.94805 13.7515 8.11468 15.0425 8.11468C16.4165 8.11468 18.5441 7.94805 18.5441 7.94805C18.6819 7.94652 18.8151 7.99742 18.9168 8.09043C19.0184 8.18343 19.0809 8.3116 19.0916 8.44896C19.1023 8.58633 19.0604 8.72263 18.9744 8.83025C18.8884 8.93788 18.7646 9.00879 18.6283 9.02861C18.6283 9.02861 17.9151 9.11222 17.1246 9.15373L21.8728 23.2773L23.1809 18.8982C23.7496 17.0783 24.1813 15.7759 24.1813 14.651L24.1853 14.6521Z" fill="#464342"/>
<path d="M15.5443 16.4637L11.6025 27.9188C14.2497 28.6985 17.0751 28.6253 19.6784 27.7095C19.642 27.6521 19.6108 27.5916 19.5851 27.5287L15.5443 16.4637ZM26.8425 9.01342C26.9024 9.46135 26.932 9.9128 26.9313 10.3647C26.9087 11.9834 26.5692 13.5821 25.932 15.0703L21.9186 26.6722C24.8786 24.9504 27.0496 22.1411 27.9692 18.8425C28.8889 15.544 28.4847 12.0167 26.8425 9.01172V9.01342Z" fill="#464342"/>
<path d="M15.3139 0C12.285 0.000224961 9.32405 0.898629 6.80565 2.58161C4.28725 4.26459 2.32446 6.65655 1.16547 9.45504C0.00648367 12.2535 -0.296643 15.3328 0.29442 18.3036C0.885484 21.2744 2.34419 24.0031 4.48609 26.1449C6.62799 28.2866 9.35687 29.7451 12.3277 30.336C15.2985 30.9268 18.3778 30.6234 21.1762 29.4642C23.9746 28.305 26.3664 26.3421 28.0492 23.8236C29.732 21.305 30.6301 18.3441 30.6302 15.3151C30.6255 11.2545 29.0103 7.36159 26.1389 4.49043C23.2675 1.61928 19.3745 0.00436515 15.3139 0V0ZM15.3139 29.9289C12.4238 29.929 9.59854 29.0721 7.19538 27.4666C4.79223 25.8611 2.91912 23.579 1.81291 20.9089C0.706692 18.2389 0.417053 15.3008 0.980615 12.4661C1.54418 9.63147 2.93563 7.02758 4.97902 4.9837C7.02242 2.93983 9.62599 1.54777 12.4605 0.983548C15.295 0.419325 18.2332 0.708277 20.9035 1.81387C23.5738 2.91946 25.8563 4.79204 27.4624 7.19481C29.0685 9.59759 29.9261 12.4227 29.9266 15.3128C29.9229 19.1875 28.3822 22.9025 25.6427 25.6426C22.9032 28.3827 19.1886 29.9242 15.3139 29.9289Z" fill="#464342"/>
</svg>
