<svg xmlns="http://www.w3.org/2000/svg" width="42.642" height="35.313" viewBox="0 0 42.642 35.313">
  <g id="Group_4" data-name="Group 4" transform="translate(-4 -7)">
    <path id="Path_115806" data-name="Path 115806" d="M15.993,27.926h-5.33a1.308,1.308,0,1,1,0-2.616h4V17.463h-4a1.308,1.308,0,1,1,0-2.616h5.33a1.32,1.32,0,0,1,1.333,1.308V26.618A1.32,1.32,0,0,1,15.993,27.926Z" fill="#fff"/>
    <path id="Path_115807" data-name="Path 115807" d="M25.321,27.926H22.656A2.641,2.641,0,0,1,19.99,25.31V17.463a2.641,2.641,0,0,1,2.665-2.616h4a1.308,1.308,0,1,1,0,2.616h-4v2.616h2.665a2.641,2.641,0,0,1,2.665,2.616V25.31A2.641,2.641,0,0,1,25.321,27.926Zm-2.665-5.231V25.31h2.665V22.694Z" fill="#fff"/>
    <path id="Path_115808" data-name="Path 115808" d="M35.981,27.926H33.316a2.641,2.641,0,0,1-2.665-2.616V17.463a2.641,2.641,0,0,1,2.665-2.616h2.665a2.641,2.641,0,0,1,2.665,2.616V25.31A2.641,2.641,0,0,1,35.981,27.926ZM33.316,17.463V25.31h2.665V17.463Z" fill="#fff"/>
    <path id="Path_115809" data-name="Path 115809" d="M15.993,22.694h-5.33a1.308,1.308,0,1,1,0-2.616h5.33a1.308,1.308,0,1,1,0,2.616Z" fill="#fff"/>
    <path id="Path_115810" data-name="Path 115810" d="M25.321,38.389C13.365,38.389,4,33.793,4,27.926a7.091,7.091,0,0,1,3.177-5.559,1.351,1.351,0,0,1,1.872.226,1.293,1.293,0,0,1-.231,1.838,4.745,4.745,0,0,0-2.153,3.495c0,3.712,7.662,7.847,18.656,7.847a1.308,1.308,0,1,1,0,2.616Z" fill="#fff"/>
    <path id="Path_115811" data-name="Path 115811" d="M29.318,38.206a1.31,1.31,0,1,1-.128-2.616c8.43-.793,14.786-4.091,14.786-7.664a4.746,4.746,0,0,0-2.153-3.495,1.292,1.292,0,0,1-.229-1.836,1.35,1.35,0,0,1,1.871-.225,7.081,7.081,0,0,1,3.177,5.556c0,5.088-7.07,9.315-17.2,10.275Z" fill="#fff"/>
    <path id="Path_115812" data-name="Path 115812" d="M21.323,42.313a1.32,1.32,0,0,1-1.335-1.306,1.3,1.3,0,0,1,.392-.928l3.057-3-3.057-3a1.293,1.293,0,0,1,0-1.852,1.352,1.352,0,0,1,1.887,0l4,3.924a1.291,1.291,0,0,1,0,1.85l0,0-4,3.924A1.346,1.346,0,0,1,21.323,42.313Z" fill="#fff"/>
    <path id="Path_115813" data-name="Path 115813" d="M42.644,14.847a3.924,3.924,0,1,1,4-3.924A3.961,3.961,0,0,1,42.644,14.847Zm0-5.231a1.308,1.308,0,1,0,1.333,1.308A1.32,1.32,0,0,0,42.644,9.616Z" fill="#fff"/>
  </g>
</svg>
