<svg width="49" height="57" viewBox="0 0 49 57" fill="none" xmlns="http://www.w3.org/2000/svg">
<path d="M18.0817 51.7359C19.3923 53.3809 21.3169 54.4456 23.4296 54.6942C25.5423 54.9428 27.6688 54.3549 29.3386 53.0605C29.8521 52.6777 30.3142 52.2326 30.7138 51.7359M2.18967 33.1912V32.6164C2.274 30.9156 2.81907 29.2678 3.76868 27.8427C5.34932 26.1308 6.43135 24.0331 6.90125 21.7694C6.90125 20.0199 6.90125 18.2454 7.05406 16.4959C7.84356 8.07334 16.1716 2.25 24.3978 2.25H24.6015C32.8277 2.25 41.1557 8.07334 41.9707 16.4959C42.1235 18.2454 41.9707 20.0199 42.098 21.7694C42.5743 24.0383 43.6552 26.1426 45.2306 27.8677C46.1873 29.2802 46.7333 30.922 46.8096 32.6164V33.1662C46.8665 35.4511 46.0795 37.6792 44.5939 39.4394C42.6308 41.4976 39.9668 42.7781 37.1063 43.0384C28.7184 43.9382 20.2555 43.9382 11.8675 43.0384C9.01025 42.7669 6.35011 41.4882 4.37992 39.4394C2.91725 37.6778 2.14088 35.463 2.18967 33.1912Z" stroke="black" stroke-width="4" stroke-linecap="round" stroke-linejoin="round"/>
</svg>
