<svg width="22" height="18" viewBox="0 0 22 18" fill="none" xmlns="http://www.w3.org/2000/svg">
<path d="M1.25037 10.0835L18.1352 10.0835L12.4011 15.8176C12.2987 15.9178 12.2171 16.0373 12.1612 16.1692C12.1053 16.3011 12.0761 16.4428 12.0753 16.5861C12.0745 16.7294 12.1021 16.8714 12.1566 17.0039C12.2111 17.1365 12.2913 17.2569 12.3926 17.3582C12.494 17.4595 12.6144 17.5397 12.7469 17.5941C12.8794 17.6486 13.0215 17.6762 13.1648 17.6754C13.308 17.6746 13.4497 17.6453 13.5816 17.5894C13.7136 17.5334 13.8331 17.4519 13.9332 17.3494L21.5166 9.76608C21.7196 9.56292 21.8337 9.28742 21.8337 9.00016C21.8337 8.7129 21.7196 8.4374 21.5166 8.23425L13.9332 0.650914C13.8327 0.550121 13.7133 0.470189 13.5818 0.415715C13.4503 0.361241 13.3094 0.333299 13.167 0.333497C12.9528 0.333542 12.7434 0.397103 12.5653 0.516145C12.3872 0.635186 12.2484 0.804363 12.1664 1.00229C12.0844 1.20021 12.063 1.418 12.1047 1.62811C12.1465 1.83823 12.2497 2.03124 12.4011 2.18275L18.1352 7.91683L1.25037 7.91683C0.963049 7.91683 0.687498 8.03097 0.484333 8.23413C0.28117 8.43729 0.167034 8.71284 0.167034 9.00016C0.167034 9.28748 0.281169 9.56303 0.484333 9.76619C0.687498 9.96936 0.963049 10.0835 1.25037 10.0835Z" fill="white"/>
</svg>
