<svg width="22" height="18" viewBox="0 0 22 18" fill="none" xmlns="http://www.w3.org/2000/svg">
<path d="M20.7496 7.9165L3.8648 7.91651L9.59888 2.18242C9.70132 2.08224 9.78286 1.96272 9.83879 1.83081C9.89473 1.69889 9.92393 1.55718 9.92472 1.4139C9.92551 1.27062 9.89787 1.1286 9.84339 0.996074C9.78892 0.863548 9.70869 0.743145 9.60737 0.641836C9.50604 0.540525 9.38562 0.460323 9.25309 0.405872C9.12055 0.351423 8.97853 0.323803 8.83525 0.324617C8.69196 0.325431 8.55026 0.354663 8.41836 0.410617C8.28645 0.466571 8.16695 0.548135 8.06678 0.650591L0.483445 8.23392C0.280351 8.43708 0.166259 8.71258 0.166259 8.99984C0.166259 9.2871 0.280351 9.5626 0.483445 9.76576L8.06678 17.3491C8.16727 17.4499 8.28669 17.5298 8.41819 17.5843C8.54968 17.6388 8.69064 17.6667 8.83297 17.6665C9.0472 17.6665 9.2566 17.6029 9.43471 17.4839C9.61282 17.3648 9.75164 17.1956 9.83362 16.9977C9.91559 16.7998 9.93705 16.582 9.89527 16.3719C9.85348 16.1618 9.75034 15.9688 9.59888 15.8173L3.8648 10.0832L20.7496 10.0832C21.037 10.0832 21.3125 9.96903 21.5157 9.76587C21.7188 9.56271 21.833 9.28716 21.833 8.99984C21.833 8.71252 21.7188 8.43697 21.5157 8.23381C21.3125 8.03064 21.037 7.9165 20.7496 7.9165Z" fill="black"/>
</svg>
