<svg width="19" height="12" viewBox="0 0 19 12" fill="none" xmlns="http://www.w3.org/2000/svg">
<path d="M13.0262 10.9581C12.8627 10.7945 12.868 10.536 13.0262 10.3618L16.5297 6.4363H1.51341C1.28125 6.4363 1.09131 6.24635 1.09131 6.0142C1.09131 5.78204 1.28125 5.59209 1.51341 5.59209H16.5297L13.0315 1.66655C12.8785 1.48715 12.8627 1.23917 13.0262 1.0756C13.1898 0.912038 13.4747 0.901486 13.6277 1.07033C13.6277 1.07033 17.8065 5.66069 17.8488 5.71345C17.891 5.76621 17.9754 5.86118 17.9754 6.0142C17.9754 6.16721 17.891 6.27273 17.8488 6.31494C17.8065 6.35715 13.6277 10.9581 13.6277 10.9581C13.5486 11.0372 13.4378 11.0794 13.327 11.0794C13.2162 11.0794 13.1107 11.0372 13.0262 10.9581Z" fill="#666666" stroke="#666666" stroke-width="0.5"/>
</svg>
