<svg width="21" height="26" viewBox="0 0 21 26" fill="none" xmlns="http://www.w3.org/2000/svg">
<path d="M10.5089 13.0657C13.5875 13.0657 16.0832 10.5699 16.0832 7.49133C16.0832 4.41271 13.5875 1.91699 10.5089 1.91699C7.43028 1.91699 4.93457 4.41271 4.93457 7.49133C4.93457 10.5699 7.43028 13.0657 10.5089 13.0657Z" stroke="url(#paint0_linear_2397_2056)" stroke-width="2" stroke-linecap="round" stroke-linejoin="round"/>
<path fill-rule="evenodd" clip-rule="evenodd" d="M1.66701 20.8185C1.66553 20.4266 1.75317 20.0395 1.92332 19.6865C2.45727 18.6186 3.96299 18.0527 5.21241 17.7964C6.1135 17.6041 7.02703 17.4756 7.94621 17.4119C9.64799 17.2624 11.3596 17.2624 13.0614 17.4119C13.9805 17.4763 14.894 17.6048 15.7952 17.7964C17.0446 18.0527 18.5503 18.5652 19.0843 19.6865C19.4264 20.4061 19.4264 21.2415 19.0843 21.9611C18.5503 23.0824 17.0446 23.595 15.7952 23.8406C14.8951 24.0409 13.9813 24.1729 13.0614 24.2357C11.6763 24.3531 10.2847 24.3745 8.89663 24.2998C8.57626 24.2998 8.26657 24.2998 7.94621 24.2357C7.02975 24.1737 6.11938 24.0416 5.22309 23.8406C3.96299 23.595 2.46794 23.0824 1.92332 21.9611C1.75404 21.604 1.66649 21.2137 1.66701 20.8185Z" stroke="url(#paint1_linear_2397_2056)" stroke-width="2" stroke-linecap="round" stroke-linejoin="round"/>
<defs>
<linearGradient id="paint0_linear_2397_2056" x1="10.5089" y1="1.91699" x2="10.5089" y2="13.0657" gradientUnits="userSpaceOnUse">
<stop stop-color="#9180FF"/>
<stop offset="1" stop-color="#FF7878"/>
</linearGradient>
<linearGradient id="paint1_linear_2397_2056" x1="10.5039" y1="17.2998" x2="10.5039" y2="24.3434" gradientUnits="userSpaceOnUse">
<stop stop-color="#9180FF"/>
<stop offset="1" stop-color="#FF7878"/>
</linearGradient>
</defs>
</svg>
