<svg width="30" height="22" viewBox="0 0 30 22" fill="none" xmlns="http://www.w3.org/2000/svg">
<path d="M27.9885 12.3765C27.9885 12.0343 27.7108 11.8632 27.1556 11.8632H10.0576C9.63855 11.8632 9.19068 11.9683 8.71399 12.1785C8.2373 12.3887 7.86275 12.6454 7.59036 12.9486L2.97014 18.2728C2.78156 18.5075 2.68727 18.703 2.68727 18.8595C2.68727 19.2017 2.9649 19.3729 3.52017 19.3729H20.6181C21.0372 19.3729 21.4877 19.2653 21.9696 19.0502C22.4515 18.8351 22.8235 18.5759 23.0854 18.2728L27.7056 12.9486C27.8942 12.7334 27.9885 12.5428 27.9885 12.3765V12.3765ZM10.0576 9.98574H22.1268V7.63897C22.1268 7.24784 21.9801 6.91538 21.6867 6.64159C21.3934 6.3678 21.0372 6.2309 20.6181 6.2309H11.5663C11.1472 6.2309 10.791 6.09401 10.4976 5.82021C10.2043 5.54642 10.0576 5.21396 10.0576 4.82283V3.88412C10.0576 3.49299 9.91095 3.16053 9.6176 2.88674C9.32425 2.61295 8.96805 2.47606 8.54898 2.47606H3.52017C3.1011 2.47606 2.74489 2.61295 2.45155 2.88674C2.1582 3.16053 2.01152 3.49299 2.01152 3.88412V16.3954L6.03457 11.7752C6.49555 11.2569 7.1032 10.8291 7.85752 10.4918C8.61184 10.1544 9.34521 9.98575 10.0576 9.98575V9.98574ZM30 12.3765C30 12.9828 29.759 13.5695 29.2771 14.1366L24.6412 19.4609C24.1907 19.9791 23.583 20.4069 22.8182 20.7443C22.0534 21.0816 21.3201 21.2503 20.6181 21.2503H3.52017C2.55631 21.2503 1.72865 20.9276 1.03719 20.2822C0.345731 19.6369 0 18.8644 0 17.9648V3.88412C0 2.98452 0.345731 2.21204 1.03719 1.56668C1.72865 0.921315 2.55631 0.598633 3.52017 0.598633H8.54898C9.51283 0.598633 10.3405 0.921315 11.032 1.56668C11.7234 2.21204 12.0691 2.98452 12.0691 3.88412V4.35348H20.6181C21.582 4.35348 22.4096 4.67616 23.1011 5.32152C23.7926 5.96689 24.1383 6.73937 24.1383 7.63897V9.98575H27.1556C27.7213 9.98575 28.2399 10.1055 28.7114 10.3451C29.1828 10.5847 29.5338 10.9293 29.7643 11.3791C29.9214 11.692 30 12.0245 30 12.3765Z" fill="url(#paint0_linear_2397_2080)"/>
<defs>
<linearGradient id="paint0_linear_2397_2080" x1="15" y1="0.598633" x2="15" y2="21.2503" gradientUnits="userSpaceOnUse">
<stop stop-color="#9180FF"/>
<stop offset="1" stop-color="#FF7878"/>
</linearGradient>
</defs>
</svg>
