<svg width="63" height="62" viewBox="0 0 63 62" fill="none" xmlns="http://www.w3.org/2000/svg">
<path d="M59.7287 12.6877V2.95438C59.7287 1.6095 58.6287 0.522949 57.2672 0.522949H5.26911C3.90762 0.522949 2.80766 1.6095 2.80766 2.95438V12.6877C1.52309 12.7637 0.500048 13.8199 0.500048 15.1116V25.1184C0.495122 26.9575 0.872107 28.7781 1.6077 30.4676C1.93846 31.2426 2.34614 31.972 2.80766 32.6635V58.8774C2.80766 60.2147 3.90762 61.3088 5.26911 61.3088H57.2672C58.6287 61.3088 59.7287 60.2223 59.7287 58.8774V32.6635C60.1975 31.9703 60.5992 31.2351 60.9286 30.4676C61.6594 28.7732 62.0363 26.9724 62.0363 25.1184V15.1116C62.0363 13.8199 61.0133 12.7637 59.7287 12.6877ZM8.34592 5.99368H54.1904V12.6801H8.34592V5.99368ZM36.1911 55.8457H26.3453V47.9359H36.1911V55.8457ZM54.2212 55.8457H41.114V45.5045C41.114 44.1596 40.014 43.073 38.6525 43.073H23.8838C22.5223 43.073 21.4224 44.1596 21.4224 45.5045V55.8457H8.34592V37.4428C8.56899 37.5491 8.79975 37.6555 9.0382 37.7467C10.7535 38.4609 12.5765 38.818 14.4534 38.818C16.3302 38.818 18.1456 38.4609 19.8686 37.7467C20.9301 37.306 21.93 36.7437 22.8454 36.0675C22.8608 36.0599 22.8762 36.0599 22.8916 36.0675C23.8097 36.7466 24.8096 37.3106 25.8684 37.7467C27.5837 38.4609 29.4067 38.818 31.2836 38.818C33.1604 38.818 34.9757 38.4609 36.6987 37.7467C37.7602 37.306 38.7602 36.7437 39.6756 36.0675C39.6909 36.0599 39.7063 36.0599 39.7217 36.0675C40.6399 36.7466 41.6398 37.3106 42.6985 37.7467C44.4139 38.4609 46.2369 38.818 48.1137 38.818C49.9906 38.818 51.8059 38.4609 53.5289 37.7467C53.7597 37.6479 53.9904 37.5491 54.2212 37.4428V55.8457ZM56.498 25.1184C56.498 29.6622 52.7289 33.3473 48.0906 33.3473C44.9523 33.3473 42.2139 31.6681 40.7678 29.1759C40.5448 28.796 40.1448 28.5604 39.6986 28.5604H39.6525C39.214 28.5604 38.8064 28.796 38.5833 29.1759C37.8453 30.4472 36.7798 31.5028 35.4949 32.2355C34.2101 32.9682 32.7517 33.3518 31.2682 33.3473C28.1375 33.3473 25.4068 31.6757 23.9607 29.1911C23.73 28.8036 23.3146 28.5604 22.8608 28.5604C22.407 28.5604 21.9839 28.8036 21.7608 29.1911C21.0185 30.4575 19.9516 31.5085 18.6674 32.2381C17.3833 32.9677 15.9272 33.3503 14.4457 33.3473C9.80741 33.3473 6.03831 29.6622 6.03831 25.1184V18.1888C6.03831 18.166 6.05369 18.1508 6.07677 18.1508H56.4596C56.4827 18.1508 56.498 18.166 56.498 18.1888V25.1184Z" fill="#3399FF"/>
</svg>
