<svg width="30" height="30" viewBox="0 0 30 30" fill="none" xmlns="http://www.w3.org/2000/svg">
<path d="M14.9997 17.833C15.2799 17.833 15.5538 17.7499 15.7867 17.5943C16.0197 17.4386 16.2013 17.2173 16.3085 16.9585C16.4157 16.6996 16.4438 16.4148 16.3891 16.14C16.3345 15.8652 16.1995 15.6127 16.0014 15.4146C15.8033 15.2165 15.5509 15.0816 15.2761 15.0269C15.0012 14.9722 14.7164 15.0003 14.4575 15.1075C14.1987 15.2147 13.9774 15.3963 13.8218 15.6293C13.6661 15.8623 13.583 16.1362 13.583 16.4163C13.583 16.7921 13.7323 17.1524 13.9979 17.4181C14.2636 17.6838 14.624 17.833 14.9997 17.833ZM22.083 17.833C22.3632 17.833 22.6371 17.7499 22.8701 17.5943C23.103 17.4386 23.2846 17.2173 23.3918 16.9585C23.4991 16.6996 23.5271 16.4148 23.4725 16.14C23.4178 15.8652 23.2829 15.6127 23.0847 15.4146C22.8866 15.2165 22.6342 15.0816 22.3594 15.0269C22.0846 14.9722 21.7997 15.0003 21.5409 15.1075C21.282 15.2147 21.0608 15.3963 20.9051 15.6293C20.7494 15.8623 20.6663 16.1362 20.6663 16.4163C20.6663 16.7921 20.8156 17.1524 21.0813 17.4181C21.3469 17.6838 21.7073 17.833 22.083 17.833ZM14.9997 23.4997C15.2799 23.4997 15.5538 23.4166 15.7867 23.2609C16.0197 23.1053 16.2013 22.884 16.3085 22.6251C16.4157 22.3663 16.4438 22.0814 16.3891 21.8066C16.3345 21.5318 16.1995 21.2794 16.0014 21.0813C15.8033 20.8831 15.5509 20.7482 15.2761 20.6936C15.0012 20.6389 14.7164 20.667 14.4575 20.7742C14.1987 20.8814 13.9774 21.063 13.8218 21.2959C13.6661 21.5289 13.583 21.8028 13.583 22.083C13.583 22.4587 13.7323 22.8191 13.9979 23.0847C14.2636 23.3504 14.624 23.4997 14.9997 23.4997ZM22.083 23.4997C22.3632 23.4997 22.6371 23.4166 22.8701 23.2609C23.103 23.1053 23.2846 22.884 23.3918 22.6251C23.4991 22.3663 23.5271 22.0814 23.4725 21.8066C23.4178 21.5318 23.2829 21.2794 23.0847 21.0813C22.8866 20.8831 22.6342 20.7482 22.3594 20.6936C22.0846 20.6389 21.7997 20.667 21.5409 20.7742C21.282 20.8814 21.0608 21.063 20.9051 21.2959C20.7494 21.5289 20.6663 21.8028 20.6663 22.083C20.6663 22.4587 20.8156 22.8191 21.0813 23.0847C21.3469 23.3504 21.7073 23.4997 22.083 23.4997ZM7.91634 17.833C8.19653 17.833 8.47043 17.7499 8.7034 17.5943C8.93637 17.4386 9.11795 17.2173 9.22517 16.9585C9.33239 16.6996 9.36045 16.4148 9.30579 16.14C9.25112 15.8652 9.1162 15.6127 8.91808 15.4146C8.71995 15.2165 8.46753 15.0816 8.19272 15.0269C7.91791 14.9722 7.63307 15.0003 7.37421 15.1075C7.11534 15.2147 6.89409 15.3963 6.73843 15.6293C6.58276 15.8623 6.49967 16.1362 6.49967 16.4163C6.49967 16.7921 6.64893 17.1524 6.91461 17.4181C7.18028 17.6838 7.54062 17.833 7.91634 17.833ZM24.9163 3.66634H23.4997V2.24967C23.4997 1.87395 23.3504 1.51362 23.0847 1.24794C22.8191 0.982263 22.4587 0.833008 22.083 0.833008C21.7073 0.833008 21.3469 0.982263 21.0813 1.24794C20.8156 1.51362 20.6663 1.87395 20.6663 2.24967V3.66634H9.33301V2.24967C9.33301 1.87395 9.18375 1.51362 8.91808 1.24794C8.6524 0.982263 8.29206 0.833008 7.91634 0.833008C7.54062 0.833008 7.18028 0.982263 6.91461 1.24794C6.64893 1.51362 6.49967 1.87395 6.49967 2.24967V3.66634H5.08301C3.95584 3.66634 2.87483 4.11411 2.0778 4.91114C1.28077 5.70817 0.833008 6.78917 0.833008 7.91634V24.9163C0.833008 26.0435 1.28077 27.1245 2.0778 27.9215C2.87483 28.7186 3.95584 29.1663 5.08301 29.1663H24.9163C26.0435 29.1663 27.1245 28.7186 27.9215 27.9215C28.7186 27.1245 29.1663 26.0435 29.1663 24.9163V7.91634C29.1663 6.78917 28.7186 5.70817 27.9215 4.91114C27.1245 4.11411 26.0435 3.66634 24.9163 3.66634ZM26.333 24.9163C26.333 25.2921 26.1838 25.6524 25.9181 25.9181C25.6524 26.1838 25.2921 26.333 24.9163 26.333H5.08301C4.70728 26.333 4.34695 26.1838 4.08127 25.9181C3.8156 25.6524 3.66634 25.2921 3.66634 24.9163V12.1663H26.333V24.9163ZM26.333 9.33301H3.66634V7.91634C3.66634 7.54062 3.8156 7.18028 4.08127 6.91461C4.34695 6.64893 4.70728 6.49967 5.08301 6.49967H24.9163C25.2921 6.49967 25.6524 6.64893 25.9181 6.91461C26.1838 7.18028 26.333 7.54062 26.333 7.91634V9.33301ZM7.91634 23.4997C8.19653 23.4997 8.47043 23.4166 8.7034 23.2609C8.93637 23.1053 9.11795 22.884 9.22517 22.6251C9.33239 22.3663 9.36045 22.0814 9.30579 21.8066C9.25112 21.5318 9.1162 21.2794 8.91808 21.0813C8.71995 20.8831 8.46753 20.7482 8.19272 20.6936C7.91791 20.6389 7.63307 20.667 7.37421 20.7742C7.11534 20.8814 6.89409 21.063 6.73843 21.2959C6.58276 21.5289 6.49967 21.8028 6.49967 22.083C6.49967 22.4587 6.64893 22.8191 6.91461 23.0847C7.18028 23.3504 7.54062 23.4997 7.91634 23.4997Z" fill="white"/>
</svg>
