<svg width="27" height="29" viewBox="0 0 27 29" fill="none" xmlns="http://www.w3.org/2000/svg">
<path d="M9.75 24.4211C9.30499 24.4211 8.86998 24.5553 8.49997 24.8069C8.12996 25.0585 7.84157 25.416 7.67127 25.8344C7.50097 26.2527 7.45642 26.7131 7.54323 27.1572C7.63005 27.6013 7.84434 28.0092 8.15901 28.3294C8.47368 28.6496 8.87459 28.8677 9.31105 28.956C9.7475 29.0443 10.1999 28.999 10.611 28.8257C11.0222 28.6524 11.3736 28.359 11.6208 27.9825C11.868 27.606 12 27.1633 12 26.7105C12 26.1033 11.7629 25.521 11.341 25.0916C10.919 24.6623 10.3467 24.4211 9.75 24.4211ZM25.5 19.8421H7.5C7.10218 19.8421 6.72064 19.6813 6.43934 19.3951C6.15804 19.1088 6 18.7206 6 18.3158C6 17.911 6.15804 17.5228 6.43934 17.2365C6.72064 16.9503 7.10218 16.7895 7.5 16.7895H20.2368C21.2139 16.7863 22.1637 16.4609 22.9439 15.8622C23.724 15.2635 24.2924 14.4237 24.564 13.4685L26.9421 4.99853C27.0059 4.77137 27.0171 4.53225 26.9746 4.29997C26.9321 4.0677 26.8373 3.84863 26.6975 3.66C26.5577 3.47137 26.3768 3.31834 26.169 3.21294C25.9612 3.10755 25.7322 3.05267 25.5 3.05263H7.1086C6.79809 2.16334 6.22566 1.39308 5.46934 0.846821C4.71301 0.300559 3.80956 0.00485483 2.88209 0H1.5C1.10218 0 0.720644 0.160808 0.43934 0.447047C0.158035 0.733287 0 1.12151 0 1.52632C0 1.93112 0.158035 2.31934 0.43934 2.60558C0.720644 2.89182 1.10218 3.05263 1.5 3.05263H2.88209C3.20771 3.05379 3.5242 3.16224 3.78418 3.36176C4.04416 3.56127 4.23362 3.84111 4.32421 4.15936L4.5575 4.99081L4.55785 4.99853L7.0188 13.7629C5.87364 13.8883 4.81931 14.4557 4.0729 15.3482C3.32649 16.2408 2.94482 17.3906 3.00649 18.5609C3.06816 19.7312 3.56847 20.8328 4.40439 21.6391C5.24032 22.4453 6.34824 22.8947 7.5 22.8947H25.5C25.8978 22.8947 26.2794 22.7339 26.5607 22.4477C26.842 22.1615 27 21.7732 27 21.3684C27 20.9636 26.842 20.5754 26.5607 20.2892C26.2794 20.0029 25.8978 19.8421 25.5 19.8421ZM23.5115 6.10526L21.6797 12.6294C21.5892 12.9479 21.3997 13.228 21.1395 13.4276C20.8794 13.6273 20.5627 13.7358 20.2368 13.7368H10.1316L9.74917 12.375L7.98963 6.10526H23.5115ZM21.75 24.4211C21.305 24.4211 20.87 24.5553 20.5 24.8069C20.13 25.0585 19.8416 25.416 19.6713 25.8344C19.501 26.2527 19.4564 26.7131 19.5432 27.1572C19.63 27.6013 19.8443 28.0092 20.159 28.3294C20.4737 28.6496 20.8746 28.8677 21.311 28.956C21.7475 29.0443 22.1999 28.999 22.611 28.8257C23.0222 28.6524 23.3736 28.359 23.6208 27.9825C23.868 27.606 24 27.1633 24 26.7105C24 26.1033 23.7629 25.521 23.341 25.0916C22.919 24.6623 22.3467 24.4211 21.75 24.4211Z" fill="black"/>
</svg>
