<svg width="43" height="33" viewBox="0 0 43 33" fill="none" xmlns="http://www.w3.org/2000/svg">
<path d="M41.3181 25.1883H40.0724V21.4513C40.0724 20.7633 39.5147 20.2056 38.8267 20.2056H37.581V16.4685C37.581 15.7805 37.0233 15.2228 36.3353 15.2228H35.0896V11.4857C35.0896 10.7977 34.5319 10.24 33.8439 10.24H32.5982V6.5029C32.5982 5.81494 32.0405 5.2572 31.3525 5.2572H28.8611V1.52011C28.8611 0.832154 28.3034 0.274414 27.6154 0.274414H14.9923C14.3044 0.274414 13.7466 0.832154 13.7466 1.52011V5.2572H11.2552C10.5673 5.2572 10.0095 5.81494 10.0095 6.5029V10.24H8.76385C8.07589 10.24 7.51815 10.7977 7.51815 11.4857V15.2228H6.27245C5.58449 15.2228 5.02675 15.7805 5.02675 16.4685V20.2056H3.78105C3.09309 20.2056 2.53535 20.7633 2.53535 21.4513V25.1883H1.28965C0.601687 25.1883 0.0439453 25.7461 0.0439453 26.434V31.4168C0.0439453 32.1048 0.601687 32.6625 1.28965 32.6625C4.26645 32.6625 39.634 32.6625 41.3181 32.6625C42.0061 32.6625 42.5638 32.1048 42.5638 31.4168V26.434C42.5638 25.7461 42.0061 25.1883 41.3181 25.1883ZM32.5982 12.7314V15.2228H27.0007L26.5791 12.7314H32.5982ZM30.1068 7.74859V10.24H26.1575L25.7358 7.74859C27.4019 7.74859 26.2409 7.74859 30.1068 7.74859ZM22.5496 2.76581H26.3697V5.2572H22.5496V2.76581ZM16.238 2.76581H20.0582V5.2572H16.238V2.76581ZM12.5009 7.74859C16.3671 7.74859 15.2088 7.74859 16.8719 7.74859L16.4503 10.24H12.5009V7.74859ZM10.0095 12.7314H16.0287L15.6071 15.2228H10.0095V12.7314ZM13.0774 30.1711H2.53535V27.6797H13.499L13.0774 30.1711ZM13.9205 25.1883H5.02675V22.6969H14.3422L13.9205 25.1883ZM14.7638 20.2056H7.51815V17.7142H15.1854L14.7638 20.2056ZM15.6042 30.1711L19.3987 7.74859H23.209L27.0036 30.1711H15.6042ZM27.4224 17.7142H35.0896V20.2056H27.844L27.4224 17.7142ZM28.2656 22.6969H37.581V25.1883H28.6872L28.2656 22.6969ZM40.0724 30.1711H29.5305L29.1089 27.6797H40.0724V30.1711Z" fill="white"/>
</svg>
