<svg width="59" height="59" viewBox="0 0 59 59" fill="none" xmlns="http://www.w3.org/2000/svg">
<path d="M29.4708 11.3336L29.4713 11.3336C29.7895 11.3298 30.1052 11.39 30.3996 11.5106C30.694 11.6312 30.9613 11.8097 31.1854 12.0356C31.4095 12.2614 31.586 12.53 31.7043 12.8254C31.8226 13.1207 31.8804 13.4369 31.8742 13.755L31.8741 13.755V13.7598V28.4074V28.5109L31.9473 28.5841L41.673 38.3098L41.673 38.3099L41.6771 38.3139C41.9056 38.5321 42.0882 38.7937 42.2144 39.0834C42.3405 39.3731 42.4075 39.685 42.4116 40.0009C42.4156 40.3169 42.3566 40.6304 42.238 40.9233C42.1193 41.2161 41.9435 41.4823 41.7207 41.7063C41.4979 41.9304 41.2327 42.1077 40.9405 42.2279C40.6483 42.3482 40.3351 42.4089 40.0192 42.4066C39.7032 42.4043 39.3909 42.339 39.1005 42.2145C38.8101 42.09 38.5475 41.9088 38.328 41.6815L38.3281 41.6815L38.325 41.6785L27.8252 31.1735L27.8241 31.1724C27.6019 30.9527 27.4252 30.6913 27.3043 30.4031C27.1833 30.1151 27.1204 29.8061 27.1191 29.4937C27.1191 29.4935 27.1191 29.4934 27.1191 29.4932L27.1191 13.7598H27.1191L27.119 13.755C27.1129 13.4412 27.169 13.1292 27.2842 12.8372C27.3994 12.5453 27.5713 12.279 27.7899 12.0538C28.0086 11.8287 28.2698 11.6491 28.5583 11.5255C28.8468 11.4018 29.1569 11.3366 29.4708 11.3336ZM0.864258 29.4943C0.864279 13.7167 13.7313 0.869629 29.5094 0.869629C45.2872 0.869629 58.1289 13.7164 58.1289 29.4943C58.1289 45.2724 45.2871 58.1343 29.5094 58.1343C13.7315 58.1343 0.864219 45.2721 0.864258 29.4943ZM53.379 29.4943C53.379 16.2776 42.7262 5.61956 29.5094 5.61956C16.293 5.61956 5.61421 16.2773 5.61419 29.4943C5.61416 42.711 16.2927 53.3843 29.5094 53.3843C42.7264 53.3843 53.379 42.7107 53.379 29.4943Z" fill="black" stroke="#FFC612" stroke-width="0.5"/>
</svg>
