<svg width="53" height="37" viewBox="0 0 53 37" fill="none" xmlns="http://www.w3.org/2000/svg">
<path d="M39.1997 14.1765C38.1703 11.1724 36.1093 8.63039 33.3829 7.0022C30.6564 5.37401 27.4411 4.76503 24.308 5.28344C21.175 5.80185 18.3272 7.41409 16.2706 9.83373C14.2139 12.2534 13.0815 15.3237 13.0747 18.4993V18.5C13.0747 19.1166 12.8297 19.708 12.3937 20.144C11.9577 20.58 11.3663 20.825 10.7497 20.825C9.27773 20.825 7.86607 21.4097 6.82524 22.4506C5.78441 23.4914 5.19968 24.903 5.19968 26.375C5.19968 27.8469 5.78441 29.2586 6.82524 30.2994C7.86607 31.3403 9.27773 31.925 10.7497 31.925L39.6247 31.925L39.6281 31.925C41.6591 31.9017 43.6087 31.1232 45.0971 29.7411C46.5855 28.359 47.5061 26.4724 47.6796 24.4487C47.8531 22.425 47.267 20.4091 46.0355 18.7939C44.804 17.1787 43.0153 16.0798 41.0179 15.7112L41.0179 15.7112L41.013 15.7104C40.6007 15.6413 40.2146 15.4623 39.8955 15.1922C39.5765 14.9223 39.3362 14.5714 39.1997 14.1765ZM39.1997 14.1765L38.9159 14.2737L39.1995 14.1759C39.1996 14.1761 39.1997 14.1763 39.1997 14.1765ZM43.0771 11.2961L43.1328 11.4237L43.2662 11.4636C46.2133 12.3458 48.7452 14.258 50.4 16.8513C52.0548 19.4447 52.7223 22.5465 52.2807 25.591C51.8391 28.6355 50.3179 31.4198 47.9944 33.4362C45.671 35.4525 42.7002 36.5665 39.6239 36.575H10.7497H10.749C8.24911 36.5803 5.83428 35.6673 3.96316 34.0093C2.09204 32.3514 0.89494 30.0641 0.599192 27.5817C0.303444 25.0993 0.929647 22.5947 2.35888 20.5436C3.78811 18.4925 5.92084 17.0377 8.35205 16.4555L8.55325 16.4073L8.57972 16.2021C9.08571 12.2797 10.8642 8.63153 13.6426 5.8169C16.4209 3.00228 20.0457 1.17658 23.9612 0.619733C27.8767 0.0628861 31.8668 0.805628 35.3197 2.73408C38.7726 4.66253 41.4977 7.67024 43.0771 11.2961Z" fill="black" stroke="#FFC602" stroke-width="0.6"/>
</svg>
