<svg width="44" height="43" viewBox="0 0 44 43" fill="none" xmlns="http://www.w3.org/2000/svg">
<g clip-path="url(#clip0_2408_632)">
<path d="M7.04504 0.208496H2.06365C1.37594 0.208496 0.818359 0.766072 0.818359 1.45386V6.5183C0.818359 7.2061 1.37585 7.76367 2.06373 7.76367C2.75152 7.76367 3.3091 7.2061 3.3091 6.5183V2.69923H7.04512C7.73291 2.69923 8.29049 2.14166 8.29049 1.45386C8.29041 0.766072 7.73283 0.208496 7.04504 0.208496Z" fill="white"/>
<path d="M42.0808 0.208496H37.0994C36.4116 0.208496 35.854 0.766072 35.854 1.45386C35.854 2.14166 36.4115 2.69923 37.0994 2.69923H40.8354V6.5183C40.8354 7.2061 41.393 7.76367 42.0808 7.76367C42.7686 7.76367 43.3261 7.2061 43.3261 6.5183V1.45386C43.3261 0.766072 42.7686 0.208496 42.0808 0.208496Z" fill="white"/>
<path d="M7.04512 40.2256H3.3091V36.4065C3.3091 35.7187 2.75152 35.1611 2.06373 35.1611C1.37594 35.1611 0.818359 35.7187 0.818359 36.4065V41.4709C0.818359 42.1587 1.37585 42.7163 2.06373 42.7163H7.04512C7.73291 42.7163 8.29049 42.1587 8.29049 41.4709C8.29049 40.7831 7.73291 40.2256 7.04512 40.2256Z" fill="white"/>
<path d="M42.0808 35.1611C41.393 35.1611 40.8354 35.7187 40.8354 36.4065V40.2256H37.0994C36.4116 40.2256 35.854 40.7831 35.854 41.4709C35.854 42.1587 36.4116 42.7163 37.0994 42.7163H42.0808C42.7686 42.7163 43.3261 42.1587 43.3261 41.4709V36.4065C43.3261 35.7187 42.7686 35.1611 42.0808 35.1611Z" fill="white"/>
<path d="M40.0406 10.4251L22.6961 0.376291C22.31 0.152564 21.8336 0.152564 21.4475 0.376291L4.09588 10.425C3.71337 10.6466 3.47461 11.0593 3.47461 11.5018C3.47461 11.5043 3.47486 11.5068 3.47486 11.5092V31.434C3.47486 31.8807 3.7176 32.2988 4.1085 32.5188L21.4476 42.5605C21.6343 42.6687 21.8566 42.7282 22.0719 42.7282C22.2967 42.7282 22.5164 42.6646 22.6963 42.5605L40.0283 32.5187C40.0312 32.5171 40.034 32.5154 40.0369 32.5138C40.4386 32.2239 40.6551 31.9804 40.6612 31.449C40.6613 31.444 40.6617 31.4391 40.6617 31.4342V11.5093C40.6617 11.5068 40.6619 11.5043 40.6619 11.5019C40.6619 11.0591 40.423 10.6463 40.0406 10.4251ZM20.8265 39.3222L7.22126 31.4396L17.71 25.4247C18.3067 25.0825 18.5129 24.3215 18.1707 23.7249C17.8286 23.1282 17.0676 22.922 16.4709 23.2641L5.96535 29.2843V13.6544L20.8265 22.1891V39.3222ZM22.0718 20.0321L7.21943 11.4982L22.0718 2.8931L36.9242 11.4982L22.0718 20.0321ZM38.1791 29.2843L27.6728 23.2641C27.0761 22.922 26.3151 23.1281 25.973 23.7248C25.6307 24.3215 25.837 25.0824 26.4337 25.4246L36.9224 31.4395L23.3171 39.322V22.1891L38.179 13.6544V29.2843H38.1791Z" fill="white"/>
</g>
<defs>
<clipPath id="clip0_2408_632">
<rect width="42.5199" height="42.5198" fill="white" transform="translate(0.812012 0.208496)"/>
</clipPath>
</defs>
</svg>
