<svg width="70" height="40" viewBox="0 0 70 40" fill="none" xmlns="http://www.w3.org/2000/svg">
<path d="M62.9274 18.1528C62.0881 18.1589 61.2568 18.3211 60.4733 18.6313L52.102 11.5682C52.308 10.7982 52.4546 9.9994 52.4546 9.15744C52.4546 4.17043 48.5657 0.162109 43.7273 0.162109C38.8889 0.162109 35 4.17043 35 9.15744C35 10.5823 35.3491 11.91 35.9146 13.1046L25.7595 25.475C25.353 25.3965 24.9407 25.3544 24.5272 25.349C23.9023 25.349 23.3123 25.457 22.7398 25.6153L13.7926 16.3933C13.9497 15.8068 14.0544 15.1987 14.0544 14.5546C14.0544 10.5679 10.9405 7.35837 7.07252 7.35837C3.20456 7.35837 0.0906525 10.5679 0.0906525 14.5546C0.0906525 18.5414 3.20456 21.7509 7.07252 21.7509C7.69739 21.7509 8.28736 21.6429 8.85987 21.4846L17.8071 30.7066C17.6393 31.3044 17.5512 31.923 17.5453 32.5453C17.5453 36.532 20.6592 39.7415 24.5272 39.7415C28.3951 39.7415 31.509 36.532 31.509 32.5453C31.509 31.6925 31.3415 30.8901 31.0797 30.1309L41.2487 17.7462C42.0412 17.9837 42.8615 18.1528 43.7273 18.1528C45.105 18.1449 46.461 17.7983 47.6825 17.1417L56.0573 24.2048C55.9916 24.5827 55.9542 24.9652 55.9456 25.349C55.9456 29.3358 59.0595 32.5453 62.9274 32.5453C66.7954 32.5453 69.9093 29.3358 69.9093 25.349C69.9093 21.3623 66.7954 18.1528 62.9274 18.1528Z" fill="white"/>
</svg>
