<svg width="23" height="19" viewBox="0 0 23 19" fill="none" xmlns="http://www.w3.org/2000/svg">
<path d="M5.05478 0.0161133C6.92678 0.0161133 8.34278 0.784113 9.30278 2.32011C10.1188 3.61611 10.5268 5.20012 10.5268 7.07212C10.5268 9.47212 9.90278 11.6321 8.65478 13.5521C7.45478 15.4721 5.60678 17.0081 3.11078 18.1601L2.46278 16.8641C3.95078 16.2401 5.22278 15.2561 6.27878 13.9121C7.38278 12.5681 7.93478 11.2001 7.93478 9.80812C7.93478 9.23211 7.86278 8.72811 7.71878 8.29611C6.95078 8.92011 6.06278 9.23211 5.05478 9.23211C3.75878 9.23211 2.65478 8.82412 1.74278 8.00812C0.878777 7.14412 0.446777 6.01612 0.446777 4.62411C0.446777 3.32811 0.878777 2.24811 1.74278 1.38412C2.65478 0.472115 3.75878 0.0161133 5.05478 0.0161133ZM17.2948 0.0161133C19.1668 0.0161133 20.5828 0.784113 21.5428 2.32011C22.3588 3.61611 22.7668 5.20012 22.7668 7.07212C22.7668 9.47212 22.1428 11.6321 20.8948 13.5521C19.6948 15.4721 17.8468 17.0081 15.3508 18.1601L14.7028 16.8641C16.1908 16.2401 17.4628 15.2561 18.5188 13.9121C19.6228 12.5681 20.1748 11.2001 20.1748 9.80812C20.1748 9.23211 20.1028 8.72811 19.9588 8.29611C19.1908 8.92011 18.3028 9.23211 17.2948 9.23211C15.9988 9.23211 14.8948 8.82412 13.9828 8.00812C13.1188 7.14412 12.6868 6.01612 12.6868 4.62411C12.6868 3.32811 13.1188 2.24811 13.9828 1.38412C14.8948 0.472115 15.9988 0.0161133 17.2948 0.0161133Z" fill="#FA8D41"/>
</svg>
