<svg width="54" height="51" viewBox="0 0 54 51" fill="none" xmlns="http://www.w3.org/2000/svg">
<path d="M21.5603 49.2946C18.6568 48.5924 16.0513 46.9865 14.1191 44.7083C12.187 42.4302 11.0281 39.5974 10.8094 36.6183H12.6803C12.7571 36.6176 12.8323 36.5954 12.8972 36.5543C12.9622 36.5131 13.0143 36.4546 13.0478 36.3854C13.0812 36.3162 13.0947 36.2391 13.0866 36.1626C13.0785 36.0862 13.0493 36.0135 13.0021 35.9528L7.28027 28.6764C7.24165 28.6279 7.19276 28.5886 7.13711 28.5612C7.08147 28.5339 7.02045 28.5192 6.95845 28.5183C6.89634 28.5186 6.83513 28.533 6.77939 28.5604C6.72366 28.5878 6.67485 28.6275 6.63663 28.6764L0.903903 35.9528C0.855208 36.0134 0.82474 36.0866 0.816048 36.1639C0.807357 36.2411 0.8208 36.3193 0.854812 36.3892C0.88932 36.4568 0.941531 36.5139 1.00589 36.5542C1.07024 36.5946 1.14433 36.6167 1.22027 36.6183H3.17845C3.43394 40.3909 5.11481 43.9251 7.88011 46.504C10.6454 49.0829 14.2881 50.5135 18.0694 50.5055C19.2473 50.5092 20.4213 50.37 21.5657 50.091C21.6551 50.0699 21.7346 50.0189 21.7912 49.9465C21.8477 49.8742 21.8778 49.7846 21.8766 49.6928C21.8767 49.6004 21.8454 49.5108 21.788 49.4385C21.7305 49.3662 21.6502 49.3155 21.5603 49.2946ZM9.21117 11.5601C9.27245 11.5958 9.34208 11.6146 9.41299 11.6146C9.52565 11.6141 9.63352 11.569 9.71299 11.4892C11.7737 9.32513 14.4679 7.87079 17.4078 7.33551C20.3477 6.80023 23.3816 7.21161 26.0728 8.51044L25.1346 10.1359C25.097 10.2021 25.0785 10.2775 25.0814 10.3537C25.0843 10.4298 25.1084 10.5036 25.151 10.5668C25.1931 10.6316 25.2532 10.6826 25.324 10.7136C25.3947 10.7446 25.473 10.7543 25.5492 10.7414L34.7128 9.42681C34.7748 9.41797 34.834 9.39523 34.8859 9.36028C34.9379 9.32533 34.9813 9.27908 35.0128 9.22499C35.0431 9.17141 35.0608 9.11165 35.0646 9.05023C35.0684 8.98881 35.0581 8.92733 35.0346 8.87044L31.5983 0.26317C31.5689 0.192757 31.5208 0.131686 31.4593 0.086519C31.3978 0.0413517 31.3252 0.0137938 31.2492 0.00680574C31.1724 0.00155175 31.0958 0.0182526 31.0281 0.0549568C30.9605 0.0916609 30.9048 0.146852 30.8674 0.214079L29.8855 1.91044C27.9356 0.959252 25.8018 0.444404 23.6327 0.40173C21.4636 0.359056 19.3112 0.789581 17.3254 1.66334C15.3396 2.5371 13.568 3.83311 12.134 5.46116C10.7 7.08922 9.63799 9.01021 9.0219 11.0904C8.99722 11.1786 9.0024 11.2725 9.03664 11.3575C9.07087 11.4424 9.13224 11.5136 9.21117 11.5601ZM51.1784 22.551C50.5904 21.5297 49.8817 20.5829 49.0675 19.731C49.0042 19.6647 48.9205 19.6215 48.8297 19.6086C48.739 19.5956 48.6465 19.6135 48.5671 19.6595C48.4878 19.7055 48.4262 19.7768 48.3923 19.862C48.3585 19.9472 48.3542 20.0413 48.3803 20.1292C49.2236 22.9956 49.1355 26.0556 48.1289 28.8688C47.1222 31.6819 45.2488 34.1031 42.7784 35.7837L41.8403 34.1637C41.803 34.0965 41.7474 34.0413 41.6799 34.0046C41.6124 33.9679 41.5359 33.9511 41.4592 33.9562C41.3826 33.9614 41.309 33.9882 41.247 34.0337C41.1851 34.0791 41.1373 34.1412 41.1094 34.2128L37.6621 42.8092C37.6407 42.8676 37.632 42.93 37.6367 42.9921C37.6414 43.0542 37.6594 43.1146 37.6894 43.1692C37.7206 43.2219 37.7633 43.2669 37.8143 43.3009C37.8653 43.3349 37.9232 43.3569 37.9839 43.3655L47.1584 44.691C47.1763 44.6955 47.1946 44.6973 47.213 44.6964C47.2805 44.6963 47.347 44.6799 47.4069 44.6486C47.4667 44.6172 47.5181 44.5719 47.5566 44.5164C47.5997 44.4533 47.6236 44.379 47.6255 44.3026C47.6275 44.2262 47.6073 44.1508 47.5675 44.0855L46.5912 42.3892C49.7301 40.2816 51.9504 37.0595 52.8022 33.3759C53.654 29.6923 53.0735 25.8226 51.1784 22.551ZM26.9935 14.1041C24.5718 14.1041 22.2045 14.8221 20.1909 16.1674C18.1773 17.5127 16.6077 19.4249 15.6807 21.6621C14.7537 23.8994 14.5109 26.3613 14.983 28.7365C15.455 31.1117 16.6208 33.2937 18.3328 35.0065C20.0448 36.7192 22.2262 37.8859 24.6012 38.359C26.9763 38.8321 29.4382 38.5904 31.6759 37.6644C33.9135 36.7384 35.8264 35.1698 37.1726 33.1567C38.5188 31.1437 39.2379 28.7767 39.239 26.355C39.237 23.1074 37.9464 19.9933 35.6505 17.6964C33.3546 15.3996 30.2411 14.1075 26.9935 14.1041ZM32.1154 24.7895L27.0644 34.0132C27.0221 34.0941 26.9587 34.1621 26.8809 34.2101C26.8032 34.2581 26.714 34.2843 26.6226 34.2859C26.5664 34.2862 26.5107 34.2749 26.459 34.2526C26.3446 34.2184 26.2465 34.1436 26.1833 34.0423C26.12 33.941 26.0959 33.8201 26.1154 33.7023L26.9063 27.8768L22.3626 28.1823C22.2723 28.1865 22.1823 28.1677 22.1012 28.1276C22.0201 28.0875 21.9505 28.0275 21.899 27.9532C21.8492 27.8773 21.8205 27.7896 21.8159 27.699C21.8113 27.6084 21.8309 27.5182 21.8728 27.4377L26.5801 18.2855C26.6341 18.178 26.725 18.0935 26.8361 18.0474C26.9473 18.0014 27.0713 17.9968 27.1855 18.0346C27.3019 18.0719 27.401 18.1496 27.465 18.2537C27.5291 18.3577 27.5537 18.4812 27.5346 18.6019L26.579 24.6014L31.6135 24.045C31.7064 24.0347 31.8002 24.0502 31.8848 24.0896C31.9695 24.1291 32.0417 24.191 32.0935 24.2686C32.1444 24.3452 32.1734 24.4342 32.1772 24.526C32.1811 24.6179 32.1597 24.709 32.1154 24.7895Z" fill="white"/>
</svg>
