<svg width="53" height="53" viewBox="0 0 53 53" fill="none" xmlns="http://www.w3.org/2000/svg">
<path fill-rule="evenodd" clip-rule="evenodd" d="M4.07184 8.25864C4.87008 6.93694 9.2682 2.12957 12.4068 2.2747C13.345 2.35245 14.1743 2.92 14.8481 3.57826C16.3954 5.08915 20.8246 10.8036 21.076 12.0061C21.6877 14.9553 18.1733 16.6553 19.2489 19.6279C21.9909 26.3375 26.7156 31.0619 33.4281 33.8012C36.3982 34.8767 38.0983 31.3625 41.0477 31.9767C42.2476 32.2281 47.9649 36.6571 49.4759 38.2043C50.1316 38.8755 50.7018 39.7074 50.7795 40.6455C50.8962 43.9498 45.7905 48.4099 44.7953 48.98C42.4472 50.6594 39.3838 50.6309 35.6492 48.8945C25.2279 44.5588 8.57363 28.2189 4.15736 17.4043C2.46757 13.6906 2.35095 10.6066 4.07184 8.25864Z" stroke="white" stroke-width="4" stroke-linecap="round" stroke-linejoin="round"/>
<path opacity="0.4" d="M7.58594 5.53711L11.293 11.0359" stroke="white" stroke-width="4" stroke-linecap="round" stroke-linejoin="round"/>
<path opacity="0.4" d="M41.6064 41.5547L47.1279 45.8699" stroke="white" stroke-width="4" stroke-linecap="round" stroke-linejoin="round"/>
</svg>
