<svg width="24" height="28" viewBox="0 0 24 28" fill="none" xmlns="http://www.w3.org/2000/svg">
<path d="M23.2801 10.8401C23.0929 8.89197 22.4044 7.02553 21.2817 5.42251C20.1589 3.81949 18.6402 2.53453 16.8734 1.69274C15.1066 0.85096 13.1519 0.481047 11.1997 0.619024C9.24749 0.757002 7.36426 1.39817 5.73342 2.48009C4.33235 3.41695 3.15616 4.65248 2.28934 6.09794C1.42253 7.5434 0.886612 9.16289 0.720085 10.8401C0.556729 12.5063 0.766317 14.188 1.33365 15.7631C1.90097 17.3383 2.81181 18.7674 4.00009 19.9467L11.0668 27.0268C11.1907 27.1517 11.3382 27.2509 11.5007 27.3186C11.6631 27.3863 11.8374 27.4211 12.0134 27.4211C12.1894 27.4211 12.3637 27.3863 12.5262 27.3186C12.6887 27.2509 12.8361 27.1517 12.9601 27.0268L20.0001 19.9467C21.1884 18.7674 22.0992 17.3383 22.6665 15.7631C23.2339 14.188 23.4434 12.5063 23.2801 10.8401ZM18.1334 18.0668L12.0001 24.2001L5.86675 18.0668C4.96287 17.1628 4.27049 16.0699 3.83938 14.8664C3.40826 13.663 3.24913 12.379 3.37342 11.1068C3.49851 9.81489 3.9091 8.56697 4.57551 7.45321C5.24192 6.33945 6.14749 5.38769 7.22675 4.66675C8.64135 3.72707 10.3018 3.22581 12.0001 3.22581C13.6983 3.22581 15.3588 3.72707 16.7734 4.66675C17.8494 5.38491 18.753 6.33246 19.4192 7.44134C20.0855 8.55021 20.4979 9.79289 20.6268 11.0801C20.7551 12.3567 20.598 13.6458 20.1667 14.8541C19.7355 16.0625 19.041 17.1599 18.1334 18.0668ZM12.0001 6.00009C10.8134 6.00009 9.65336 6.35198 8.66667 7.01127C7.67997 7.67056 6.91093 8.60763 6.45681 9.70398C6.00268 10.8003 5.88386 12.0067 6.11537 13.1706C6.34689 14.3345 6.91833 15.4036 7.75745 16.2427C8.59656 17.0818 9.66566 17.6533 10.8295 17.8848C11.9934 18.1163 13.1998 17.9975 14.2962 17.5434C15.3925 17.0892 16.3296 16.3202 16.9889 15.3335C17.6482 14.3468 18.0001 13.1868 18.0001 12.0001C17.9966 10.4099 17.3633 8.88579 16.2388 7.76133C15.1144 6.63688 13.5903 6.00361 12.0001 6.00009ZM12.0001 15.3334C11.3408 15.3334 10.6963 15.1379 10.1482 14.7717C9.60002 14.4054 9.17278 13.8848 8.92049 13.2757C8.66819 12.6666 8.60218 11.9964 8.7308 11.3498C8.85942 10.7032 9.17689 10.1092 9.64306 9.64306C10.1092 9.17689 10.7032 8.85942 11.3498 8.7308C11.9964 8.60218 12.6666 8.66819 13.2757 8.92049C13.8848 9.17278 14.4054 9.60002 14.7717 10.1482C15.1379 10.6963 15.3334 11.3408 15.3334 12.0001C15.3334 12.8841 14.9822 13.732 14.3571 14.3571C13.732 14.9822 12.8841 15.3334 12.0001 15.3334Z" fill="white"/>
</svg>
