<svg width="24" height="24" viewBox="0 0 24 24" fill="none" xmlns="http://www.w3.org/2000/svg">
<path d="M20.645 13.1663C20.3883 13.1663 20.12 13.0847 19.8633 13.0263C19.3439 12.9102 18.8333 12.7582 18.335 12.5713C17.7937 12.3744 17.1988 12.3847 16.6646 12.6C16.1305 12.8154 15.6949 13.2207 15.4416 13.738L15.185 14.2747C14.0519 13.6321 13.0052 12.848 12.07 11.9413C11.1633 11.0061 10.3792 9.95938 9.73662 8.82634L10.2733 8.58134C10.7905 8.32808 11.1959 7.89246 11.4112 7.35831C11.6266 6.82417 11.6369 6.22924 11.44 5.68801C11.2547 5.18521 11.1027 4.67077 10.985 4.14801C10.9266 3.89134 10.88 3.62301 10.845 3.36634C10.7033 2.54456 10.2729 1.80037 9.63118 1.26779C8.98951 0.735201 8.17877 0.449218 7.34496 0.461341H3.83329C3.34008 0.460695 2.8523 0.564297 2.40193 0.765356C1.95156 0.966414 1.54876 1.26039 1.21996 1.62801C0.88433 2.0056 0.634424 2.45138 0.48741 2.93472C0.340396 3.41805 0.299759 3.92748 0.36829 4.42801C1.00248 9.28384 3.22103 13.7948 6.67996 17.2613C10.1465 20.7203 14.6575 22.9388 19.5133 23.573C19.6647 23.5846 19.8168 23.5846 19.9683 23.573C20.8286 23.5743 21.6593 23.2586 22.3016 22.6863C22.6692 22.3575 22.9632 21.9547 23.1643 21.5044C23.3653 21.054 23.4689 20.5662 23.4683 20.073V16.573C23.462 15.7669 23.1776 14.9876 22.6632 14.367C22.1488 13.7463 21.4359 13.3222 20.645 13.1663ZM21.2166 20.1663C21.2162 20.3291 21.1818 20.4901 21.1155 20.6387C21.0492 20.7874 20.9525 20.9206 20.8316 21.0297C20.7038 21.1462 20.5516 21.2328 20.3861 21.2832C20.2207 21.3337 20.0461 21.3467 19.875 21.3213C15.5213 20.7527 11.4752 18.7687 8.35996 15.6747C5.24201 12.5567 3.24066 8.4966 2.66662 4.12467C2.64128 3.95356 2.6543 3.77896 2.70474 3.6135C2.75519 3.44804 2.84179 3.29587 2.95829 3.16801C3.06868 3.04568 3.20373 2.94813 3.35455 2.88177C3.50536 2.81541 3.66852 2.78175 3.83329 2.78301H7.33329C7.60298 2.77642 7.86662 2.86349 8.07933 3.02941C8.29205 3.19532 8.44069 3.42983 8.49996 3.69301C8.49996 4.00801 8.60496 4.33467 8.67496 4.64967C8.80979 5.26085 8.98916 5.86134 9.21162 6.44634L7.57829 7.21634C7.29755 7.34521 7.07938 7.58017 6.97162 7.86967C6.85494 8.15371 6.85494 8.4723 6.97162 8.75634C8.65069 12.3529 11.5417 15.2439 15.1383 16.923C15.4223 17.0397 15.7409 17.0397 16.025 16.923C16.3145 16.8153 16.5494 16.5971 16.6783 16.3163L17.4133 14.683C18.0152 14.9025 18.631 15.0818 19.2566 15.2197C19.56 15.2897 19.8866 15.348 20.2016 15.3947C20.4648 15.4539 20.6993 15.6026 20.8652 15.8153C21.0311 16.028 21.1182 16.2917 21.1116 16.5613L21.2166 20.1663ZM14.3333 0.333008C14.065 0.333008 13.785 0.333008 13.5166 0.333008C13.2072 0.359308 12.9209 0.507448 12.7207 0.744838C12.5205 0.982228 12.4228 1.28942 12.4491 1.59884C12.4754 1.90826 12.6236 2.19456 12.861 2.39475C13.0983 2.59495 13.4055 2.69264 13.715 2.66634H14.3333C16.1898 2.66634 17.9703 3.40384 19.283 4.71659C20.5958 6.02935 21.3333 7.80983 21.3333 9.66634C21.3333 9.87634 21.3333 10.0747 21.3333 10.2847C21.3074 10.5925 21.4047 10.8979 21.6037 11.1341C21.8027 11.3703 22.0872 11.518 22.395 11.5447H22.4883C22.7803 11.5459 23.0622 11.4375 23.2782 11.2409C23.4942 11.0443 23.6287 10.7739 23.655 10.483C23.655 10.2147 23.655 9.93467 23.655 9.66634C23.655 7.19301 22.6732 4.8208 20.9254 3.0708C19.1776 1.32079 16.8066 0.336099 14.3333 0.333008ZM16.6666 9.66634C16.6666 9.97576 16.7895 10.2725 17.0083 10.4913C17.2271 10.7101 17.5239 10.833 17.8333 10.833C18.1427 10.833 18.4395 10.7101 18.6582 10.4913C18.877 10.2725 19 9.97576 19 9.66634C19 8.42866 18.5083 7.24168 17.6331 6.36651C16.7579 5.49134 15.571 4.99967 14.3333 4.99967C14.0239 4.99967 13.7271 5.12259 13.5083 5.34138C13.2895 5.56018 13.1666 5.85692 13.1666 6.16634C13.1666 6.47576 13.2895 6.77251 13.5083 6.9913C13.7271 7.21009 14.0239 7.33301 14.3333 7.33301C14.9521 7.33301 15.5456 7.57884 15.9832 8.01643C16.4208 8.45401 16.6666 9.0475 16.6666 9.66634Z" fill="white"/>
</svg>
