<svg width="26" height="26" viewBox="0 0 26 26" fill="none" xmlns="http://www.w3.org/2000/svg">
<path d="M23.8172 21.2633C22.5102 22.6469 20.957 23.6586 19.1578 24.293C17.3586 24.9328 15.4609 25.25 13.4648 25.25C11.5562 25.25 9.81719 24.9492 8.25312 24.3422C6.68906 23.7406 5.34922 22.8984 4.24453 21.8211C3.13438 20.7437 2.27578 19.4531 1.66328 17.9492C1.05078 16.4453 0.75 14.8047 0.75 13.0273C0.75 11.2719 1.08359 9.64766 1.75078 8.15469C2.41797 6.66172 3.32578 5.36563 4.47969 4.26641C5.63359 3.16719 6.97891 2.30859 8.52656 1.67969C10.0633 1.06172 11.7148 0.75 13.4648 0.75C14.9742 0.75 16.4398 0.96875 17.8562 1.40625C19.2781 1.84375 20.5359 2.50547 21.6352 3.38047C22.7344 4.26094 23.6094 5.35469 24.2656 6.67266C24.9219 7.99063 25.25 9.53828 25.25 11.3156C25.25 12.6336 25.0695 13.7984 24.7031 14.8047C24.3367 15.8164 23.85 16.6586 23.2375 17.3422C22.625 18.0258 21.9305 18.5344 21.143 18.8734C20.3555 19.2125 19.5297 19.382 18.6656 19.382C17.7797 19.382 17.0688 19.1742 16.5328 18.7586C16.0023 18.343 15.7344 17.8125 15.7344 17.1781H15.5703C15.2367 17.7031 14.7281 18.2062 14.0391 18.6766C13.35 19.1469 12.5078 19.3875 11.507 19.3875C9.99766 19.3875 8.83281 18.8953 8.0125 17.9055C7.19219 16.9156 6.78203 15.6359 6.78203 14.05C6.78203 13.1258 6.93516 12.218 7.24688 11.3156C7.55859 10.4133 8.00156 9.61484 8.57578 8.90938C9.15 8.20937 9.83906 7.64062 10.6375 7.21406C11.4359 6.7875 12.3219 6.57422 13.3008 6.57422C14.143 6.57422 14.8539 6.74922 15.4336 7.09922C16.0078 7.44922 16.3852 7.88125 16.5656 8.38438H16.5984L16.8664 7.06641H19.8305L18.5234 13.2953C18.4797 13.6016 18.4195 13.9406 18.343 14.318C18.2664 14.6898 18.2281 15.0398 18.2281 15.3734C18.2281 15.7453 18.2992 16.057 18.4469 16.3141C18.5891 16.5656 18.8734 16.6914 19.2945 16.6914C20.1586 16.6914 20.875 16.232 21.4438 15.3078C22.007 14.3836 22.2914 13.1477 22.2914 11.5891C22.2914 10.2711 22.0672 9.10078 21.6242 8.08359C21.1813 7.06094 20.5633 6.20781 19.7758 5.51328C18.9883 4.82422 18.0477 4.29922 16.9648 3.94922C15.8766 3.59922 14.6898 3.42422 13.4047 3.42422C12.0047 3.42422 10.725 3.67031 9.56016 4.1625C8.39531 4.65469 7.4 5.33828 6.57969 6.20234C5.75938 7.07187 5.11953 8.08906 4.66562 9.26484C4.20625 10.4352 3.97656 11.7039 3.97656 13.0656C3.97656 14.5148 4.21719 15.8219 4.69297 16.9867C5.16875 18.1516 5.84141 19.1414 6.70547 19.9672C7.56953 20.793 8.60313 21.4219 9.80078 21.8594C10.9984 22.2969 12.3219 22.5156 13.7602 22.5156C15.5594 22.5156 17.107 22.2312 18.4031 21.657C19.6992 21.0883 20.8914 20.2953 21.9797 19.2836L23.8172 21.2633ZM13.3992 9.28125C12.8687 9.28125 12.3984 9.43437 11.9992 9.74062C11.6 10.0469 11.2609 10.4352 10.982 10.9109C10.7031 11.3813 10.4953 11.9062 10.3477 12.475C10.2055 13.0437 10.1289 13.5961 10.1289 14.1211C10.1289 14.3836 10.1562 14.6625 10.2109 14.9633C10.2656 15.2586 10.375 15.532 10.5445 15.7891C10.7086 16.0406 10.9273 16.2484 11.1953 16.4125C11.4633 16.5766 11.8188 16.6586 12.2617 16.6586C12.8633 16.6586 13.3719 16.5109 13.793 16.2156C14.2141 15.9203 14.5586 15.5484 14.8266 15.0945C15.0945 14.6461 15.2859 14.1539 15.4117 13.6289C15.532 13.1039 15.5922 12.6172 15.5922 12.1797C15.5922 11.8297 15.5594 11.4852 15.4938 11.1406C15.4281 10.8016 15.3133 10.4953 15.1438 10.2164C14.9797 9.94297 14.75 9.71875 14.4602 9.54375C14.1758 9.36875 13.8203 9.28125 13.3992 9.28125Z" fill="white"/>
</svg>
