<svg width="53" height="53" viewBox="0 0 53 53" fill="none" xmlns="http://www.w3.org/2000/svg">
<path d="M19.252 27.4199V36.398" stroke="white" stroke-width="4" stroke-linecap="round" stroke-linejoin="round"/>
<path d="M23.8332 31.9102H14.6726" stroke="white" stroke-width="4" stroke-linecap="round" stroke-linejoin="round"/>
<path d="M34.8783 27.6934H34.6211" stroke="white" stroke-width="4" stroke-linecap="round" stroke-linejoin="round"/>
<path d="M39.2258 36.2637H38.9685" stroke="white" stroke-width="4" stroke-linecap="round" stroke-linejoin="round"/>
<path opacity="0.4" d="M17.3921 2.69434C17.3921 4.46953 18.8604 5.90861 20.6717 5.90861H23.2045C25.9989 5.91857 28.2623 8.13695 28.2751 10.8757V12.494" stroke="white" stroke-width="4" stroke-linecap="round" stroke-linejoin="round"/>
<path fill-rule="evenodd" clip-rule="evenodd" d="M37.4242 50.5515C30.2197 50.6735 23.1473 50.6686 16.1943 50.5515C8.47664 50.5515 2.83447 45.0467 2.83447 37.4828V26.3361C2.83447 18.7723 8.47664 13.2674 16.1943 13.2674C23.1854 13.1479 30.2629 13.1504 37.4242 13.2674C45.1419 13.2674 50.7815 18.7748 50.7815 26.3361V37.4828C50.7815 45.0467 45.1419 50.5515 37.4242 50.5515Z" stroke="white" stroke-width="4" stroke-linecap="round" stroke-linejoin="round"/>
</svg>
