<svg width="53" height="41" viewBox="0 0 53 41" fill="none" xmlns="http://www.w3.org/2000/svg">
<path opacity="0.4" d="M39.9819 17.9984C43.7278 17.9984 46.7665 14.9619 46.7665 11.216C46.7665 7.47015 43.7278 4.43359 39.9819 4.43359" stroke="white" stroke-width="4" stroke-linecap="round" stroke-linejoin="round"/>
<path d="M43.1016 25.3682C44.2202 25.4453 45.3324 25.6039 46.4274 25.8503C47.9489 26.1482 49.779 26.7718 50.4304 28.1368C50.8462 29.0112 50.8462 30.0291 50.4304 30.9055C49.7811 32.2706 47.9489 32.892 46.4274 33.2049" stroke="white" stroke-width="4" stroke-linecap="round" stroke-linejoin="round"/>
<path opacity="0.4" d="M13.5536 17.9984C9.80774 17.9984 6.76904 14.9619 6.76904 11.216C6.76904 7.47015 9.80774 4.43359 13.5536 4.43359" stroke="white" stroke-width="4" stroke-linecap="round" stroke-linejoin="round"/>
<path d="M10.4348 25.3682C9.3162 25.4453 8.20401 25.6039 7.10896 25.8503C5.58747 26.1482 3.7574 26.7718 3.10808 28.1368C2.69021 29.0112 2.69021 30.0291 3.10808 30.9055C3.75525 32.2706 5.58747 32.892 7.10896 33.2049" stroke="white" stroke-width="4" stroke-linecap="round" stroke-linejoin="round"/>
<path fill-rule="evenodd" clip-rule="evenodd" d="M26.7568 26.8291C34.3471 26.8291 40.8316 27.9777 40.8316 32.5743C40.8316 37.1688 34.3899 38.3603 26.7568 38.3603C19.1643 38.3603 12.6819 37.2117 12.6819 32.6151C12.6819 28.0184 19.1236 26.8291 26.7568 26.8291Z" stroke="white" stroke-width="4" stroke-linecap="round" stroke-linejoin="round"/>
<path opacity="0.4" fill-rule="evenodd" clip-rule="evenodd" d="M26.7567 20.2729C21.7508 20.2729 17.7371 16.2592 17.7371 11.2511C17.7371 6.24518 21.7508 2.23145 26.7567 2.23145C31.7626 2.23145 35.7764 6.24518 35.7764 11.2511C35.7764 16.2592 31.7626 20.2729 26.7567 20.2729Z" stroke="white" stroke-width="4" stroke-linecap="round" stroke-linejoin="round"/>
</svg>
