<svg width="24" height="28" viewBox="0 0 24 28" fill="none" xmlns="http://www.w3.org/2000/svg">
<path d="M20.0989 3.28131C17.9335 1.16847 15.0252 -0.00980662 11.9999 6.14877e-05C8.83239 6.14877e-05 5.96939 1.25656 3.90089 3.28131C2.84031 4.30962 1.99691 5.54034 1.42066 6.90056C0.844411 8.26078 0.547032 9.72282 0.546143 11.2001C0.546143 14.4726 3.72589 18.8546 5.79614 21.0001L11.9999 28.0001L18.0461 21.0001C20.1164 18.8528 23.4554 14.4726 23.4554 11.2001C23.4538 9.72277 23.1559 8.2608 22.5794 6.90065C22.0028 5.54049 21.1594 4.30978 20.0989 3.28131ZM11.9999 15.2723C11.498 15.2732 11.0009 15.175 10.5371 14.9834C10.0733 14.7917 9.65191 14.5103 9.29713 14.1553C8.94234 13.8004 8.66114 13.3789 8.46968 12.915C8.27821 12.4511 8.18024 11.9539 8.18139 11.4521C8.18139 9.33981 9.88589 7.63531 11.9999 7.63531C14.1139 7.63531 15.8184 9.33981 15.8184 11.4521C15.8195 11.9539 15.7216 12.4511 15.5301 12.915C15.3386 13.3789 15.0574 13.8004 14.7027 14.1553C14.3479 14.5103 13.9265 14.7917 13.4627 14.9834C12.9989 15.175 12.5018 15.2732 11.9999 15.2723Z" fill="#08D665"/>
</svg>
