<svg width="33" height="27" viewBox="0 0 33 27" fill="none" xmlns="http://www.w3.org/2000/svg">
<path d="M30.5761 8.00762L28.5774 11.0139C29.5413 12.9364 30.0132 15.068 29.9508 17.2177C29.8884 19.3674 29.2937 21.468 28.2199 23.3314H5.6974C4.3018 20.9103 3.72351 18.1039 4.04826 15.3284C4.373 12.5528 5.58351 9.95571 7.50031 7.92219C9.41711 5.88867 11.9382 4.52694 14.6897 4.03888C17.4413 3.55082 20.2769 3.9624 22.7762 5.21262L25.7824 3.21387C22.7217 1.25123 19.0912 0.371757 15.4716 0.716145C11.852 1.06053 8.4525 2.60888 5.81683 5.11352C3.18116 7.61816 1.46162 10.9344 0.933257 14.5317C0.404898 18.129 1.09825 21.7996 2.9024 24.9564C3.18598 25.4476 3.59317 25.856 4.0835 26.1411C4.57384 26.4262 5.13023 26.5779 5.6974 26.5814H28.2037C28.7763 26.5836 29.3394 26.4346 29.836 26.1492C30.3325 25.8638 30.7448 25.4523 31.0312 24.9564C32.5284 22.3627 33.2798 19.4058 33.2024 16.412C33.1249 13.4183 32.2217 10.5041 30.5924 7.99137L30.5761 8.00762ZM14.6674 19.1226C14.9692 19.4248 15.3277 19.6645 15.7222 19.8281C16.1168 19.9916 16.5397 20.0758 16.9668 20.0758C17.3939 20.0758 17.8168 19.9916 18.2113 19.8281C18.6059 19.6645 18.9643 19.4248 19.2662 19.1226L28.4637 5.32637L14.6674 14.5239C14.3652 14.8257 14.1255 15.1841 13.962 15.5787C13.7984 15.9732 13.7142 16.3961 13.7142 16.8232C13.7142 17.2503 13.7984 17.6733 13.962 18.0678C14.1255 18.4623 14.3652 18.8208 14.6674 19.1226Z" fill="#2091F9"/>
</svg>
