<svg width="53" height="49" viewBox="0 0 53 49" fill="none" xmlns="http://www.w3.org/2000/svg">
<path d="M47.2 27.5975V27.8096L47.4 27.8803C48.8735 28.4013 50.1497 29.3652 51.0538 30.64C51.9579 31.9148 52.4456 33.438 52.45 35.0008V40.25C52.45 42.259 51.6519 44.1857 50.2313 45.6063C48.8107 47.0269 46.884 47.825 44.875 47.825H37C36.3834 47.825 35.792 47.58 35.356 47.144C34.92 46.708 34.675 46.1166 34.675 45.5V29.75C34.675 29.1334 34.92 28.542 35.356 28.106C35.792 27.67 36.3834 27.425 37 27.425H42.25H42.55V27.125V21.875C42.55 17.6183 40.859 13.5359 37.8491 10.5259C34.8391 7.51598 30.7567 5.825 26.5 5.825C22.2433 5.825 18.1609 7.51598 15.1509 10.5259C12.141 13.5359 10.45 17.6183 10.45 21.875V27.125V27.425H10.75H16C16.6166 27.425 17.208 27.67 17.644 28.106C18.08 28.542 18.325 29.1334 18.325 29.75V45.5C18.325 46.1166 18.08 46.708 17.644 47.144C17.208 47.58 16.6166 47.825 16 47.825H8.125C6.11599 47.825 4.18925 47.0269 2.76867 45.6063C1.34808 44.1857 0.55 42.259 0.55 40.25V35.0004C0.554478 33.4377 1.04215 31.9147 1.94617 30.64C2.85027 29.3652 4.12654 28.4013 5.6 27.8803L5.8 27.8096V27.5975V21.875C5.8 16.385 7.98089 11.1199 11.8629 7.23789C15.7449 3.35589 21.01 1.175 26.5 1.175C31.99 1.175 37.2551 3.35589 41.1371 7.23789C45.0191 11.1199 47.2 16.385 47.2 21.875V27.5975ZM13.675 32.375V32.075H13.375H8.125C7.34924 32.075 6.60526 32.3832 6.05671 32.9317C5.50817 33.4803 5.2 34.2242 5.2 35V40.25C5.2 41.0258 5.50817 41.7697 6.05671 42.3183C6.60526 42.8668 7.34924 43.175 8.125 43.175H13.375H13.675V42.875V32.375ZM39.325 42.875V43.175H39.625H44.875C45.6508 43.175 46.3947 42.8668 46.9433 42.3183C47.4918 41.7697 47.8 41.0258 47.8 40.25V35C47.8 34.2242 47.4918 33.4803 46.9433 32.9317C46.3947 32.3832 45.6508 32.075 44.875 32.075H39.625H39.325V32.375V42.875Z" fill="black" stroke="#FFCA27" stroke-width="0.6"/>
</svg>
