<svg width="70" height="70" viewBox="0 0 70 70" fill="none" xmlns="http://www.w3.org/2000/svg">
<path d="M35 2.1875C26.2976 2.1875 17.9516 5.64452 11.7981 11.7981C5.64452 17.9516 2.1875 26.2976 2.1875 35V48.125C2.1875 48.4151 2.30273 48.6933 2.50785 48.8984C2.71297 49.1035 2.99117 49.2188 3.28125 49.2188H8.75V38.2812H4.375V35C4.375 26.8777 7.60155 19.0882 13.3449 13.3449C19.0882 7.60155 26.8777 4.375 35 4.375C43.1223 4.375 50.9118 7.60155 56.6551 13.3449C62.3984 19.0882 65.625 26.8777 65.625 35V38.3688H61.25V49.3063H65.625V58.0563C65.602 60.0716 64.7852 61.9966 63.3518 63.4136C61.9185 64.8305 59.9842 65.6251 57.9688 65.625H41.5625V62.3438C41.5625 61.4735 41.2168 60.6389 40.6014 60.0236C39.9861 59.4082 39.1515 59.0625 38.2812 59.0625H31.7188C30.8485 59.0625 30.0139 59.4082 29.3986 60.0236C28.7832 60.6389 28.4375 61.4735 28.4375 62.3438V64.5312C28.4375 65.4015 28.7832 66.2361 29.3986 66.8514C30.0139 67.4668 30.8485 67.8125 31.7188 67.8125H57.9688C60.5777 67.8067 63.0781 66.7678 64.9229 64.9229C66.7678 63.0781 67.8067 60.5777 67.8125 57.9688V35C67.8125 26.2976 64.3555 17.9516 58.2019 11.7981C52.0484 5.64452 43.7024 2.1875 35 2.1875Z" fill="url(#paint0_linear_2397_2151)"/>
<path d="M16.4062 28.4375H12.0312C11.6587 28.4459 11.2896 28.5123 10.9375 28.6344V56.6781C11.2896 56.8002 11.6587 56.8666 12.0312 56.875H16.4062C17.2765 56.875 18.1111 56.5293 18.7264 55.9139C19.3418 55.2986 19.6875 54.464 19.6875 53.5938V31.7188C19.6875 30.8485 19.3418 30.0139 18.7264 29.3986C18.1111 28.7832 17.2765 28.4375 16.4062 28.4375ZM57.9688 56.875C58.3413 56.8666 58.7104 56.8002 59.0625 56.6781V28.6344C58.7104 28.5123 58.3413 28.4459 57.9688 28.4375H53.5938C52.7235 28.4375 51.8889 28.7832 51.2736 29.3986C50.6582 30.0139 50.3125 30.8485 50.3125 31.7188V53.5938C50.3125 54.464 50.6582 55.2986 51.2736 55.9139C51.8889 56.5293 52.7235 56.875 53.5938 56.875H57.9688Z" fill="url(#paint1_linear_2397_2151)"/>
<defs>
<linearGradient id="paint0_linear_2397_2151" x1="35" y1="2.1875" x2="35" y2="67.8125" gradientUnits="userSpaceOnUse">
<stop stop-color="#9180FF"/>
<stop offset="1" stop-color="#FF7878"/>
</linearGradient>
<linearGradient id="paint1_linear_2397_2151" x1="35" y1="28.4375" x2="35" y2="56.875" gradientUnits="userSpaceOnUse">
<stop stop-color="#9180FF"/>
<stop offset="1" stop-color="#FF7878"/>
</linearGradient>
</defs>
</svg>
