<svg width="37" height="37" viewBox="0 0 37 37" fill="none" xmlns="http://www.w3.org/2000/svg">
<g filter="url(#filter0_d_2397_1886)">
<path d="M32.5236 28.2366L27.0476 22.7766C28.8144 20.5258 29.773 17.7462 29.7695 14.8847C29.7695 12.3364 29.0138 9.84525 27.598 7.72637C26.1822 5.60748 24.1699 3.95601 21.8155 2.9808C19.4611 2.00558 16.8704 1.75042 14.3711 2.24758C11.8717 2.74474 9.57582 3.9719 7.77386 5.77386C5.9719 7.57582 4.74474 9.87166 4.24758 12.3711C3.75042 14.8704 4.00558 17.4611 4.9808 19.8155C5.95601 22.1699 7.60748 24.1822 9.72637 25.598C11.8452 27.0138 14.3364 27.7695 16.8847 27.7695C19.7462 27.773 22.5258 26.8144 24.7766 25.0476L30.2366 30.5236C30.3863 30.6745 30.5644 30.7944 30.7607 30.8761C30.9569 30.9579 31.1675 31 31.3801 31C31.5927 31 31.8032 30.9579 31.9995 30.8761C32.1957 30.7944 32.3739 30.6745 32.5236 30.5236C32.6745 30.3739 32.7944 30.1957 32.8761 29.9995C32.9579 29.8032 33 29.5927 33 29.3801C33 29.1675 32.9579 28.9569 32.8761 28.7607C32.7944 28.5644 32.6745 28.3863 32.5236 28.2366ZM7.22119 14.8847C7.22119 12.9735 7.78795 11.1051 8.84979 9.51596C9.91164 7.9268 11.4209 6.6882 13.1867 5.95678C14.9524 5.22537 16.8955 5.034 18.77 5.40687C20.6446 5.77974 22.3664 6.70011 23.7179 8.05158C25.0694 9.40305 25.9897 11.1249 26.3626 12.9995C26.7355 14.874 26.5441 16.817 25.8127 18.5828C25.0813 20.3486 23.8427 21.8578 22.2535 22.9197C20.6644 23.9815 18.796 24.5483 16.8847 24.5483C14.3218 24.5483 11.8638 23.5302 10.0516 21.7179C8.23931 19.9056 7.22119 17.4477 7.22119 14.8847Z" fill="url(#paint0_linear_2397_1886)"/>
</g>
<defs>
<filter id="filter0_d_2397_1886" x="0" y="0" width="37" height="37" filterUnits="userSpaceOnUse" color-interpolation-filters="sRGB">
<feFlood flood-opacity="0" result="BackgroundImageFix"/>
<feColorMatrix in="SourceAlpha" type="matrix" values="0 0 0 0 0 0 0 0 0 0 0 0 0 0 0 0 0 0 127 0" result="hardAlpha"/>
<feOffset dy="2"/>
<feGaussianBlur stdDeviation="2"/>
<feComposite in2="hardAlpha" operator="out"/>
<feColorMatrix type="matrix" values="0 0 0 0 0 0 0 0 0 0 0 0 0 0 0 0 0 0 0.2 0"/>
<feBlend mode="normal" in2="BackgroundImageFix" result="effect1_dropShadow_2397_1886"/>
<feBlend mode="normal" in="SourceGraphic" in2="effect1_dropShadow_2397_1886" result="shape"/>
</filter>
<linearGradient id="paint0_linear_2397_1886" x1="4.96636" y1="3.44953" x2="33.4738" y2="31.4738" gradientUnits="userSpaceOnUse">
<stop stop-color="#9180FF"/>
<stop offset="1" stop-color="#FF7878"/>
</linearGradient>
</defs>
</svg>
