<svg width="13" height="18" viewBox="0 0 13 18" fill="none" xmlns="http://www.w3.org/2000/svg">
<path fill-rule="evenodd" clip-rule="evenodd" d="M6.5 0C5.3162 0 4.20399 0.331813 3.24769 0.897526C3.17805 0.935817 3.1167 0.987929 3.06729 1.05076C3.01787 1.1136 2.9814 1.18588 2.96005 1.26331C2.93869 1.34073 2.93288 1.42173 2.94296 1.50148C2.95304 1.58123 2.97881 1.65811 3.01874 1.72755C3.05866 1.797 3.11193 1.85758 3.17537 1.90571C3.23882 1.95384 3.31114 1.98853 3.38805 2.00773C3.46496 2.02692 3.54488 2.03022 3.62308 2.01744C3.70127 2.00466 3.77613 1.97605 3.84322 1.93331C4.6294 1.46823 5.53273 1.19983 6.5 1.19983C9.42708 1.19983 11.8182 3.62736 11.8182 6.59904C11.8182 8.008 11.1493 9.3031 10.222 10.5582C9.29657 11.811 8.10058 13.0215 6.91779 14.2222C6.68217 14.4613 6.31783 14.4613 6.08221 14.2222C4.89942 13.0215 3.70343 11.811 2.77797 10.5582C1.85074 9.3031 1.18182 8.008 1.18182 6.59904C1.18182 5.61704 1.44618 4.69994 1.9043 3.90178C1.94639 3.83367 1.97457 3.75767 1.98716 3.67828C1.99975 3.5989 1.9965 3.51776 1.97759 3.43968C1.95869 3.3616 1.92451 3.28817 1.87711 3.22376C1.8297 3.15935 1.77002 3.10527 1.70162 3.06474C1.63323 3.02421 1.5575 2.99804 1.47894 2.98781C1.40039 2.97757 1.32061 2.98347 1.24435 3.00515C1.16808 3.02683 1.09689 3.06386 1.03499 3.11403C0.973101 3.16419 0.921771 3.22648 0.884055 3.29718C0.326817 4.26805 0 5.39719 0 6.59904C0 8.38965 0.83481 9.92839 1.83159 11.2777C2.83012 12.6293 4.06564 13.8716 5.24663 15.0705C5.93394 15.7682 7.06606 15.7682 7.75337 15.0705C8.93436 13.8716 10.1699 12.6293 11.1684 11.2777C12.1652 9.92839 13 8.38965 13 6.59904C13 2.97267 10.0719 0 6.5 0ZM6.49769 3.59831C4.87294 3.59831 3.54431 4.95071 3.5443 6.60022C3.54429 8.24974 4.87293 9.59861 6.49769 9.59861C8.12245 9.59861 9.45571 8.24974 9.4557 6.60022C9.45569 4.95071 8.12244 3.59831 6.49769 3.59831ZM6.49769 4.79813C7.48374 4.79813 8.27388 5.59916 8.27388 6.60022C8.27389 7.60131 7.48375 8.39878 6.49769 8.39878C5.51164 8.39878 4.72727 7.60131 4.72727 6.60022C4.72728 5.59916 5.51164 4.79813 6.49769 4.79813ZM4.07866 16.7987C4.07827 16.7991 4.07789 16.7995 4.0775 16.7999C3.92324 16.8115 3.77957 16.884 3.67727 17.0018C3.57497 17.1196 3.52217 17.2734 3.53017 17.4302C3.53816 17.587 3.60632 17.7345 3.72005 17.8409C3.83379 17.9474 3.98405 18.0044 4.13867 17.9997H8.86248C8.9412 18.0015 9.01947 17.9873 9.09271 17.958C9.16595 17.9287 9.23268 17.8848 9.28897 17.8289C9.34527 17.773 9.39 17.7062 9.42054 17.6326C9.45108 17.5589 9.46681 17.4798 9.46681 17.3998C9.46681 17.3199 9.45108 17.2408 9.42054 17.1671C9.39 17.0934 9.34527 17.0267 9.28897 16.9708C9.23268 16.9149 9.16595 16.871 9.09271 16.8417C9.01947 16.8123 8.9412 16.7981 8.86248 16.7999H4.13867C4.1187 16.7985 4.09867 16.7981 4.07866 16.7987Z" fill="black"/>
</svg>
