<svg width="39" height="30" viewBox="0 0 39 30" fill="none" xmlns="http://www.w3.org/2000/svg">
<path d="M4.09182 29.1175L37.6722 15.7383C38.5653 15.3053 38.6307 14.0073 37.6722 13.5073L4.31509 0.166306C3.28194 -0.250521 2.16984 0.236767 1.54672 0.970245C0.967748 1.65448 0.625627 2.71141 1.22328 3.64523L9.07081 14.6236L1.11546 25.9509C1.00595 27.8653 2.29972 29.1591 4.09182 29.1175ZM30.9911 13.4207L11.1566 13.4173L3.46361 2.64434C3.58416 2.58831 3.67415 2.54926 3.75734 2.52719L30.9911 13.4207ZM30.9894 15.8198L3.80148 26.698C3.67414 26.6708 3.62321 26.5622 3.56293 26.4595L11.1583 15.8266L30.9894 15.8198Z" fill="white"/>
</svg>
