<svg width="30" height="29" fill="none" xmlns="http://www.w3.org/2000/svg"><path d="M14.072 26.583C6.742 26.583.78 20.62.78 13.292.78 5.963 6.743 0 14.072 0 21.4 0 27.363 5.963 27.363 13.292c0 7.328-5.963 13.291-13.291 13.291Zm0-24.166c-5.996 0-10.876 4.878-10.876 10.875s4.88 10.875 10.876 10.875c5.995 0 10.875-4.878 10.875-10.875S20.067 2.417 14.072 2.417Z" fill="#fff"/><path d="M28.572 29c-.31 0-.62-.118-.855-.354l-5.794-5.794a1.21 1.21 0 0 1 1.71-1.709l5.793 5.794A1.207 1.207 0 0 1 28.572 29Z" fill="#fff"/></svg>