<svg width="54" height="55" viewBox="0 0 54 55" fill="none" xmlns="http://www.w3.org/2000/svg">
<path fill-rule="evenodd" clip-rule="evenodd" d="M51.5005 20.6014C49.8229 10.2762 41.0528 2.59483 30.5966 2.29246C30.0995 2.27297 29.615 2.45196 29.2499 2.78999C28.8848 3.12802 28.6691 3.59733 28.6504 4.09452V4.26271L29.8277 21.8748C29.905 23.0604 30.9242 23.9617 32.1103 23.8931L49.7705 22.7158C50.2681 22.679 50.7305 22.4453 51.0553 22.0664C51.38 21.6876 51.5402 21.1949 51.5005 20.6975V20.6014Z" stroke="black" stroke-width="4" stroke-linecap="round" stroke-linejoin="round"/>
<path d="M18.3664 12.7686C19.4898 12.5088 20.6394 13.0836 21.1055 14.1382C21.2276 14.3862 21.301 14.6554 21.3218 14.9311C21.5621 18.343 22.0666 25.8155 22.355 29.8522C22.4042 30.5793 22.7412 31.2568 23.2913 31.7348C23.8415 32.2128 24.5594 32.4519 25.2863 32.3991L40.1113 31.486C40.7731 31.4462 41.4219 31.6817 41.9042 32.1367C42.3865 32.5917 42.6594 33.2257 42.6582 33.8888C42.0574 42.841 35.6255 50.325 26.8654 52.2649C18.1052 54.2048 9.11503 50.136 4.79089 42.2744C3.50004 40.0117 2.68258 37.5102 2.38814 34.9219C2.26227 34.1276 2.21398 33.3229 2.24397 32.5192C2.26947 22.959 8.98368 14.7215 18.3424 12.7686" stroke="black" stroke-width="4" stroke-linecap="round" stroke-linejoin="round"/>
</svg>
