<svg width="51" height="52" viewBox="0 0 51 52" fill="none" xmlns="http://www.w3.org/2000/svg">
<path d="M49.7494 19.6555L50.4868 18.5281L49.1626 18.2785C44.4718 17.3959 42.523 13.6393 40.4602 9.66189C38.2894 5.47569 36.0454 1.14789 30.4918 0.103288L30.2302 0.0546875L29.9842 0.155488C27.238 1.28049 25.8454 2.58429 24.0346 4.44429C22.7488 5.76489 21.598 7.39149 20.485 8.96349C19.4122 10.4803 18.3022 12.0487 17.1148 13.2691L16.9168 13.4719H9.07959L6.39699 24.8719H0.0795898V29.0719L4.73379 29.7361L3.07959 33.8719V51.2719H10.2796L10.6786 46.4845L38.68 46.4749L39.0796 51.2719H46.2796V33.8719L44.6254 29.7361L49.2796 29.0719V24.8719H44.539C46.1518 23.8381 47.8348 22.5847 49.7494 19.6555ZM40.5736 27.8179L40.5862 27.8719H40.5208C40.5376 27.8539 40.5556 27.8353 40.5736 27.8179ZM28.3768 30.0253C26.1268 28.0495 24.9574 25.3429 23.7232 22.4887C22.6678 20.0485 21.5836 17.5441 19.762 15.4759C22.9474 16.9573 24.5842 20.0989 26.2954 23.3983C27.328 25.3897 28.3828 27.4105 29.797 29.0977L28.3768 30.0253ZM11.4556 16.4719H18.2206C19.9558 18.3487 20.995 20.7151 22.0708 23.2033C22.7512 24.7771 23.4442 26.3785 24.3382 27.8719H8.77299L11.4556 16.4719ZM9.37959 40.4719C7.55739 40.4719 6.07959 38.9941 6.07959 37.1719C6.07959 35.3497 7.55739 33.8719 9.37959 33.8719C11.2018 33.8719 12.6796 35.3497 12.6796 37.1719C12.6796 38.9941 11.2018 40.4719 9.37959 40.4719ZM32.4796 42.8719H16.8796L16.2796 38.6719H33.0796L32.4796 42.8719ZM39.9796 40.4719C38.1574 40.4719 36.6796 38.9941 36.6796 37.1719C36.6796 35.3497 38.1574 33.8719 39.9796 33.8719C41.8018 33.8719 43.2796 35.3497 43.2796 37.1719C43.2796 38.9941 41.8018 40.4719 39.9796 40.4719ZM42.955 23.7433C40.8538 25.0591 38.6842 26.4193 35.977 31.0507C31.7284 29.9653 29.863 26.3683 27.8932 22.5697C25.9288 18.7813 23.9038 14.8759 19.4188 13.3945C20.3092 12.3289 21.142 11.1523 21.955 10.0039C23.0284 8.48769 24.1378 6.91989 25.3252 5.69949C26.9638 4.01649 28.108 2.91309 30.418 1.92489C34.924 2.89449 36.8374 6.58629 38.8618 10.4899C40.8514 14.3275 42.9028 18.2839 47.5108 19.7209C45.8788 21.9115 44.4526 22.8049 42.955 23.7433Z" fill="white"/>
</svg>
