<svg width="89" height="90" viewBox="0 0 89 90" fill="none" xmlns="http://www.w3.org/2000/svg">
<path d="M29.2031 61.5742H26.4219C24.8858 61.5742 23.6406 62.8217 23.6406 64.3604V81.0778C23.6406 82.6166 24.8858 83.864 26.4219 83.864H29.2031C30.7392 83.864 31.9844 82.6166 31.9844 81.0778V64.3604C31.9844 62.8217 30.7392 61.5742 29.2031 61.5742Z" fill="white"/>
<path d="M12.5156 69.9331H9.73438C8.19833 69.9331 6.95312 71.1805 6.95312 72.7193V81.078C6.95312 82.6168 8.19833 83.8642 9.73438 83.8642H12.5156C14.0517 83.8642 15.2969 82.6168 15.2969 81.078V72.7193C15.2969 71.1805 14.0517 69.9331 12.5156 69.9331Z" fill="white"/>
<path d="M45.8906 53.2158H43.1094C41.5733 53.2158 40.3281 54.4633 40.3281 56.002V81.0781C40.3281 82.6169 41.5733 83.8643 43.1094 83.8643H45.8906C47.4267 83.8643 48.6719 82.6169 48.6719 81.0781V56.002C48.6719 54.4633 47.4267 53.2158 45.8906 53.2158Z" fill="white"/>
<path d="M62.5781 44.8569H59.7969C58.2608 44.8569 57.0156 46.1044 57.0156 47.6432V81.0779C57.0156 82.6167 58.2608 83.8641 59.7969 83.8641H62.5781C64.1142 83.8641 65.3594 82.6167 65.3594 81.0779V47.6432C65.3594 46.1044 64.1142 44.8569 62.5781 44.8569Z" fill="white"/>
<path d="M79.2656 36.498H76.4844C74.9483 36.498 73.7031 37.7455 73.7031 39.2843V81.0777C73.7031 82.6164 74.9483 83.8639 76.4844 83.8639H79.2656C80.8017 83.8639 82.0469 82.6164 82.0469 81.0777V39.2843C82.0469 37.7455 80.8017 36.498 79.2656 36.498Z" fill="white"/>
</svg>
