<svg width="65" height="66" viewBox="0 0 65 66" fill="none" xmlns="http://www.w3.org/2000/svg">
<path d="M30.1981 52.0304H30.1363L30.0764 52.0455C28.3023 52.4906 26.728 53.5177 25.6043 54.9628C24.5833 56.2758 23.9875 57.8654 23.8896 59.5188H19.4672C19.5655 56.8741 20.4928 54.3226 22.1238 52.2301C23.8447 50.0223 26.2501 48.4523 28.9598 47.7669H29.3314H29.3932L29.453 47.7519C31.4625 47.2481 33.565 47.2481 35.5744 47.7519L35.6343 47.7669H35.696H36.0402C38.7477 48.4565 41.1506 50.0277 42.8709 52.2346C44.5011 54.3261 45.4299 56.8754 45.5324 59.5188H41.1108C41.0129 57.8654 40.4171 56.2758 39.3961 54.9628C38.2724 53.5177 36.6981 52.4906 34.924 52.0455L34.8641 52.0304H34.8023H34.4291C33.1611 51.7259 31.8393 51.7259 30.5713 52.0304H30.1981Z" fill="white" stroke="black"/>
<path d="M56.4125 27.8162C58.0427 29.9077 58.9715 32.4569 59.074 35.1003H54.6496C54.5445 33.48 53.9613 31.9231 52.9684 30.63C51.8741 29.205 50.3428 28.1792 48.6098 27.7107L48.5457 27.6934H48.4793H48.1055C46.8376 27.3921 45.5169 27.3921 44.2489 27.6934H43.8751H43.818L43.7624 27.7062C42.4668 28.006 41.264 28.6183 40.2584 29.4896C39.2529 30.361 38.4751 31.4651 37.9925 32.7059L37.8791 32.9973L38.0915 33.2268C39.1002 34.3167 39.7696 35.6779 40.0178 37.1435C40.2659 38.6091 40.0818 40.1154 39.4881 41.4777C38.8945 42.84 37.9171 43.9991 36.6759 44.8131C35.4347 45.627 33.9835 46.0605 32.5001 46.0605C31.0168 46.0605 29.5656 45.627 28.3244 44.8131C27.0831 43.9991 26.1057 42.84 25.5121 41.4777C24.9184 40.1154 24.7344 38.6091 24.9825 37.1435C25.2306 35.6779 25.9001 34.3167 26.9088 33.2268L27.117 33.0018L27.0109 32.7141C26.5535 31.4741 25.8028 30.3635 24.823 29.4777C23.8433 28.5918 22.6637 27.957 21.3852 27.6278L21.3239 27.612H21.2605H20.8867C19.6188 27.3107 18.2981 27.3107 17.0302 27.612H16.6564H16.5946L16.5347 27.627C14.7605 28.0721 13.1863 29.0992 12.0625 30.5443C11.0415 31.8573 10.4458 33.4469 10.3478 35.1003H5.92546C6.02375 32.4556 6.95103 29.9041 8.58201 27.8117C10.3029 25.6038 12.7084 24.0338 15.418 23.3484H15.7897H15.8514L15.9113 23.3334C17.9208 22.8296 20.0232 22.8296 22.0327 23.3334L22.0926 23.3484H22.1543H22.4991C24.3244 23.8089 26.0233 24.6749 27.4699 25.8825C28.9319 27.103 30.0978 28.6406 30.8795 30.379L31.0228 30.6978L31.3714 30.6727C31.7352 30.6465 32.1004 30.6465 32.4642 30.6727L32.5001 30.6753L32.536 30.6727C32.8998 30.6465 33.265 30.6465 33.6288 30.6727L33.9774 30.6978L34.1207 30.379C34.9024 28.6406 36.0684 27.103 37.5304 25.8825C38.9769 24.6749 40.6758 23.8089 42.5012 23.3484H42.873H42.9348L42.9946 23.3334C45.0041 22.8296 47.1065 22.8296 49.116 23.3334L49.1759 23.3484H49.2376H49.5818C52.2893 24.038 54.6922 25.6092 56.4125 27.8162ZM52.3815 9.65027L52.7975 9.37283L52.3815 9.65027C53.2195 10.9066 53.6668 12.3838 53.6668 13.8949C53.6668 15.9213 52.8632 17.8646 51.4332 19.2972C50.0031 20.7298 48.0638 21.5344 46.0418 21.5344C44.5339 21.5344 43.0598 21.0865 41.8059 20.2472C40.552 19.4078 39.5746 18.2148 38.9973 16.8187C38.4201 15.4227 38.2691 13.8864 38.5633 12.4043C38.8576 10.9222 39.584 9.56098 40.6504 8.49263C41.7168 7.42429 43.0755 6.69684 44.5544 6.40213C46.0333 6.10743 47.5663 6.25867 48.9595 6.83678C50.3526 7.41489 51.5436 8.39394 52.3815 9.65027ZM48.3107 11.6232L47.9569 11.9764L48.3107 11.6232C47.8621 11.1737 47.2904 10.8676 46.6679 10.7435C46.0453 10.6195 45.4001 10.6831 44.8137 10.9264C44.2274 11.1697 43.7264 11.5817 43.3739 12.1101C43.0215 12.6385 42.8335 13.2596 42.8335 13.8949C42.8335 14.7468 43.1713 15.564 43.7728 16.1667C44.3744 16.7693 45.1906 17.1081 46.0418 17.1081C46.6765 17.1081 47.297 16.9195 47.8246 16.5663C48.3522 16.2132 48.7633 15.7113 49.006 15.1242C49.2487 14.5372 49.3122 13.8913 49.1885 13.2682C49.0648 12.6451 48.7594 12.0726 48.3107 11.6232ZM30.7173 40.9849C31.245 41.3381 31.8654 41.5267 32.5001 41.5267C33.3513 41.5267 34.1675 41.1879 34.7691 40.5853C35.3706 39.9826 35.7085 39.1654 35.7085 38.3135C35.7085 37.6782 35.5204 37.0571 35.168 36.5287C34.8155 36.0003 34.3145 35.5884 33.7282 35.345C33.1418 35.1017 32.4966 35.0381 31.874 35.1621C31.2515 35.2862 30.6798 35.5923 30.2312 36.0418C29.7825 36.4912 29.4771 37.0637 29.3534 37.6868C29.2297 38.3099 29.2932 38.9558 29.5359 39.5429C29.7786 40.1299 30.1897 40.6318 30.7173 40.9849ZM25.2982 9.65027C26.1361 10.9066 26.5835 12.3838 26.5835 13.8949C26.5835 15.9213 25.7799 17.8646 24.3498 19.2972C22.9198 20.7298 20.9804 21.5344 18.9585 21.5344C17.4506 21.5344 15.9765 21.0865 14.7226 20.2472C13.4687 19.4078 12.4912 18.2148 11.914 16.8187C11.3368 15.4227 11.1857 13.8864 11.48 12.4043C11.7743 10.9222 12.5006 9.56098 13.5671 8.49263C14.6335 7.42429 15.9921 6.69684 17.4711 6.40213C18.95 6.10743 20.4829 6.25867 21.8761 6.83678C23.2693 7.41489 24.4602 8.39394 25.2982 9.65027ZM16.2906 12.1101C15.9382 12.6385 15.7501 13.2596 15.7501 13.8949C15.7501 14.7468 16.0879 15.564 16.6895 16.1667C17.2911 16.7693 18.1073 17.1081 18.9585 17.1081C19.5932 17.1081 20.2136 16.9195 20.7412 16.5663C21.2689 16.2132 21.68 15.7113 21.9227 15.1242C22.1654 14.5372 22.2289 13.8913 22.1052 13.2682C21.9814 12.6451 21.676 12.0726 21.2274 11.6232C20.7788 11.1737 20.2071 10.8676 19.5845 10.7435C18.962 10.6195 18.3167 10.6831 17.7304 10.9264C17.144 11.1697 16.643 11.5817 16.2906 12.1101Z" fill="white" stroke="black"/>
</svg>
