<svg width="49" height="50" viewBox="0 0 49 50" fill="none" xmlns="http://www.w3.org/2000/svg">
<path d="M14.1181 14.4925H0V0.349121H14.1181V14.4925ZM2.49594 11.9921H11.6834V2.78816H2.49594V11.9921ZM49 14.4925H17.4409V0.349121H49V14.4925ZM19.9062 11.9921H46.5041V2.78816H19.9062V11.9921ZM49 31.9646H17.4409V17.8213H49V31.9646ZM19.9062 29.4949H46.5041V20.291H19.9062V29.4949ZM49 49.4368H17.4409V35.2934H49V49.4368ZM19.9062 46.9364H46.5041V37.7324H19.9062V46.9364ZM14.1181 31.9646H0V17.8213H14.1181V31.9646ZM2.49594 29.4949H11.6834V20.291H2.49594V29.4949ZM14.1181 49.4368H0V35.2934H14.1181V49.4368ZM2.49594 46.9364H11.6834V37.7324H2.49594V46.9364Z" fill="white"/>
</svg>
