<svg width="89" height="53" viewBox="0 0 89 53" fill="none" xmlns="http://www.w3.org/2000/svg">
<path d="M88.2058 9.88324C88.4164 9.88324 88.6185 9.7994 88.7674 9.65017C88.9164 9.50093 89.0001 9.29853 89.0001 9.08748V4.31297C89.0001 4.10192 88.9164 3.89952 88.7674 3.75028C88.6185 3.60105 88.4164 3.51721 88.2058 3.51721H85.8228V1.1395C85.8228 0.928456 85.7391 0.726054 85.5901 0.576822C85.4411 0.427589 85.2391 0.34375 85.0284 0.34375H48.4892C48.2785 0.34375 48.0764 0.427589 47.9275 0.576822C47.7785 0.726054 47.6948 0.928456 47.6948 1.1395V20.2217C47.6948 20.4327 47.7785 20.6351 47.9275 20.7843C48.0764 20.9336 48.2785 21.0174 48.4892 21.0174C48.6998 21.0174 48.9019 20.9336 49.0508 20.7843C49.1998 20.6351 49.2835 20.4327 49.2835 20.2217V1.93526H77.8794V32.5431L73.4677 35.4906C73.3589 35.5633 73.2697 35.6617 73.2079 35.7772C73.1461 35.8927 73.1137 36.0216 73.1135 36.1526V51.2719H48.4892C48.2785 51.2719 48.0764 51.3558 47.9275 51.505C47.7785 51.6542 47.6948 51.8566 47.6948 52.0677C47.6948 52.2787 47.7785 52.4811 47.9275 52.6304C48.0764 52.7796 48.2785 52.8634 48.4892 52.8634H85.0284C85.2391 52.8634 85.4411 52.7796 85.5901 52.6304C85.7391 52.4811 85.8228 52.2787 85.8228 52.0677V25.7983H88.2058C88.4164 25.7983 88.6185 25.7145 88.7674 25.5652C88.9164 25.416 89.0001 25.2136 89.0001 25.0025V20.228C89.0001 20.017 88.9164 19.8146 88.7674 19.6653C88.6185 19.5161 88.4164 19.4323 88.2058 19.4323H85.8228V17.8408H88.2058C88.4164 17.8408 88.6185 17.7569 88.7674 17.6077C88.9164 17.4585 89.0001 17.2561 89.0001 17.045V12.2705C89.0001 12.0595 88.9164 11.857 88.7674 11.7078C88.6185 11.5586 88.4164 11.4747 88.2058 11.4747H85.8228V9.88324H88.2058ZM85.8228 5.10872H87.4114V8.29173H85.8228V5.10872ZM84.2341 4.31297V51.2719H74.7021V36.5792L79.1138 33.6317C79.2226 33.559 79.3119 33.4605 79.3737 33.3451C79.4355 33.2296 79.4679 33.1006 79.4681 32.9696V1.93526H84.2341V4.31297ZM87.4114 21.0238V24.2068H85.8228V21.0238H87.4114ZM87.4114 13.0662V16.2493H85.8228V13.0662H87.4114Z" fill="white"/>
<path d="M72.3191 13.0755C72.5297 13.0755 72.7318 12.9917 72.8808 12.8424C73.0297 12.6932 73.1134 12.4908 73.1134 12.2797V7.50523C73.1134 7.29418 73.0297 7.09178 72.8808 6.94254C72.7318 6.79331 72.5297 6.70947 72.3191 6.70947H59.6098C59.3991 6.70947 59.197 6.79331 59.0481 6.94254C58.8991 7.09178 58.8154 7.29418 58.8154 7.50523V12.2797C58.8154 12.4908 58.8991 12.6932 59.0481 12.8424C59.197 12.9917 59.3991 13.0755 59.6098 13.0755H72.3191ZM60.4041 8.30098H71.5247V11.484H60.4041V8.30098Z" fill="white"/>
<path d="M60.3692 19.4268H42.8939V9.08834C42.8939 6.01673 40.3997 3.51807 37.3336 3.51807H5.56032C2.4942 3.51807 0 6.01673 0 9.08834V15.4639C0 15.675 0.0836881 15.8774 0.232654 16.0266C0.38162 16.1758 0.583662 16.2597 0.794332 16.2597H9.53198V47.294C9.53198 47.5051 9.61567 47.7075 9.76464 47.8567C9.9136 48.0059 10.1156 48.0898 10.3263 48.0898H15.8882C15.8933 49.3528 16.3973 50.5624 17.2901 51.4541C18.1829 52.3458 19.3919 52.8471 20.6526 52.8484V52.8802H60.3692C62.9969 52.8802 65.1352 50.738 65.1352 48.1057V24.2013C65.1352 21.5689 62.9985 19.4268 60.3692 19.4268ZM9.53198 13.8629V14.6682H1.58866V9.08834C1.58866 6.89524 3.36956 5.10957 5.56032 5.10957C7.75109 5.10957 9.53198 6.89524 9.53198 9.08834V13.8629ZM23.83 48.1057C23.83 49.8611 22.4049 51.2887 20.6526 51.2887V51.2569C19.8132 51.2556 19.0083 50.922 18.4135 50.3287C17.8186 49.7355 17.4819 48.9307 17.4769 48.0898H23.83V48.1057ZM15.0923 33.7567H23.83V36.9397H15.0923C14.8816 36.9397 14.6796 37.0235 14.5306 37.1728C14.3817 37.322 14.298 37.5244 14.298 37.7354C14.298 37.9465 14.3817 38.1489 14.5306 38.2981C14.6796 38.4474 14.8816 38.5312 15.0923 38.5312H23.83V41.7142H15.0923C14.8816 41.7142 14.6796 41.798 14.5306 41.9473C14.3817 42.0965 14.298 42.2989 14.298 42.51C14.298 42.721 14.3817 42.9234 14.5306 43.0726C14.6796 43.2219 14.8816 43.3057 15.0923 43.3057H23.83V46.4983H11.1206V9.08834C11.1206 7.52866 10.4741 6.12177 9.43984 5.10957H37.3336C39.5244 5.10957 41.3053 6.89524 41.3053 9.08834V27.4161H28.5959C28.4355 27.4161 28.283 27.4479 28.1257 27.4639C28.024 27.4168 27.9136 27.3919 27.8016 27.3907H15.0923C14.8816 27.3907 14.6796 27.4745 14.5306 27.6237C14.3817 27.773 14.298 27.9754 14.298 28.1864C14.298 28.3975 14.3817 28.5999 14.5306 28.7491C14.6796 28.8983 14.8816 28.9822 15.0923 28.9822H25.0898C24.2901 29.8496 23.8415 30.9844 23.8315 32.1652H15.0907C14.9864 32.1653 14.8831 32.186 14.7868 32.2261C14.6905 32.2661 14.603 32.3248 14.5293 32.3988C14.4556 32.4728 14.3972 32.5606 14.3573 32.6571C14.3175 32.7537 14.2971 32.8572 14.2972 32.9617C14.2973 33.0662 14.3179 33.1697 14.3579 33.2662C14.398 33.3627 14.4566 33.4504 14.5304 33.5242C14.6042 33.598 14.6919 33.6565 14.7883 33.6964C14.8847 33.7363 14.988 33.7568 15.0923 33.7567ZM63.5466 37.7291V48.1057C63.5466 49.8611 62.1215 51.2887 60.3692 51.2887H24.2033C24.9877 50.4149 25.4213 49.2809 25.4202 48.1057V32.1906C25.4202 30.4352 26.8452 29.0076 28.5975 29.0076H60.3708C62.1231 29.0076 63.5481 30.4352 63.5481 32.1906V37.7291H63.5466ZM63.5466 28.6575C62.6785 27.8621 61.5456 27.4195 60.3692 27.4161H42.8939V21.0183H60.3692C62.1215 21.0183 63.5466 22.4458 63.5466 24.2013V28.6575Z" fill="white"/>
<path d="M19.8584 9.8835H32.5677C32.7784 9.8835 32.9804 9.79966 33.1294 9.65043C33.2784 9.5012 33.3621 9.29879 33.3621 9.08775C33.3621 8.8767 33.2784 8.67429 33.1294 8.52506C32.9804 8.37583 32.7784 8.29199 32.5677 8.29199H19.8584C19.6478 8.29199 19.4457 8.37583 19.2967 8.52506C19.1478 8.67429 19.0641 8.8767 19.0641 9.08775C19.0641 9.29879 19.1478 9.5012 19.2967 9.65043C19.4457 9.79966 19.6478 9.8835 19.8584 9.8835ZM15.0924 14.658H37.3337C37.5444 14.658 37.7464 14.5742 37.8954 14.4249C38.0444 14.2757 38.1281 14.0733 38.1281 13.8623C38.1281 13.6512 38.0444 13.4488 37.8954 13.2996C37.7464 13.1503 37.5444 13.0665 37.3337 13.0665H15.0924C14.8818 13.0665 14.6797 13.1503 14.5307 13.2996C14.3818 13.4488 14.2981 13.6512 14.2981 13.8623C14.2981 14.0733 14.3818 14.2757 14.5307 14.4249C14.6797 14.5742 14.8818 14.658 15.0924 14.658ZM15.0924 19.4325H37.3337C37.5444 19.4325 37.7464 19.3487 37.8954 19.1995C38.0444 19.0502 38.1281 18.8478 38.1281 18.6368C38.1281 18.4257 38.0444 18.2233 37.8954 18.0741C37.7464 17.9249 37.5444 17.841 37.3337 17.841H15.0924C14.8818 17.841 14.6797 17.9249 14.5307 18.0741C14.3818 18.2233 14.2981 18.4257 14.2981 18.6368C14.2981 18.8478 14.3818 19.0502 14.5307 19.1995C14.6797 19.3487 14.8818 19.4325 15.0924 19.4325ZM15.0924 24.2071H37.3337C37.5444 24.2071 37.7464 24.1232 37.8954 23.974C38.0444 23.8248 38.1281 23.6223 38.1281 23.4113C38.1281 23.2003 38.0444 22.9979 37.8954 22.8486C37.7464 22.6994 37.5444 22.6155 37.3337 22.6155H15.0924C14.8818 22.6155 14.6797 22.6994 14.5307 22.8486C14.3818 22.9979 14.2981 23.2003 14.2981 23.4113C14.2981 23.6223 14.3818 23.8248 14.5307 23.974C14.6797 24.1232 14.8818 24.2071 15.0924 24.2071Z" fill="white"/>
</svg>
