<svg width="68" height="59" viewBox="0 0 68 59" fill="none" xmlns="http://www.w3.org/2000/svg">
<g clip-path="url(#clip0_1211_2022)">
<path d="M60.3339 13.0622H53.1519V5.83922C53.1519 4.56213 52.6475 3.33734 51.7495 2.43429C50.8516 1.53125 49.6338 1.02393 48.3639 1.02393H19.6361C18.3662 1.02393 17.1484 1.53125 16.2505 2.43429C15.3526 3.33734 14.8481 4.56213 14.8481 5.83922V13.0622H7.66615C5.76138 13.0622 3.93462 13.8232 2.58774 15.1777C1.24086 16.5323 0.484192 18.3695 0.484192 20.2851V53.9922C0.484192 55.2693 0.988638 56.4941 1.88656 57.3971C2.78448 58.3002 4.00232 58.8075 5.27217 58.8075H62.7279C63.9977 58.8075 65.2155 58.3002 66.1135 57.3971C67.0114 56.4941 67.5158 55.2693 67.5158 53.9922V20.2851C67.5158 18.3695 66.7592 16.5323 65.4123 15.1777C64.0654 13.8232 62.2386 13.0622 60.3339 13.0622ZM19.6361 5.83922H48.3639V13.0622H19.6361V5.83922ZM62.7279 53.9922H5.27217V32.3234H24.4241V44.3616H43.576V32.3234H62.7279V53.9922ZM29.212 32.3234H38.788V39.5463H29.212V32.3234ZM5.27217 27.5081V20.2851C5.27217 19.6466 5.52439 19.0342 5.97335 18.5827C6.42231 18.1311 7.03123 17.8775 7.66615 17.8775H60.3339C60.9688 17.8775 61.5777 18.1311 62.0267 18.5827C62.4756 19.0342 62.7279 19.6466 62.7279 20.2851V27.5081H5.27217Z" fill="#3399FF"/>
</g>
<defs>
<clipPath id="clip0_1211_2022">
<rect width="68" height="58" fill="white" transform="translate(0 0.915527)"/>
</clipPath>
</defs>
</svg>
