<svg width="31" height="31" viewBox="0 0 31 31" fill="none" xmlns="http://www.w3.org/2000/svg">
<path fill-rule="evenodd" clip-rule="evenodd" d="M17.9974 8.11819C17.5336 8.43976 17.0104 8.66572 16.4584 8.78291C15.9063 8.9001 15.3364 8.90617 14.782 8.80075C14.2276 8.69532 13.6997 8.48053 13.2291 8.16891C12.7586 7.85728 12.3549 7.45506 12.0414 6.98572C11.728 6.51638 11.5112 5.98931 11.4037 5.43529C11.2962 4.88126 11.3001 4.31136 11.4152 3.75886C11.5303 3.20635 11.7542 2.6823 12.074 2.21728C12.3938 1.75227 12.803 1.35561 13.2778 1.05044C14.2151 0.431341 15.3594 0.208493 16.4605 0.430611C17.5616 0.652728 18.5301 1.30174 19.1541 2.23579C19.7781 3.16983 20.0069 4.31293 19.7906 5.41521C19.5742 6.51749 18.9303 7.4893 17.9995 8.11819H17.9974ZM16.818 2.81844C16.5866 2.65196 16.3241 2.53374 16.046 2.47083C15.768 2.40792 15.4801 2.40161 15.1995 2.45226C14.919 2.5029 14.6515 2.60949 14.413 2.76565C14.1745 2.92182 13.9699 3.12438 13.8113 3.36128C13.6527 3.59817 13.5434 3.86456 13.4899 4.14457C13.4363 4.42459 13.4397 4.71251 13.4998 4.99119C13.5599 5.26987 13.6754 5.53362 13.8395 5.76672C14.0036 5.99983 14.2129 6.19754 14.455 6.34807C14.9228 6.6322 15.4821 6.72492 16.0165 6.60691C16.5509 6.4889 17.0192 6.16926 17.3238 5.71457C17.6284 5.25988 17.7458 4.7052 17.6516 4.16609C17.5574 3.62698 17.2588 3.145 16.818 2.82057V2.81844ZM22.3643 2.88219C22.9772 2.46994 23.7146 2.2843 24.4496 2.35722C25.1846 2.43014 25.8712 2.75706 26.3912 3.28169C26.7617 3.65516 27.0348 4.11383 27.1868 4.61747C27.3387 5.12111 27.3647 5.65434 27.2626 6.17039C27.1604 6.68643 26.9332 7.16952 26.6008 7.57729C26.2685 7.98506 25.8411 8.30505 25.3563 8.50919C24.774 8.75266 24.1323 8.81679 23.5133 8.69337C22.8944 8.56996 22.3263 8.26462 21.8819 7.81644C21.5479 7.48073 21.2923 7.07533 21.1332 6.62927C20.9742 6.18321 20.9158 5.70751 20.9621 5.23622C21.0084 4.76493 21.1583 4.3097 21.401 3.90311C21.6438 3.49652 21.9735 3.14862 22.3664 2.88432L22.3643 2.88219ZM23.3843 6.30344C23.5838 6.50211 23.8541 6.61338 24.1356 6.61278C24.275 6.61248 24.413 6.58473 24.5417 6.53111C24.6704 6.47749 24.7872 6.39904 24.8856 6.30025C24.984 6.20147 25.0619 6.08427 25.115 5.95536C25.1681 5.82645 25.1952 5.68835 25.1949 5.54894C25.1946 5.40953 25.1669 5.27154 25.1133 5.14286C25.0596 5.01417 24.9812 4.89731 24.8824 4.79894C24.6846 4.59996 24.4171 4.48566 24.1365 4.48019C23.9964 4.47991 23.8576 4.50741 23.7281 4.5611C23.5987 4.61479 23.4811 4.69362 23.3823 4.79301C23.2835 4.89241 23.2054 5.0104 23.1525 5.14017C23.0996 5.26995 23.0729 5.40892 23.074 5.54907C23.0747 5.83207 23.1861 6.10358 23.3843 6.30557V6.30344ZM5.41529 24.7442H9.26154V26.8798H5.41529C4.74197 26.8737 4.09854 26.6009 3.62604 26.1212C3.15173 25.6397 2.88607 24.9908 2.88654 24.3149V20.4687C2.60044 20.4591 2.31924 20.3917 2.05993 20.2704C1.80062 20.1492 1.56857 19.9766 1.37779 19.7632C1.17508 19.5578 1.01598 19.3136 0.91008 19.0452C0.804177 18.7768 0.753651 18.4898 0.761543 18.2013V13.5646C0.767918 12.5616 1.16529 11.6032 1.86654 10.8913C2.56567 10.1879 3.51129 9.78632 4.50154 9.77994H8.41154C7.88414 10.408 7.48686 11.1347 7.24279 11.9177H4.50154C4.07025 11.9301 3.65989 12.1064 3.35404 12.4107C3.05362 12.7196 2.88584 13.1337 2.88654 13.5646V18.3076H5.01154V24.3128C5.00662 24.3707 5.01349 24.429 5.03175 24.4842C5.05002 24.5393 5.07929 24.5902 5.11779 24.6337C5.20321 24.6997 5.30738 24.7369 5.41529 24.7399V24.7442ZM20.9278 10.8934C20.5801 10.5423 20.1664 10.2634 19.7106 10.0727C19.2547 9.88197 18.7657 9.78321 18.2715 9.78207H13.0015C12.0109 9.78999 11.0636 10.1895 10.3665 10.8934C9.66529 11.6053 9.26792 12.5637 9.26154 13.5667V20.3199C9.25854 20.8998 9.47927 21.4585 9.87779 21.8797C10.0688 22.0928 10.3009 22.2652 10.5602 22.3864C10.8194 22.5077 11.1005 22.5753 11.3865 22.5852V27.5216C11.3846 27.8585 11.4492 28.1925 11.5769 28.5043C11.7045 28.8161 11.8926 29.0996 12.1303 29.3384C12.5128 29.6954 12.9952 29.9271 13.5115 30.0014H17.7615C18.3592 29.923 18.9069 29.6264 19.2991 29.1686C19.6914 28.7108 19.9006 28.1242 19.8865 27.5216V22.5831C20.1726 22.5735 20.4538 22.5061 20.7132 22.3848C20.9725 22.2635 21.2045 22.091 21.3953 21.8776C21.5978 21.6725 21.7569 21.4287 21.8628 21.1606C21.9687 20.8926 22.0193 20.6059 22.0115 20.3178V13.5646C22.013 12.5662 21.6241 11.6068 20.9278 10.8913V10.8934ZM19.8865 20.4241H17.7615V27.5216C17.7595 27.6336 17.7137 27.7403 17.634 27.8191C17.5978 27.862 17.552 27.8959 17.5004 27.918C17.4487 27.9401 17.3926 27.9499 17.3365 27.9466H13.9153C13.8042 27.9414 13.6991 27.895 13.6205 27.8163C13.5419 27.7377 13.4955 27.6326 13.4903 27.5216V20.4241H11.3865V13.5646C11.3865 13.1332 11.5544 12.7188 11.854 12.4107C12.1599 12.1064 12.5703 11.9301 13.0015 11.9177H18.2715C18.5935 11.9234 18.9067 12.0229 19.1728 12.2041C19.439 12.3853 19.6464 12.6403 19.7697 12.9377C19.8506 13.1366 19.8903 13.3499 19.8865 13.5646V20.4241ZM25.8578 26.8777H22.0115V24.7421H25.8365C25.9445 24.739 26.0486 24.7018 26.134 24.6358C26.1768 24.594 26.2103 24.5436 26.2323 24.4879C26.2543 24.4323 26.2642 24.3726 26.2615 24.3128V18.3076H28.3865V13.5646C28.3872 13.1337 28.2195 12.7196 27.919 12.4107C27.6132 12.1064 27.2028 11.9301 26.7715 11.9177H24.0303C23.7863 11.1347 23.389 10.408 22.8615 9.77994H26.7715C27.7619 9.78902 28.7088 10.1884 29.4065 10.8913C30.1078 11.6032 30.5052 12.5616 30.5115 13.5646V18.2013C30.5115 18.7814 30.2927 19.3382 29.8974 19.7589C29.5022 20.1818 28.9624 20.4347 28.3865 20.4666V24.3128C28.3865 24.9907 28.1209 25.6388 27.647 26.1191C27.1745 26.5988 26.5311 26.8716 25.8578 26.8777ZM7.13654 2.34244C6.5042 2.34171 5.88605 2.52982 5.36131 2.88268C4.83657 3.23553 4.42916 3.73705 4.19129 4.32294C3.95123 4.90863 3.88891 5.55203 4.0121 6.17291C4.1353 6.79378 4.43855 7.36465 4.88404 7.81432C5.32937 8.26346 5.89848 8.56966 6.51867 8.6938C7.13886 8.81794 7.78198 8.75438 8.36588 8.51124C8.94977 8.2681 9.44793 7.85642 9.79673 7.3288C10.1455 6.80117 10.3291 6.18154 10.324 5.54907C10.324 4.69907 9.98829 3.88307 9.38904 3.28169C9.09397 2.98447 8.74307 2.74849 8.35651 2.58731C7.96996 2.42612 7.55536 2.3429 7.13654 2.34244ZM7.13654 6.61794C6.9964 6.61823 6.85758 6.59073 6.72813 6.53703C6.59867 6.48334 6.48115 6.40452 6.38235 6.30512C6.28354 6.20573 6.20542 6.08773 6.15251 5.95796C6.09959 5.82819 6.07292 5.68921 6.07404 5.54907C6.07459 5.26685 6.18651 4.99627 6.38547 4.79611C6.58442 4.59596 6.85434 4.48243 7.13654 4.48019C7.41789 4.48515 7.68622 4.59955 7.8846 4.79912C8.08297 4.99868 8.19577 5.2677 8.19904 5.54907C8.19849 5.83128 8.08657 6.10187 7.88762 6.30202C7.68866 6.50217 7.41875 6.6157 7.13654 6.61794Z" fill="#2091F9"/>
</svg>
