<svg width="18" height="11" viewBox="0 0 18 11" fill="none" xmlns="http://www.w3.org/2000/svg">
<path d="M12.5262 10.4571C12.3627 10.2935 12.368 10.035 12.5262 9.86087L16.0297 5.93532H1.01341C0.781254 5.93532 0.591309 5.74538 0.591309 5.51322C0.591309 5.28106 0.781254 5.09112 1.01341 5.09112H16.0297L12.5315 1.16557C12.3785 0.986176 12.3627 0.738191 12.5262 0.574626C12.6898 0.411062 12.9747 0.40051 13.1277 0.56935C13.1277 0.56935 17.3065 5.15971 17.3488 5.21247C17.391 5.26523 17.4754 5.36021 17.4754 5.51322C17.4754 5.66623 17.391 5.77176 17.3488 5.81397C17.3065 5.85618 13.1277 10.4571 13.1277 10.4571C13.0486 10.5362 12.9378 10.5784 12.827 10.5784C12.7162 10.5784 12.6107 10.5362 12.5262 10.4571Z" fill="white" stroke="white" stroke-width="0.5"/>
</svg>
