<svg width="26" height="26" viewBox="0 0 26 26" fill="none" xmlns="http://www.w3.org/2000/svg">
<path d="M12.9414 0.152344C6.03826 0.152344 0.442383 5.7715 0.442383 12.7034C0.442383 18.0139 3.73201 22.5438 8.37183 24.3776C8.35134 23.9485 8.35427 21.7277 9.89372 15.0966C10.0996 12.8846 9.81372 12.0999 9.81372 11.181C9.81372 9.09539 10.8927 8.65554 11.5229 8.65554C12.4214 8.65554 13.6624 9.00037 13.6624 10.4541C13.6624 12.1195 12.3102 12.5574 12.3102 12.5574C12.3102 12.5574 12.2127 12.9835 12.1005 14.1669C11.9883 15.3523 12.4605 16.6356 14.3862 16.6356C17.4739 16.6356 17.95 12.3321 17.95 11.1477C17.95 9.51173 16.7559 6.19079 13.0487 6.19079C8.10452 6.19079 7.25382 10.6383 7.25382 11.8246C7.25382 12.3321 7.39333 13.2275 7.48894 13.6105C8.42256 13.7623 8.32598 15.0457 7.92697 15.4101C7.48308 15.8108 5.2022 16.2878 5.2022 11.2604C5.2022 6.47292 9.45179 4.00621 13.1814 4.00621C16.7315 4.00621 20.5987 6.46606 20.5987 11.2045C20.5987 15.4346 17.5705 18.7653 14.3901 18.7653C12.48 18.7653 11.4673 17.1852 11.4673 17.1852C11.4673 18.6644 8.76206 23.7477 8.41573 24.3933C9.82055 24.9429 11.3434 25.2554 12.9424 25.2554C19.8455 25.2554 25.4424 19.6362 25.4424 12.7034C25.4424 5.77052 19.8446 0.152344 12.9414 0.152344Z" fill="white"/>
</svg>
