<svg width="76" height="64" viewBox="0 0 76 64" fill="none" xmlns="http://www.w3.org/2000/svg">
<path d="M51.4627 34.9534C53.3181 35.4875 55.1735 35.7586 56.9783 35.7586C59.7654 35.7586 62.0909 35.1217 63.8942 34.3417C62.1557 40.7061 57.9795 51.6876 49.6602 52.9243C48.8897 53.0388 48.2584 53.5959 48.0482 54.3458L46.2299 60.8493C46.0766 61.3992 46.1675 61.9879 46.4812 62.4652C46.7949 62.9425 47.299 63.261 47.864 63.3384C48.478 63.4222 49.1039 63.4648 49.7242 63.4648C59.71 63.4648 69.5995 53.042 73.7726 38.1181C76.2222 29.3626 76.9405 16.1994 70.9065 7.91404C67.5299 3.2779 62.6038 0.802174 56.2647 0.55484C56.2387 0.55405 56.2134 0.553261 56.1873 0.553261C48.3658 0.553261 41.4302 5.82078 39.3203 13.3617C38.0599 17.8699 38.6297 22.5977 40.926 26.6775C43.1979 30.7115 46.9395 33.6519 51.4627 34.9534Z" fill="white"/>
<path d="M2.50291 26.6767C4.77476 30.7115 8.51639 33.6519 13.0395 34.9534C14.8949 35.4875 16.7504 35.7586 18.5544 35.7586C21.3415 35.7586 23.6678 35.1217 25.4711 34.3417C23.7326 40.7061 19.5564 51.6876 11.2363 52.9243C10.4658 53.0388 9.83525 53.5959 9.62426 54.3458L7.80599 60.8493C7.65269 61.3992 7.74356 61.9879 8.05728 62.4652C8.3702 62.9425 8.87435 63.261 9.44014 63.3384C10.0533 63.4222 10.6792 63.4648 11.3003 63.4648C21.2861 63.4648 31.1756 53.042 35.3495 38.1182C37.7983 29.3627 38.5166 16.1994 32.4818 7.91247C29.106 3.27711 24.1791 0.800598 17.8408 0.554054C17.8148 0.553265 17.7895 0.552475 17.7626 0.552475C9.94192 0.552475 3.00549 5.82 0.89563 13.3609C-0.363171 17.8691 0.207355 22.5977 2.50291 26.6767Z" fill="white"/>
</svg>
