<svg width="26" height="26" viewBox="0 0 26 26" fill="none" xmlns="http://www.w3.org/2000/svg">
<path d="M12.9427 0.164443C7.82271 0.164443 2.96078 -0.292526 1.10371 4.48938C0.33663 6.46439 0.448026 9.02936 0.448026 12.7021C0.448026 15.9249 0.34509 18.9539 1.10371 20.9134C2.95655 25.6981 7.85796 25.2397 12.9399 25.2397C17.8427 25.2397 22.8978 25.7519 24.7774 20.9134C25.5459 18.9186 25.4331 16.3918 25.4331 12.7021C25.4331 7.80418 25.7025 4.64217 23.3349 2.2682C20.9378 -0.136902 17.6961 0.164443 12.9371 0.164443H12.9427ZM11.8231 2.42382C22.503 2.40685 23.8623 1.21562 23.1121 17.7641C22.8456 23.617 18.4039 22.9747 12.9441 22.9747C2.98898 22.9747 2.70273 22.6889 2.70273 12.6964C2.70273 2.58794 3.49238 2.42948 11.8231 2.42099V2.42382ZM19.6123 4.50494C18.7846 4.50494 18.1134 5.17837 18.1134 6.00884C18.1134 6.8393 18.7846 7.51273 19.6123 7.51273C20.4401 7.51273 21.1113 6.8393 21.1113 6.00884C21.1113 5.17837 20.4401 4.50494 19.6123 4.50494ZM12.9427 6.26349C9.39918 6.26349 6.52686 9.14679 6.52686 12.7021C6.52686 16.2574 9.39918 19.1393 12.9427 19.1393C16.4862 19.1393 19.3571 16.2574 19.3571 12.7021C19.3571 9.14679 16.4862 6.26349 12.9427 6.26349ZM12.9427 8.52287C18.449 8.52287 18.4561 16.8813 12.9427 16.8813C7.43776 16.8813 7.4293 8.52287 12.9427 8.52287Z" fill="white"/>
</svg>
