<svg width="26" height="21" viewBox="0 0 26 21" fill="none" xmlns="http://www.w3.org/2000/svg">
<path d="M0.710966 18.0231C3.04985 19.4754 5.77189 20.2427 8.58235 20.2427C12.698 20.2427 16.4695 18.6957 19.2031 15.887C21.8189 13.1988 23.2578 9.58675 23.1862 5.92114C24.1777 5.09099 25.344 3.50589 25.344 1.96096C25.344 1.36873 24.6872 0.9928 24.1546 1.29458C23.223 1.83015 22.3736 1.97023 21.4999 1.73025C19.7157 0.0287617 17.06 -0.329663 14.8222 0.850666C12.8664 1.88062 11.7791 3.76544 11.877 5.82535C8.57287 5.43088 5.52032 3.80973 3.39195 1.29046C3.04249 0.879505 2.37934 0.927913 2.10146 1.39345C1.07622 3.11142 1.08675 5.10232 1.9783 6.71009C1.5541 6.78321 1.292 7.13237 1.292 7.51036C1.292 9.12636 2.03514 10.6116 3.23195 11.625C3.0088 11.8351 2.93512 12.1472 3.02985 12.4253C3.55616 13.9723 4.74771 15.1815 6.23714 15.7871C4.61718 16.5441 2.82565 16.7964 1.23095 16.6049C0.40571 16.4957 -0.00164798 17.5813 0.710966 18.0231ZM8.79813 16.0518C9.38864 15.6079 9.07496 14.683 8.33393 14.6675C7.0287 14.6407 5.84031 14.0114 5.10033 13.0217C5.45716 12.999 5.82663 12.9454 6.1782 12.8527C6.97923 12.6406 6.94133 11.5097 6.12767 11.35C4.65087 11.0596 3.49195 10.007 3.05722 8.65155C3.45405 8.74734 3.85825 8.8009 4.2614 8.80811C5.06033 8.81223 5.36243 7.81008 4.71086 7.39089C3.24248 6.44436 2.61618 4.77274 3.03091 3.20103C5.59505 5.74296 9.07391 7.2745 12.7538 7.44753C13.2812 7.47946 13.677 6.99435 13.5612 6.50306C13.0612 4.38238 14.2717 2.89616 15.5716 2.21124C16.8579 1.53147 18.9231 1.3193 20.5063 2.94457C20.9768 3.42968 22.5641 3.44822 23.3714 3.26385C23.0093 3.93126 22.4525 4.56469 21.9315 4.92105C21.7094 5.07349 21.582 5.32685 21.5957 5.59155C21.7652 8.97496 20.4768 12.3388 18.0611 14.82C15.6274 17.3197 12.2623 18.6967 8.5834 18.6967C7.12028 18.6967 5.68558 18.4639 4.32982 18.0149C5.95083 17.708 7.49079 17.0364 8.79813 16.0518Z" fill="white"/>
</svg>
