<svg width="27" height="27" viewBox="0 0 27 27" fill="none" xmlns="http://www.w3.org/2000/svg">
<path d="M13.2853 25.0838H14.2836L14.2853 24.0855L14.2986 16.2972L14.3003 15.2955H13.2986H11.8061L11.8004 13.8302H13.2853H14.2853V12.8302V10.4045C14.2853 9.20248 14.6463 8.39299 15.1585 7.88464C15.6733 7.37371 16.4521 7.05656 17.4985 7.05656H19.0262V8.12854L18.2916 8.12888C18.2914 8.12888 18.2913 8.12888 18.2911 8.12888C17.4769 8.12895 16.713 8.32228 16.2035 8.9299C15.7273 9.4979 15.6681 10.2118 15.6681 10.7302V12.8303V13.8303H16.6681H19.0668L18.8939 15.2956H16.6814H15.6832L15.6814 16.2939L15.6681 24.0822L15.6664 25.0839H16.6681H21.3211C23.4926 25.0839 25.2459 23.3174 25.2459 21.147V5.22596V5.22592C25.2458 3.05552 23.4925 1.28906 21.321 1.28906H5.46539C3.29393 1.28906 1.54053 3.05551 1.54053 5.22596V21.1469C1.54053 23.3173 3.29386 25.0838 5.46539 25.0838H13.2853ZM19.1357 13.2467L19.1356 13.2476C19.1357 13.2472 19.1357 13.2469 19.1357 13.2465L19.1357 13.2467ZM18.8394 15.7572C18.8394 15.757 18.8394 15.7568 18.8395 15.7566L18.8394 15.7572L19.3604 15.8187L18.8394 15.7572Z" stroke="white" stroke-width="2"/>
</svg>
