<svg width="65" height="57" viewBox="0 0 65 57" fill="none" xmlns="http://www.w3.org/2000/svg">
<path opacity="0.1" d="M22.3437 28.5001L12.1875 28.5001L12.1875 20.3572C12.1875 15.8659 15.831 12.2144 20.3125 12.2144L21.3281 12.2144C23.0165 12.2144 24.375 10.853 24.375 9.16076L24.375 3.05363C24.375 1.36148 23.0166 -3.6703e-06 21.3281 -3.81792e-06L20.3125 -3.90671e-06C9.08986 -4.88782e-06 -3.4427e-06 9.10981 -4.42597e-06 20.3571L-7.09549e-06 50.8929C-7.39025e-06 54.2645 2.72948 57 6.09375 57L22.3437 57C25.708 57 28.4375 54.2645 28.4375 50.8929L28.4375 34.6072C28.4375 31.2355 25.708 28.5001 22.3437 28.5001ZM58.9063 28.5001L48.75 28.5001L48.75 20.3572C48.75 15.8659 52.3935 12.2144 56.875 12.2144L57.8906 12.2144C59.579 12.2144 60.9375 10.853 60.9375 9.16076L60.9375 3.05363C60.9375 1.36148 59.5791 -4.73908e-07 57.8906 -6.21527e-07L56.875 -7.1031e-07C45.6524 -1.69142e-06 36.5625 9.10982 36.5625 20.3571L36.5625 50.8929C36.5625 54.2645 39.292 57 42.6562 57L58.9062 57C62.2705 57 65 54.2645 65 50.8929L65 34.6072C65 31.2355 62.2705 28.5001 58.9063 28.5001Z" fill="black"/>
</svg>
