<svg width="52" height="52" viewBox="0 0 52 52" fill="none" xmlns="http://www.w3.org/2000/svg">
<path d="M51.2059 25.2498C51.1756 24.144 51.0737 23.0413 50.9007 21.949C49.0302 10.0017 38.977 0.679018 26.7796 0.177768C22.3029 -0.0181769 17.8549 0.990537 13.8873 3.10142L14.0207 3.23655C16.1927 5.43824 19.2878 6.36312 22.3195 5.83993C23.4418 5.64808 24.578 5.5515 25.7162 5.55119C29.3939 5.55399 33.0012 6.57404 36.1492 8.5014C39.2972 10.4288 41.8667 13.1904 43.5807 16.4886C45.0989 19.4228 45.8924 22.6865 45.893 25.9998C45.8971 28.9119 45.2857 31.7911 44.1 34.4437H49.8264C50.8304 31.4888 51.2978 28.3738 51.2059 25.2498ZM31.2989 45.9189C30.689 45.9189 30.0804 45.9773 29.4813 46.0932C27.9666 46.3822 26.4244 46.4955 24.8844 46.4309C20.0535 46.2293 15.4568 44.2667 11.9396 40.9039C10.3261 39.3666 8.96922 37.5743 7.92169 35.5968C6.48185 32.8714 5.67292 29.8495 5.55621 26.7602C5.4395 23.6709 6.01806 20.5951 7.24806 17.7661C8.3018 15.3415 9.81067 13.1477 11.6907 11.307H4.73929C1.61602 15.8792 0.0355595 21.3528 0.233915 26.9104C0.697089 40.458 11.596 51.4417 24.9617 51.8335C29.4916 51.9764 33.9768 50.8882 37.9521 48.682C37.0771 47.8002 36.039 47.1022 34.8973 46.6281C33.7556 46.1539 32.5327 45.9129 31.2989 45.9189Z" fill="#FD4F56"/>
<path d="M0.323131 28.3212H5.68034C5.60981 27.6942 5.55876 27.0616 5.54623 26.42C5.48748 23.6077 6.00298 20.8134 7.06036 18.2127C8.11774 15.6119 9.69416 13.2608 11.6907 11.307H4.73929C1.61602 15.8792 0.0355595 21.3528 0.233915 26.9104C0.250095 27.3844 0.281998 27.8539 0.323131 28.3212Z" fill="#FD4F56"/>
<path d="M49.8265 34.4444H44.1002C45.8445 30.5301 46.3317 26.1592 45.4931 21.949H50.9007C51.0737 23.0413 51.1756 24.144 51.2059 25.2498C51.2979 28.374 50.8306 31.4892 49.8265 34.4444Z" fill="#FD4F56"/>
<path d="M49.8267 34.4443C49.0515 36.7177 47.9649 38.8693 46.5986 40.8359L46.5846 40.9037H16.5964L33.7591 17.9548H29.1023L11.9393 40.9037H6.65169L7.58875 36.0056L7.92192 35.5967L22.5337 17.7661H1.54277C2.30278 15.4712 3.37893 13.2967 4.73929 11.307L44.7912 11.307L43.7528 16.2651L43.5809 16.4893L29.7728 34.4443H49.8267Z" fill="#FD4F56"/>
<path d="M29.1023 17.9548L22.2036 27.1813H14.8171L22.5336 17.7657L29.1023 17.9548Z" fill="#FD4F56"/>
</svg>
