<svg width="50" height="50" viewBox="0 0 50 50" fill="none" xmlns="http://www.w3.org/2000/svg">
<path d="M49.9889 24.2745C49.9592 23.2048 49.8592 22.1383 49.6896 21.0817C47.8558 9.5255 37.9997 0.508016 26.0415 0.0231747C21.6526 -0.166355 17.2918 0.809337 13.402 2.85112L13.5327 2.98182C15.6622 5.11144 18.6966 6.00605 21.6688 5.49998C22.7692 5.31441 23.8831 5.22099 24.9989 5.22069C28.6045 5.22341 32.1411 6.21006 35.2274 8.07433C38.3137 9.93859 40.8328 12.6098 42.5132 15.8001C44.0016 18.6382 44.7795 21.7951 44.7802 24.9999C44.7841 27.8167 44.1847 30.6017 43.0223 33.1674H48.6364C49.6207 30.3092 50.079 27.2962 49.9889 24.2745ZM30.4722 44.2669C29.8742 44.2669 29.2776 44.3234 28.6902 44.4355C27.2052 44.7151 25.6933 44.8247 24.1835 44.7622C19.4473 44.5672 14.9407 42.6688 11.4925 39.4161C9.91063 37.9291 8.58032 36.1956 7.55334 34.2828C6.14173 31.6466 5.34866 28.7236 5.23424 25.7354C5.11982 22.7472 5.68704 19.7722 6.89292 17.0357C7.92599 14.6905 9.40528 12.5686 11.2484 10.7881H4.43334C1.3713 15.2106 -0.178162 20.505 0.0163041 25.8807C0.470396 38.9849 11.1556 49.6089 24.2592 49.988C28.7003 50.1261 33.0976 49.0736 36.9949 46.9396C36.1371 46.0867 35.1193 45.4115 34 44.9529C32.8807 44.4943 31.6818 44.2611 30.4722 44.2669Z" fill="url(#paint0_linear_2397_1877)"/>
<path d="M0.10377 27.2453H5.35593C5.28678 26.6388 5.23674 26.027 5.22445 25.4064C5.16685 22.6861 5.67225 19.9833 6.70889 17.4677C7.74554 14.9521 9.29106 12.6779 11.2484 10.7881H4.43334C1.3713 15.2106 -0.178162 20.505 0.0163041 25.8807C0.0321666 26.3392 0.0634436 26.7933 0.10377 27.2453Z" fill="url(#paint1_linear_2397_1877)"/>
<path d="M48.6365 33.1681H43.0224C44.7325 29.3819 45.2102 25.1541 44.3881 21.0817H49.6896C49.8592 22.1383 49.9592 23.2048 49.9889 24.2745C50.0791 27.2964 49.6209 30.3096 48.6365 33.1681Z" fill="url(#paint2_linear_2397_1877)"/>
<path d="M48.6366 33.168C47.8767 35.367 46.8113 37.4481 45.4718 39.3504L45.4581 39.416H16.058L32.8842 17.2183H28.3187L11.4921 39.416H6.30824L7.22693 34.6781L7.55356 34.2827L21.8788 17.0357H1.29949C2.0446 14.816 3.09965 12.7126 4.43334 10.7881L43.6999 10.7881L42.6818 15.5839L42.5134 15.8007L28.976 33.168H48.6366Z" fill="url(#paint3_linear_2397_1877)"/>
<path d="M28.3187 17.2183L21.5552 26.1427H14.3135L21.8787 17.0354L28.3187 17.2183Z" fill="url(#paint4_linear_2397_1877)"/>
<defs>
<linearGradient id="paint0_linear_2397_1877" x1="7" y1="1.5" x2="44.5" y2="47" gradientUnits="userSpaceOnUse">
<stop stop-color="#9180FF"/>
<stop offset="1" stop-color="#FF7878"/>
</linearGradient>
<linearGradient id="paint1_linear_2397_1877" x1="7" y1="1.5" x2="44.5" y2="47" gradientUnits="userSpaceOnUse">
<stop stop-color="#9180FF"/>
<stop offset="1" stop-color="#FF7878"/>
</linearGradient>
<linearGradient id="paint2_linear_2397_1877" x1="7" y1="1.5" x2="44.5" y2="47" gradientUnits="userSpaceOnUse">
<stop stop-color="#9180FF"/>
<stop offset="1" stop-color="#FF7878"/>
</linearGradient>
<linearGradient id="paint3_linear_2397_1877" x1="7" y1="1.5" x2="44.5" y2="47" gradientUnits="userSpaceOnUse">
<stop stop-color="#9180FF"/>
<stop offset="1" stop-color="#FF7878"/>
</linearGradient>
<linearGradient id="paint4_linear_2397_1877" x1="7" y1="1.5" x2="44.5" y2="47" gradientUnits="userSpaceOnUse">
<stop stop-color="#9180FF"/>
<stop offset="1" stop-color="#FF7878"/>
</linearGradient>
</defs>
</svg>
