<svg width="52" height="52" viewBox="0 0 52 52" fill="none" xmlns="http://www.w3.org/2000/svg">
<path d="M51.0604 24.8451C51.0301 23.7503 50.9281 22.6586 50.7552 21.5772C48.8847 9.7494 38.8315 0.519957 26.6341 0.0237194C22.1574 -0.170266 17.7094 0.828361 13.7418 2.91813L13.8751 3.05191C16.0472 5.23158 19.1423 6.14722 22.174 5.62926C23.2963 5.43933 24.4325 5.34372 25.5707 5.34341C29.2484 5.34618 32.8557 6.35603 36.0037 8.26412C39.1517 10.1722 41.7212 12.9062 43.4352 16.1714C44.9534 19.0763 45.7469 22.3074 45.7475 25.5875C45.7516 28.4705 45.1402 31.321 43.9545 33.947H49.6809C50.6849 31.0216 51.1523 27.9378 51.0604 24.8451ZM31.1534 45.3074C30.5435 45.3074 29.9349 45.3652 29.3358 45.48C27.8211 45.7661 26.2789 45.8783 24.7389 45.8143C19.908 45.6148 15.3113 43.6718 11.7941 40.3426C10.1806 38.8207 8.82371 37.0463 7.77618 35.0886C6.33634 32.3904 5.52742 29.3988 5.4107 26.3403C5.29399 23.2819 5.87256 20.2369 7.10255 17.4362C8.15629 15.0358 9.66516 12.864 11.5451 11.0417H4.59378C1.47051 15.5682 -0.109948 20.987 0.0884075 26.4891C0.551581 39.9012 11.4505 50.775 24.8162 51.1629C29.3461 51.3043 33.8313 50.2271 37.8066 48.0429C36.9316 47.17 35.8935 46.4789 34.7518 46.0095C33.6101 45.5401 32.3872 45.3015 31.1534 45.3074Z" fill="#08D665"/>
<path d="M0.177623 27.8857H5.53483C5.4643 27.265 5.41325 26.6387 5.40072 26.0036C5.34197 23.2194 5.85747 20.453 6.91485 17.8783C7.97223 15.3035 9.54865 12.9759 11.5451 11.0417H4.59378C1.47051 15.5682 -0.109948 20.987 0.0884075 26.4891C0.104587 26.9583 0.13649 27.4231 0.177623 27.8857Z" fill="#08D665"/>
<path d="M49.6809 33.947H43.9545C45.6989 30.0718 46.1862 25.7453 45.3476 21.5772H50.7552C50.9281 22.6586 51.0301 23.7503 51.0604 24.8451C51.1523 27.9378 50.6849 31.0216 49.6809 33.947Z" fill="#08D665"/>
<path d="M49.6809 33.947C48.9058 36.1977 47.8194 38.3284 46.4531 40.2753L46.439 40.3424H16.4509L33.6136 17.623H28.9568L11.7941 40.3426L6.50619 40.3424L7.44324 35.4933L7.77618 35.0886L22.3882 17.4362H1.39726C2.15727 15.1642 3.23342 13.0114 4.59378 11.0417H44.6457L43.6073 15.9502L43.4352 16.1714L29.6273 33.9476L49.6809 33.947Z" fill="#08D665"/>
<path d="M28.9568 17.623L22.0581 26.7572H14.6716L22.3882 17.4362L28.9568 17.623Z" fill="#08D665"/>
</svg>
