<svg width="52" height="53" fill="none" xmlns="http://www.w3.org/2000/svg"><path d="M51.011 25.758a25.06 25.06 0 0 0-.305-3.268C48.836 10.662 38.782 1.432 26.585.936a25.31 25.31 0 0 0-12.892 2.895l.133.133c2.172 2.18 5.267 3.096 8.299 2.578a20.155 20.155 0 0 1 13.83 2.635 20.25 20.25 0 0 1 7.431 7.907 20.34 20.34 0 0 1 2.312 9.416 20.249 20.249 0 0 1-1.793 8.36h5.727a25.69 25.69 0 0 0 1.38-9.102ZM31.104 46.22c-.61 0-1.218.058-1.817.172a20.238 20.238 0 0 1-4.597.335 20.033 20.033 0 0 1-12.945-5.472A20.549 20.549 0 0 1 7.727 36a20.22 20.22 0 0 1-.674-17.652 20.23 20.23 0 0 1 4.443-6.395H4.545A25.58 25.58 0 0 0 .039 27.401c.463 13.413 11.362 24.286 24.728 24.674 4.53.142 9.015-.936 12.99-3.12a9.369 9.369 0 0 0-6.653-2.735Z" fill="#F7752A"/><path d="M.128 28.798h5.358a20.17 20.17 0 0 1-.134-1.882 20.265 20.265 0 0 1 1.514-8.125 20.205 20.205 0 0 1 4.63-6.837H4.545A25.58 25.58 0 0 0 .128 28.798Zm49.504 6.062h-5.726a20.359 20.359 0 0 0 1.392-12.37h5.408a25.69 25.69 0 0 1-1.074 12.37Z" fill="#F7752A"/><path d="M49.632 34.86a25.433 25.433 0 0 1-3.228 6.328l-.014.067H16.402l17.163-22.72h-4.657l-17.163 22.72H6.457l.937-4.85.333-.404L22.34 18.349H1.349a25.472 25.472 0 0 1 3.196-6.395h40.052l-1.039 4.909-.172.221L29.578 34.86h20.054Z" fill="#F7752A"/><path d="m28.908 18.535-6.9 9.135h-7.386l7.717-9.322 6.569.187Z" fill="#F7752A"/></svg>