<svg width="52" height="53" viewBox="0 0 52 53" fill="none" xmlns="http://www.w3.org/2000/svg">
<path d="M51.0112 25.7577C50.9809 24.6629 50.8789 23.5712 50.706 22.4898C48.8355 10.662 38.7823 1.43255 26.5849 0.936317C22.1082 0.742332 17.6602 1.74096 13.6926 3.83073L13.8259 3.96451C15.998 6.14418 19.0931 7.05982 22.1248 6.54186C23.2471 6.35193 24.3833 6.25631 25.5215 6.25601C29.1992 6.25878 32.8065 7.26863 35.9545 9.17671C39.1025 11.0848 41.672 13.8188 43.386 17.084C44.9042 19.9889 45.6977 23.2199 45.6983 26.5001C45.7024 29.3831 45.091 32.2336 43.9053 34.8596H49.6317C50.6357 31.9342 51.1031 28.8504 51.0112 25.7577ZM31.1042 46.22C30.4943 46.22 29.8857 46.2778 29.2866 46.3926C27.7719 46.6787 26.2297 46.7909 24.6897 46.7269C19.8588 46.5274 15.2621 44.5844 11.7449 41.2551C10.1314 39.7333 8.77451 37.9589 7.72699 36.0012C6.28715 33.303 5.47822 30.3114 5.36151 27.2529C5.2448 24.1945 5.82336 21.1495 7.05336 18.3488C8.10709 15.9484 9.61597 13.7766 11.496 11.9543H4.54459C1.42131 16.4808 -0.159143 21.8996 0.0392132 27.4017C0.502387 40.8138 11.4013 51.6876 24.767 52.0755C29.2969 52.2169 33.7821 51.1397 37.7574 48.9555C36.8824 48.0826 35.8443 47.3915 34.7026 46.9221C33.5609 46.4527 32.338 46.2141 31.1042 46.22Z" fill="#18A0FB"/>
<path d="M0.128428 28.7983H5.48563C5.4151 28.1776 5.36406 27.5513 5.35152 26.9162C5.29277 24.132 5.80827 21.3656 6.86565 18.7909C7.92304 16.2161 9.49946 13.8885 11.496 11.9543H4.54459C1.42131 16.4808 -0.159143 21.8996 0.0392132 27.4017C0.0553929 27.8709 0.0872954 28.3357 0.128428 28.7983Z" fill="#18A0FB"/>
<path d="M49.6318 34.8603H43.9055C45.6498 30.9851 46.137 26.6579 45.2984 22.4898H50.706C50.8789 23.5712 50.9809 24.6629 51.0112 25.7577C51.1032 28.8506 50.6359 31.9347 49.6318 34.8603Z" fill="#18A0FB"/>
<path d="M49.632 34.8602C48.8568 37.1109 47.7702 39.241 46.4039 41.1879L46.3899 41.255H16.4017L33.5644 18.5356H28.9076L11.7446 41.255H6.45699L7.39405 36.4059L7.72721 36.0011L22.339 18.3488H1.34806C2.10808 16.0768 3.18422 13.924 4.54459 11.9543H44.5965L43.5581 16.8628L43.3862 17.0847L29.5781 34.8602H49.632Z" fill="#18A0FB"/>
<path d="M28.9076 18.5356L22.0089 27.6698H14.6224L22.3389 18.3484L28.9076 18.5356Z" fill="#18A0FB"/>
</svg>