<svg width="87" height="88" viewBox="0 0 87 88" fill="none" xmlns="http://www.w3.org/2000/svg">
<path d="M86.8328 42.8883C86.7813 41.027 86.6079 39.1712 86.3138 37.3327C83.1339 17.2243 66.0425 1.53339 45.3059 0.689739C37.6951 0.359947 30.133 2.0577 23.3878 5.61051L23.6144 5.83794C27.3072 9.54358 32.5692 11.1003 37.7232 10.2197C39.6313 9.89677 41.5629 9.73422 43.498 9.7337C49.7504 9.73842 55.883 11.4552 61.235 14.6992C66.5869 17.9431 70.9553 22.5911 73.8692 28.1423C76.4503 33.0809 77.7993 38.5739 77.8004 44.1505C77.8073 49.0519 76.7679 53.8979 74.7522 58.3625H84.4875C86.1944 53.389 86.989 48.1462 86.8328 42.8883ZM52.9891 77.6762C51.9521 77.6762 50.9175 77.7744 49.899 77.9695C47.3239 78.456 44.702 78.6467 42.0839 78.5379C33.8709 78.1987 26.0561 74.8954 20.0765 69.2354C17.3334 66.6481 15.0265 63.6316 13.2456 60.3033C10.7978 55.7161 9.42254 50.63 9.22412 45.4304C9.0257 40.2308 10.0093 35.054 12.1004 30.2925C13.8919 26.2116 16.4571 22.5194 19.6532 19.4213H7.83528C2.52543 27.1167 -0.161489 36.3293 0.175734 45.6833C0.963171 68.4851 19.4923 86.9715 42.2152 87.6311C49.9165 87.8715 57.5417 86.0401 64.3001 82.3268C62.8126 80.8426 61.0477 79.6679 59.1066 78.8698C57.1656 78.0717 55.0867 77.6661 52.9891 77.6762Z" fill="white"/>
<path d="M0.327408 48.0577H9.43515C9.31524 47.0024 9.22845 45.9377 9.20715 44.8579C9.10727 40.1245 9.98366 35.4215 11.7813 31.0441C13.579 26.6668 16.259 22.7097 19.6532 19.4213H7.83528C2.52543 27.1167 -0.161489 36.3293 0.175734 45.6833C0.203241 46.481 0.257478 47.2712 0.327408 48.0577Z" fill="white"/>
<path d="M84.4877 58.3636H74.7524C77.7179 51.7754 78.5462 44.4188 77.1205 37.3327H86.3138C86.6079 39.1712 86.7813 41.027 86.8328 42.8883C86.9892 48.1466 86.1947 53.3897 84.4877 58.3636Z" fill="white"/>
<path d="M84.4879 58.3634C83.1701 62.1898 81.3227 65.8111 78.9999 69.1211L78.9761 69.2352H27.9935L57.1717 30.6101H49.2547L20.0759 69.2352H11.0865L12.6796 60.9912L13.246 60.3031L38.0874 30.2925H2.4009C3.69299 26.43 5.52254 22.77 7.83528 19.4213L75.9272 19.4213L74.1617 27.7662L73.8696 28.1435L50.3945 58.3634H84.4879Z" fill="white"/>
<path d="M49.2547 30.6101L37.5262 46.1391H24.9685L38.0872 30.2919L49.2547 30.6101Z" fill="white"/>
</svg>
